G04 #@! TF.GenerationSoftware,KiCad,Pcbnew,(5.1.10)-1*
G04 #@! TF.CreationDate,2021-10-04T13:56:36-03:00*
G04 #@! TF.ProjectId,ESP-pwm_4ch,4553502d-7077-46d5-9f34-63682e6b6963,rev?*
G04 #@! TF.SameCoordinates,Original*
G04 #@! TF.FileFunction,Soldermask,Bot*
G04 #@! TF.FilePolarity,Negative*
%FSLAX46Y46*%
G04 Gerber Fmt 4.6, Leading zero omitted, Abs format (unit mm)*
G04 Created by KiCad (PCBNEW (5.1.10)-1) date 2021-10-04 13:56:36*
%MOMM*%
%LPD*%
G01*
G04 APERTURE LIST*
%ADD10O,2.500000X1.750000*%
%ADD11R,2.500000X1.750000*%
%ADD12C,2.500000*%
%ADD13R,3.500000X3.500000*%
%ADD14C,3.500000*%
%ADD15R,2.000000X2.500000*%
%ADD16O,2.000000X2.500000*%
G04 APERTURE END LIST*
D10*
G04 #@! TO.C,U2*
X92710000Y-67310000D03*
X92710000Y-69850000D03*
X92710000Y-72390000D03*
X92710000Y-74930000D03*
X92710000Y-77470000D03*
X92710000Y-80010000D03*
X92710000Y-82550000D03*
X92710000Y-85090000D03*
X69850000Y-85090000D03*
X69850000Y-82550000D03*
X69850000Y-80010000D03*
X69850000Y-77470000D03*
X69850000Y-74930000D03*
X69850000Y-72390000D03*
D11*
X69850000Y-67310000D03*
D10*
X69850000Y-69850000D03*
G04 #@! TD*
D12*
G04 #@! TO.C,HS1*
X134540000Y-102108000D03*
X124540000Y-102108001D03*
G04 #@! TD*
D10*
G04 #@! TO.C,U3*
X93980000Y-101600000D03*
X93980000Y-99060000D03*
X68580000Y-116840000D03*
X68580000Y-114300000D03*
X93980000Y-104140000D03*
X93980000Y-106680000D03*
X93980000Y-109220000D03*
X93980000Y-111760000D03*
X93980000Y-114300000D03*
X93980000Y-116840000D03*
X93980000Y-93980000D03*
X93980000Y-96520000D03*
X68580000Y-111760000D03*
X68580000Y-109220000D03*
X68580000Y-106680000D03*
X68580000Y-104140000D03*
X68580000Y-101600000D03*
X68580000Y-99060000D03*
D11*
X68580000Y-93980000D03*
D10*
X68580000Y-96520000D03*
G04 #@! TD*
D12*
G04 #@! TO.C,HS3*
X157400000Y-102108000D03*
X147400000Y-102108001D03*
G04 #@! TD*
G04 #@! TO.C,HS4*
X157400000Y-72898000D03*
X147400000Y-72898001D03*
G04 #@! TD*
G04 #@! TO.C,HS2*
X134540000Y-72898000D03*
X124540000Y-72898001D03*
G04 #@! TD*
D13*
G04 #@! TO.C,J1*
X110490000Y-121920000D03*
D14*
X115570000Y-121920000D03*
G04 #@! TD*
D13*
G04 #@! TO.C,J2*
X121920000Y-121920000D03*
D14*
X127000000Y-121920000D03*
G04 #@! TD*
G04 #@! TO.C,J3*
X138430000Y-121920000D03*
D13*
X133350000Y-121920000D03*
G04 #@! TD*
G04 #@! TO.C,J4*
X144780000Y-121920000D03*
D14*
X149860000Y-121920000D03*
G04 #@! TD*
G04 #@! TO.C,J5*
X161290000Y-121920000D03*
D13*
X156210000Y-121920000D03*
G04 #@! TD*
D15*
G04 #@! TO.C,Q1*
X127000000Y-109220000D03*
D16*
X129540000Y-109220000D03*
X132080000Y-109220000D03*
G04 #@! TD*
G04 #@! TO.C,Q2*
X132080000Y-80010000D03*
X129540000Y-80010000D03*
D15*
X127000000Y-80010000D03*
G04 #@! TD*
D16*
G04 #@! TO.C,Q3*
X154940000Y-109220000D03*
X152400000Y-109220000D03*
D15*
X149860000Y-109220000D03*
G04 #@! TD*
G04 #@! TO.C,Q4*
X149860000Y-80010000D03*
D16*
X152400000Y-80010000D03*
X154940000Y-80010000D03*
G04 #@! TD*
M02*
