%FSLAX45Y45*%
G04 Gerber Fmt 4.5, Leading zero omitted, Abs format (unit mm)*
G04 Created by KiCad (PCBNEW (5.1.10)-1) date 2021-10-04 13:51:50*
%MOMM*%
%LPD*%
G01*
G04 APERTURE LIST*
%TA.AperFunction,Profile*%
%ADD10C,0.100000*%
%TD*%
%ADD11C,0.200000*%
%ADD12C,0.300000*%
G04 APERTURE END LIST*
D10*
X16777000Y-13208000D02*
X16777000Y-6428000D01*
X16777000Y-6428000D02*
X6477000Y-6428000D01*
X6477000Y-13208000D02*
X16777000Y-13208000D01*
X6477000Y-6428000D02*
X6477000Y-13208000D01*
D11*
X12329000Y-7164800D02*
X12579000Y-7414800D01*
X12579000Y-7164800D02*
X12329000Y-7414800D01*
X12329000Y-10085800D02*
X12579000Y-10335800D01*
X12579000Y-10085800D02*
X12329000Y-10335800D01*
X13329000Y-7164800D02*
X13579000Y-7414800D01*
X13579000Y-7164800D02*
X13329000Y-7414800D01*
X13329000Y-10085800D02*
X13579000Y-10335800D01*
X13579000Y-10085800D02*
X13329000Y-10335800D01*
X14615000Y-7164800D02*
X14865000Y-7414800D01*
X14865000Y-7164800D02*
X14615000Y-7414800D01*
X14615000Y-10085800D02*
X14865000Y-10335800D01*
X14865000Y-10085800D02*
X14615000Y-10335800D01*
X15615000Y-7164800D02*
X15865000Y-7414800D01*
X15865000Y-7164800D02*
X15615000Y-7414800D01*
X15615000Y-10085800D02*
X15865000Y-10335800D01*
X15865000Y-10085800D02*
X15615000Y-10335800D01*
D12*
X6758428Y-13678714D02*
X6758428Y-13378714D01*
X6829857Y-13378714D01*
X6872714Y-13393000D01*
X6901286Y-13421571D01*
X6915571Y-13450143D01*
X6929857Y-13507286D01*
X6929857Y-13550143D01*
X6915571Y-13607286D01*
X6901286Y-13635857D01*
X6872714Y-13664429D01*
X6829857Y-13678714D01*
X6758428Y-13678714D01*
X7058428Y-13678714D02*
X7058428Y-13478714D01*
X7058428Y-13535857D02*
X7072714Y-13507286D01*
X7087000Y-13493000D01*
X7115571Y-13478714D01*
X7144143Y-13478714D01*
X7244143Y-13678714D02*
X7244143Y-13478714D01*
X7244143Y-13378714D02*
X7229857Y-13393000D01*
X7244143Y-13407286D01*
X7258428Y-13393000D01*
X7244143Y-13378714D01*
X7244143Y-13407286D01*
X7429857Y-13678714D02*
X7401286Y-13664429D01*
X7387000Y-13635857D01*
X7387000Y-13378714D01*
X7587000Y-13678714D02*
X7558428Y-13664429D01*
X7544143Y-13635857D01*
X7544143Y-13378714D01*
X7929857Y-13678714D02*
X7929857Y-13378714D01*
X8029857Y-13593000D01*
X8129857Y-13378714D01*
X8129857Y-13678714D01*
X8401286Y-13678714D02*
X8401286Y-13521571D01*
X8387000Y-13493000D01*
X8358428Y-13478714D01*
X8301286Y-13478714D01*
X8272714Y-13493000D01*
X8401286Y-13664429D02*
X8372714Y-13678714D01*
X8301286Y-13678714D01*
X8272714Y-13664429D01*
X8258428Y-13635857D01*
X8258428Y-13607286D01*
X8272714Y-13578714D01*
X8301286Y-13564429D01*
X8372714Y-13564429D01*
X8401286Y-13550143D01*
X8544143Y-13478714D02*
X8544143Y-13778714D01*
X8544143Y-13493000D02*
X8572714Y-13478714D01*
X8629857Y-13478714D01*
X8658428Y-13493000D01*
X8672714Y-13507286D01*
X8687000Y-13535857D01*
X8687000Y-13621571D01*
X8672714Y-13650143D01*
X8658428Y-13664429D01*
X8629857Y-13678714D01*
X8572714Y-13678714D01*
X8544143Y-13664429D01*
X8815571Y-13650143D02*
X8829857Y-13664429D01*
X8815571Y-13678714D01*
X8801286Y-13664429D01*
X8815571Y-13650143D01*
X8815571Y-13678714D01*
X8815571Y-13493000D02*
X8829857Y-13507286D01*
X8815571Y-13521571D01*
X8801286Y-13507286D01*
X8815571Y-13493000D01*
X8815571Y-13521571D01*
X6222000Y-14048000D02*
X6472000Y-14298000D01*
X6472000Y-14048000D02*
X6222000Y-14298000D01*
X6744143Y-14037286D02*
X6758428Y-14023000D01*
X6787000Y-14008714D01*
X6858428Y-14008714D01*
X6887000Y-14023000D01*
X6901286Y-14037286D01*
X6915571Y-14065857D01*
X6915571Y-14094429D01*
X6901286Y-14137286D01*
X6729857Y-14308714D01*
X6915571Y-14308714D01*
X7044143Y-14280143D02*
X7058428Y-14294429D01*
X7044143Y-14308714D01*
X7029857Y-14294429D01*
X7044143Y-14280143D01*
X7044143Y-14308714D01*
X7329857Y-14008714D02*
X7187000Y-14008714D01*
X7172714Y-14151571D01*
X7187000Y-14137286D01*
X7215571Y-14123000D01*
X7287000Y-14123000D01*
X7315571Y-14137286D01*
X7329857Y-14151571D01*
X7344143Y-14180143D01*
X7344143Y-14251571D01*
X7329857Y-14280143D01*
X7315571Y-14294429D01*
X7287000Y-14308714D01*
X7215571Y-14308714D01*
X7187000Y-14294429D01*
X7172714Y-14280143D01*
X7529857Y-14008714D02*
X7558428Y-14008714D01*
X7587000Y-14023000D01*
X7601286Y-14037286D01*
X7615571Y-14065857D01*
X7629857Y-14123000D01*
X7629857Y-14194429D01*
X7615571Y-14251571D01*
X7601286Y-14280143D01*
X7587000Y-14294429D01*
X7558428Y-14308714D01*
X7529857Y-14308714D01*
X7501286Y-14294429D01*
X7487000Y-14280143D01*
X7472714Y-14251571D01*
X7458428Y-14194429D01*
X7458428Y-14123000D01*
X7472714Y-14065857D01*
X7487000Y-14037286D01*
X7501286Y-14023000D01*
X7529857Y-14008714D01*
X7815571Y-14008714D02*
X7844143Y-14008714D01*
X7872714Y-14023000D01*
X7887000Y-14037286D01*
X7901286Y-14065857D01*
X7915571Y-14123000D01*
X7915571Y-14194429D01*
X7901286Y-14251571D01*
X7887000Y-14280143D01*
X7872714Y-14294429D01*
X7844143Y-14308714D01*
X7815571Y-14308714D01*
X7787000Y-14294429D01*
X7772714Y-14280143D01*
X7758428Y-14251571D01*
X7744143Y-14194429D01*
X7744143Y-14123000D01*
X7758428Y-14065857D01*
X7772714Y-14037286D01*
X7787000Y-14023000D01*
X7815571Y-14008714D01*
X8044143Y-14308714D02*
X8044143Y-14108714D01*
X8044143Y-14137286D02*
X8058428Y-14123000D01*
X8087000Y-14108714D01*
X8129857Y-14108714D01*
X8158428Y-14123000D01*
X8172714Y-14151571D01*
X8172714Y-14308714D01*
X8172714Y-14151571D02*
X8187000Y-14123000D01*
X8215571Y-14108714D01*
X8258428Y-14108714D01*
X8287000Y-14123000D01*
X8301286Y-14151571D01*
X8301286Y-14308714D01*
X8444143Y-14308714D02*
X8444143Y-14108714D01*
X8444143Y-14137286D02*
X8458428Y-14123000D01*
X8487000Y-14108714D01*
X8529857Y-14108714D01*
X8558428Y-14123000D01*
X8572714Y-14151571D01*
X8572714Y-14308714D01*
X8572714Y-14151571D02*
X8587000Y-14123000D01*
X8615571Y-14108714D01*
X8658428Y-14108714D01*
X8687000Y-14123000D01*
X8701286Y-14151571D01*
X8701286Y-14308714D01*
X9287000Y-13994429D02*
X9029857Y-14380143D01*
X9672714Y-14008714D02*
X9701286Y-14008714D01*
X9729857Y-14023000D01*
X9744143Y-14037286D01*
X9758428Y-14065857D01*
X9772714Y-14123000D01*
X9772714Y-14194429D01*
X9758428Y-14251571D01*
X9744143Y-14280143D01*
X9729857Y-14294429D01*
X9701286Y-14308714D01*
X9672714Y-14308714D01*
X9644143Y-14294429D01*
X9629857Y-14280143D01*
X9615571Y-14251571D01*
X9601286Y-14194429D01*
X9601286Y-14123000D01*
X9615571Y-14065857D01*
X9629857Y-14037286D01*
X9644143Y-14023000D01*
X9672714Y-14008714D01*
X9901286Y-14280143D02*
X9915571Y-14294429D01*
X9901286Y-14308714D01*
X9887000Y-14294429D01*
X9901286Y-14280143D01*
X9901286Y-14308714D01*
X10101286Y-14008714D02*
X10129857Y-14008714D01*
X10158428Y-14023000D01*
X10172714Y-14037286D01*
X10187000Y-14065857D01*
X10201286Y-14123000D01*
X10201286Y-14194429D01*
X10187000Y-14251571D01*
X10172714Y-14280143D01*
X10158428Y-14294429D01*
X10129857Y-14308714D01*
X10101286Y-14308714D01*
X10072714Y-14294429D01*
X10058428Y-14280143D01*
X10044143Y-14251571D01*
X10029857Y-14194429D01*
X10029857Y-14123000D01*
X10044143Y-14065857D01*
X10058428Y-14037286D01*
X10072714Y-14023000D01*
X10101286Y-14008714D01*
X10344143Y-14308714D02*
X10401286Y-14308714D01*
X10429857Y-14294429D01*
X10444143Y-14280143D01*
X10472714Y-14237286D01*
X10487000Y-14180143D01*
X10487000Y-14065857D01*
X10472714Y-14037286D01*
X10458428Y-14023000D01*
X10429857Y-14008714D01*
X10372714Y-14008714D01*
X10344143Y-14023000D01*
X10329857Y-14037286D01*
X10315571Y-14065857D01*
X10315571Y-14137286D01*
X10329857Y-14165857D01*
X10344143Y-14180143D01*
X10372714Y-14194429D01*
X10429857Y-14194429D01*
X10458428Y-14180143D01*
X10472714Y-14165857D01*
X10487000Y-14137286D01*
X10658428Y-14137286D02*
X10629857Y-14123000D01*
X10615571Y-14108714D01*
X10601286Y-14080143D01*
X10601286Y-14065857D01*
X10615571Y-14037286D01*
X10629857Y-14023000D01*
X10658428Y-14008714D01*
X10715571Y-14008714D01*
X10744143Y-14023000D01*
X10758428Y-14037286D01*
X10772714Y-14065857D01*
X10772714Y-14080143D01*
X10758428Y-14108714D01*
X10744143Y-14123000D01*
X10715571Y-14137286D01*
X10658428Y-14137286D01*
X10629857Y-14151571D01*
X10615571Y-14165857D01*
X10601286Y-14194429D01*
X10601286Y-14251571D01*
X10615571Y-14280143D01*
X10629857Y-14294429D01*
X10658428Y-14308714D01*
X10715571Y-14308714D01*
X10744143Y-14294429D01*
X10758428Y-14280143D01*
X10772714Y-14251571D01*
X10772714Y-14194429D01*
X10758428Y-14165857D01*
X10744143Y-14151571D01*
X10715571Y-14137286D01*
X11029857Y-14108714D02*
X11029857Y-14308714D01*
X10958428Y-13994429D02*
X10887000Y-14208714D01*
X11072714Y-14208714D01*
X11172714Y-14008714D02*
X11172714Y-14065857D01*
X11287000Y-14008714D02*
X11287000Y-14065857D01*
X11729857Y-14423000D02*
X11715571Y-14408714D01*
X11687000Y-14365857D01*
X11672714Y-14337286D01*
X11658428Y-14294429D01*
X11644143Y-14223000D01*
X11644143Y-14165857D01*
X11658428Y-14094429D01*
X11672714Y-14051571D01*
X11687000Y-14023000D01*
X11715571Y-13980143D01*
X11729857Y-13965857D01*
X11887000Y-14137286D02*
X11858428Y-14123000D01*
X11844143Y-14108714D01*
X11829857Y-14080143D01*
X11829857Y-14065857D01*
X11844143Y-14037286D01*
X11858428Y-14023000D01*
X11887000Y-14008714D01*
X11944143Y-14008714D01*
X11972714Y-14023000D01*
X11987000Y-14037286D01*
X12001286Y-14065857D01*
X12001286Y-14080143D01*
X11987000Y-14108714D01*
X11972714Y-14123000D01*
X11944143Y-14137286D01*
X11887000Y-14137286D01*
X11858428Y-14151571D01*
X11844143Y-14165857D01*
X11829857Y-14194429D01*
X11829857Y-14251571D01*
X11844143Y-14280143D01*
X11858428Y-14294429D01*
X11887000Y-14308714D01*
X11944143Y-14308714D01*
X11972714Y-14294429D01*
X11987000Y-14280143D01*
X12001286Y-14251571D01*
X12001286Y-14194429D01*
X11987000Y-14165857D01*
X11972714Y-14151571D01*
X11944143Y-14137286D01*
X12358428Y-14308714D02*
X12358428Y-14008714D01*
X12487000Y-14308714D02*
X12487000Y-14151571D01*
X12472714Y-14123000D01*
X12444143Y-14108714D01*
X12401286Y-14108714D01*
X12372714Y-14123000D01*
X12358428Y-14137286D01*
X12672714Y-14308714D02*
X12644143Y-14294429D01*
X12629857Y-14280143D01*
X12615571Y-14251571D01*
X12615571Y-14165857D01*
X12629857Y-14137286D01*
X12644143Y-14123000D01*
X12672714Y-14108714D01*
X12715571Y-14108714D01*
X12744143Y-14123000D01*
X12758428Y-14137286D01*
X12772714Y-14165857D01*
X12772714Y-14251571D01*
X12758428Y-14280143D01*
X12744143Y-14294429D01*
X12715571Y-14308714D01*
X12672714Y-14308714D01*
X12944143Y-14308714D02*
X12915571Y-14294429D01*
X12901286Y-14265857D01*
X12901286Y-14008714D01*
X13172714Y-14294429D02*
X13144143Y-14308714D01*
X13087000Y-14308714D01*
X13058428Y-14294429D01*
X13044143Y-14265857D01*
X13044143Y-14151571D01*
X13058428Y-14123000D01*
X13087000Y-14108714D01*
X13144143Y-14108714D01*
X13172714Y-14123000D01*
X13187000Y-14151571D01*
X13187000Y-14180143D01*
X13044143Y-14208714D01*
X13301286Y-14294429D02*
X13329857Y-14308714D01*
X13387000Y-14308714D01*
X13415571Y-14294429D01*
X13429857Y-14265857D01*
X13429857Y-14251571D01*
X13415571Y-14223000D01*
X13387000Y-14208714D01*
X13344143Y-14208714D01*
X13315571Y-14194429D01*
X13301286Y-14165857D01*
X13301286Y-14151571D01*
X13315571Y-14123000D01*
X13344143Y-14108714D01*
X13387000Y-14108714D01*
X13415571Y-14123000D01*
X13529857Y-14423000D02*
X13544143Y-14408714D01*
X13572714Y-14365857D01*
X13587000Y-14337286D01*
X13601286Y-14294429D01*
X13615571Y-14223000D01*
X13615571Y-14165857D01*
X13601286Y-14094429D01*
X13587000Y-14051571D01*
X13572714Y-14023000D01*
X13544143Y-13980143D01*
X13529857Y-13965857D01*
X14072714Y-14423000D02*
X14058428Y-14408714D01*
X14029857Y-14365857D01*
X14015571Y-14337286D01*
X14001286Y-14294429D01*
X13987000Y-14223000D01*
X13987000Y-14165857D01*
X14001286Y-14094429D01*
X14015571Y-14051571D01*
X14029857Y-14023000D01*
X14058428Y-13980143D01*
X14072714Y-13965857D01*
X14187000Y-14108714D02*
X14187000Y-14308714D01*
X14187000Y-14137286D02*
X14201286Y-14123000D01*
X14229857Y-14108714D01*
X14272714Y-14108714D01*
X14301286Y-14123000D01*
X14315571Y-14151571D01*
X14315571Y-14308714D01*
X14501286Y-14308714D02*
X14472714Y-14294429D01*
X14458428Y-14280143D01*
X14444143Y-14251571D01*
X14444143Y-14165857D01*
X14458428Y-14137286D01*
X14472714Y-14123000D01*
X14501286Y-14108714D01*
X14544143Y-14108714D01*
X14572714Y-14123000D01*
X14587000Y-14137286D01*
X14601286Y-14165857D01*
X14601286Y-14251571D01*
X14587000Y-14280143D01*
X14572714Y-14294429D01*
X14544143Y-14308714D01*
X14501286Y-14308714D01*
X14687000Y-14108714D02*
X14801286Y-14108714D01*
X14729857Y-14008714D02*
X14729857Y-14265857D01*
X14744143Y-14294429D01*
X14772714Y-14308714D01*
X14801286Y-14308714D01*
X15129857Y-14108714D02*
X15129857Y-14408714D01*
X15129857Y-14123000D02*
X15158428Y-14108714D01*
X15215571Y-14108714D01*
X15244143Y-14123000D01*
X15258428Y-14137286D01*
X15272714Y-14165857D01*
X15272714Y-14251571D01*
X15258428Y-14280143D01*
X15244143Y-14294429D01*
X15215571Y-14308714D01*
X15158428Y-14308714D01*
X15129857Y-14294429D01*
X15444143Y-14308714D02*
X15415571Y-14294429D01*
X15401286Y-14265857D01*
X15401286Y-14008714D01*
X15687000Y-14308714D02*
X15687000Y-14151571D01*
X15672714Y-14123000D01*
X15644143Y-14108714D01*
X15587000Y-14108714D01*
X15558428Y-14123000D01*
X15687000Y-14294429D02*
X15658428Y-14308714D01*
X15587000Y-14308714D01*
X15558428Y-14294429D01*
X15544143Y-14265857D01*
X15544143Y-14237286D01*
X15558428Y-14208714D01*
X15587000Y-14194429D01*
X15658428Y-14194429D01*
X15687000Y-14180143D01*
X15787000Y-14108714D02*
X15901286Y-14108714D01*
X15829857Y-14008714D02*
X15829857Y-14265857D01*
X15844143Y-14294429D01*
X15872714Y-14308714D01*
X15901286Y-14308714D01*
X16115571Y-14294429D02*
X16087000Y-14308714D01*
X16029857Y-14308714D01*
X16001286Y-14294429D01*
X15987000Y-14265857D01*
X15987000Y-14151571D01*
X16001286Y-14123000D01*
X16029857Y-14108714D01*
X16087000Y-14108714D01*
X16115571Y-14123000D01*
X16129857Y-14151571D01*
X16129857Y-14180143D01*
X15987000Y-14208714D01*
X16387000Y-14308714D02*
X16387000Y-14008714D01*
X16387000Y-14294429D02*
X16358428Y-14308714D01*
X16301286Y-14308714D01*
X16272714Y-14294429D01*
X16258428Y-14280143D01*
X16244143Y-14251571D01*
X16244143Y-14165857D01*
X16258428Y-14137286D01*
X16272714Y-14123000D01*
X16301286Y-14108714D01*
X16358428Y-14108714D01*
X16387000Y-14123000D01*
X16501286Y-14423000D02*
X16515571Y-14408714D01*
X16544143Y-14365857D01*
X16558428Y-14337286D01*
X16572714Y-14294429D01*
X16587000Y-14223000D01*
X16587000Y-14165857D01*
X16572714Y-14094429D01*
X16558428Y-14051571D01*
X16544143Y-14023000D01*
X16515571Y-13980143D01*
X16501286Y-13965857D01*
M02*
