G04 #@! TF.GenerationSoftware,KiCad,Pcbnew,(5.1.10)-1*
G04 #@! TF.CreationDate,2021-10-04T13:56:36-03:00*
G04 #@! TF.ProjectId,ESP-pwm_4ch,4553502d-7077-46d5-9f34-63682e6b6963,rev?*
G04 #@! TF.SameCoordinates,Original*
G04 #@! TF.FileFunction,Legend,Top*
G04 #@! TF.FilePolarity,Positive*
%FSLAX46Y46*%
G04 Gerber Fmt 4.6, Leading zero omitted, Abs format (unit mm)*
G04 Created by KiCad (PCBNEW (5.1.10)-1) date 2021-10-04 13:56:36*
%MOMM*%
%LPD*%
G01*
G04 APERTURE LIST*
%ADD10C,0.300000*%
%ADD11C,0.250000*%
%ADD12C,0.150000*%
%ADD13C,0.200000*%
%ADD14C,0.120000*%
%ADD15C,0.010000*%
%ADD16C,0.050000*%
G04 APERTURE END LIST*
D10*
X95885000Y-88265000D02*
X95885000Y-78105000D01*
X116205000Y-88265000D02*
X95885000Y-88265000D01*
X116205000Y-78105000D02*
X116205000Y-88265000D01*
X95885000Y-78105000D02*
X116205000Y-78105000D01*
X98349761Y-81126285D02*
X98349761Y-79326285D01*
X98883095Y-80612000D01*
X99416428Y-79326285D01*
X99416428Y-81126285D01*
X100102142Y-80612000D02*
X100864047Y-80612000D01*
X99949761Y-81126285D02*
X100483095Y-79326285D01*
X101016428Y-81126285D01*
X101397380Y-79326285D02*
X102464047Y-81126285D01*
X102464047Y-79326285D02*
X101397380Y-81126285D01*
X103073571Y-81126285D02*
X103073571Y-79326285D01*
X103835476Y-81126285D02*
X103835476Y-79326285D01*
X104368809Y-80612000D01*
X104902142Y-79326285D01*
X104902142Y-81126285D01*
X105664047Y-79326285D02*
X105664047Y-80783428D01*
X105740238Y-80954857D01*
X105816428Y-81040571D01*
X105968809Y-81126285D01*
X106273571Y-81126285D01*
X106425952Y-81040571D01*
X106502142Y-80954857D01*
X106578333Y-80783428D01*
X106578333Y-79326285D01*
X107340238Y-81126285D02*
X107340238Y-79326285D01*
X107873571Y-80612000D01*
X108406904Y-79326285D01*
X108406904Y-81126285D01*
X111149761Y-79326285D02*
X110387857Y-79326285D01*
X110311666Y-80183428D01*
X110387857Y-80097714D01*
X110540238Y-80012000D01*
X110921190Y-80012000D01*
X111073571Y-80097714D01*
X111149761Y-80183428D01*
X111225952Y-80354857D01*
X111225952Y-80783428D01*
X111149761Y-80954857D01*
X111073571Y-81040571D01*
X110921190Y-81126285D01*
X110540238Y-81126285D01*
X110387857Y-81040571D01*
X110311666Y-80954857D01*
X113054523Y-80612000D02*
X113816428Y-80612000D01*
X112902142Y-81126285D02*
X113435476Y-79326285D01*
X113968809Y-81126285D01*
X98121190Y-84126285D02*
X98121190Y-82326285D01*
X98730714Y-82326285D01*
X98883095Y-82412000D01*
X98959285Y-82497714D01*
X99035476Y-82669142D01*
X99035476Y-82926285D01*
X98959285Y-83097714D01*
X98883095Y-83183428D01*
X98730714Y-83269142D01*
X98121190Y-83269142D01*
X99721190Y-83183428D02*
X100254523Y-83183428D01*
X100483095Y-84126285D02*
X99721190Y-84126285D01*
X99721190Y-82326285D01*
X100483095Y-82326285D01*
X102083095Y-84126285D02*
X101549761Y-83269142D01*
X101168809Y-84126285D02*
X101168809Y-82326285D01*
X101778333Y-82326285D01*
X101930714Y-82412000D01*
X102006904Y-82497714D01*
X102083095Y-82669142D01*
X102083095Y-82926285D01*
X102006904Y-83097714D01*
X101930714Y-83183428D01*
X101778333Y-83269142D01*
X101168809Y-83269142D01*
X104902142Y-83954857D02*
X104825952Y-84040571D01*
X104597380Y-84126285D01*
X104445000Y-84126285D01*
X104216428Y-84040571D01*
X104064047Y-83869142D01*
X103987857Y-83697714D01*
X103911666Y-83354857D01*
X103911666Y-83097714D01*
X103987857Y-82754857D01*
X104064047Y-82583428D01*
X104216428Y-82412000D01*
X104445000Y-82326285D01*
X104597380Y-82326285D01*
X104825952Y-82412000D01*
X104902142Y-82497714D01*
X105587857Y-84126285D02*
X105587857Y-82326285D01*
X105587857Y-83183428D02*
X106502142Y-83183428D01*
X106502142Y-84126285D02*
X106502142Y-82326285D01*
X107187857Y-83612000D02*
X107949761Y-83612000D01*
X107035476Y-84126285D02*
X107568809Y-82326285D01*
X108102142Y-84126285D01*
X108635476Y-84126285D02*
X108635476Y-82326285D01*
X109549761Y-84126285D01*
X109549761Y-82326285D01*
X110311666Y-84126285D02*
X110311666Y-82326285D01*
X111225952Y-84126285D01*
X111225952Y-82326285D01*
X111987857Y-83183428D02*
X112521190Y-83183428D01*
X112749761Y-84126285D02*
X111987857Y-84126285D01*
X111987857Y-82326285D01*
X112749761Y-82326285D01*
X114197380Y-84126285D02*
X113435476Y-84126285D01*
X113435476Y-82326285D01*
X100445000Y-87126285D02*
X99530714Y-87126285D01*
X99987857Y-87126285D02*
X99987857Y-85326285D01*
X99835476Y-85583428D01*
X99683095Y-85754857D01*
X99530714Y-85840571D01*
X101816428Y-85326285D02*
X101511666Y-85326285D01*
X101359285Y-85412000D01*
X101283095Y-85497714D01*
X101130714Y-85754857D01*
X101054523Y-86097714D01*
X101054523Y-86783428D01*
X101130714Y-86954857D01*
X101206904Y-87040571D01*
X101359285Y-87126285D01*
X101664047Y-87126285D01*
X101816428Y-87040571D01*
X101892619Y-86954857D01*
X101968809Y-86783428D01*
X101968809Y-86354857D01*
X101892619Y-86183428D01*
X101816428Y-86097714D01*
X101664047Y-86012000D01*
X101359285Y-86012000D01*
X101206904Y-86097714D01*
X101130714Y-86183428D01*
X101054523Y-86354857D01*
X103797380Y-86612000D02*
X104559285Y-86612000D01*
X103645000Y-87126285D02*
X104178333Y-85326285D01*
X104711666Y-87126285D01*
X106235476Y-85326285D02*
X107149761Y-85326285D01*
X106692619Y-87126285D02*
X106692619Y-85326285D01*
X107987857Y-85326285D02*
X108292619Y-85326285D01*
X108445000Y-85412000D01*
X108597380Y-85583428D01*
X108673571Y-85926285D01*
X108673571Y-86526285D01*
X108597380Y-86869142D01*
X108445000Y-87040571D01*
X108292619Y-87126285D01*
X107987857Y-87126285D01*
X107835476Y-87040571D01*
X107683095Y-86869142D01*
X107606904Y-86526285D01*
X107606904Y-85926285D01*
X107683095Y-85583428D01*
X107835476Y-85412000D01*
X107987857Y-85326285D01*
X109130714Y-85326285D02*
X110045000Y-85326285D01*
X109587857Y-87126285D02*
X109587857Y-85326285D01*
X110502142Y-86612000D02*
X111264047Y-86612000D01*
X110349761Y-87126285D02*
X110883095Y-85326285D01*
X111416428Y-87126285D01*
X112711666Y-87126285D02*
X111949761Y-87126285D01*
X111949761Y-85326285D01*
D11*
X77922857Y-103338571D02*
X78208571Y-103338571D01*
X78351428Y-103410000D01*
X78494285Y-103552857D01*
X78565714Y-103838571D01*
X78565714Y-104338571D01*
X78494285Y-104624285D01*
X78351428Y-104767142D01*
X78208571Y-104838571D01*
X77922857Y-104838571D01*
X77780000Y-104767142D01*
X77637142Y-104624285D01*
X77565714Y-104338571D01*
X77565714Y-103838571D01*
X77637142Y-103552857D01*
X77780000Y-103410000D01*
X77922857Y-103338571D01*
X79922857Y-104838571D02*
X79208571Y-104838571D01*
X79208571Y-103338571D01*
X80422857Y-104838571D02*
X80422857Y-103338571D01*
X81137142Y-104838571D02*
X81137142Y-103338571D01*
X81637142Y-104410000D01*
X82137142Y-103338571D01*
X82137142Y-104838571D01*
X82851428Y-104052857D02*
X83351428Y-104052857D01*
X83565714Y-104838571D02*
X82851428Y-104838571D01*
X82851428Y-103338571D01*
X83565714Y-103338571D01*
X84065714Y-103338571D02*
X85065714Y-104838571D01*
X85065714Y-103338571D02*
X84065714Y-104838571D01*
X72137142Y-106552857D02*
X72637142Y-106552857D01*
X72851428Y-107338571D02*
X72137142Y-107338571D01*
X72137142Y-105838571D01*
X72851428Y-105838571D01*
X73422857Y-107267142D02*
X73637142Y-107338571D01*
X73994285Y-107338571D01*
X74137142Y-107267142D01*
X74208571Y-107195714D01*
X74280000Y-107052857D01*
X74280000Y-106910000D01*
X74208571Y-106767142D01*
X74137142Y-106695714D01*
X73994285Y-106624285D01*
X73708571Y-106552857D01*
X73565714Y-106481428D01*
X73494285Y-106410000D01*
X73422857Y-106267142D01*
X73422857Y-106124285D01*
X73494285Y-105981428D01*
X73565714Y-105910000D01*
X73708571Y-105838571D01*
X74065714Y-105838571D01*
X74280000Y-105910000D01*
X74922857Y-107338571D02*
X74922857Y-105838571D01*
X75494285Y-105838571D01*
X75637142Y-105910000D01*
X75708571Y-105981428D01*
X75780000Y-106124285D01*
X75780000Y-106338571D01*
X75708571Y-106481428D01*
X75637142Y-106552857D01*
X75494285Y-106624285D01*
X74922857Y-106624285D01*
X76280000Y-105838571D02*
X77208571Y-105838571D01*
X76708571Y-106410000D01*
X76922857Y-106410000D01*
X77065714Y-106481428D01*
X77137142Y-106552857D01*
X77208571Y-106695714D01*
X77208571Y-107052857D01*
X77137142Y-107195714D01*
X77065714Y-107267142D01*
X76922857Y-107338571D01*
X76494285Y-107338571D01*
X76351428Y-107267142D01*
X76280000Y-107195714D01*
X77780000Y-105981428D02*
X77851428Y-105910000D01*
X77994285Y-105838571D01*
X78351428Y-105838571D01*
X78494285Y-105910000D01*
X78565714Y-105981428D01*
X78637142Y-106124285D01*
X78637142Y-106267142D01*
X78565714Y-106481428D01*
X77708571Y-107338571D01*
X78637142Y-107338571D01*
X79280000Y-106767142D02*
X80422857Y-106767142D01*
X81137142Y-107338571D02*
X81137142Y-105838571D01*
X81708571Y-105838571D01*
X81851428Y-105910000D01*
X81922857Y-105981428D01*
X81994285Y-106124285D01*
X81994285Y-106338571D01*
X81922857Y-106481428D01*
X81851428Y-106552857D01*
X81708571Y-106624285D01*
X81137142Y-106624285D01*
X82922857Y-105838571D02*
X83208571Y-105838571D01*
X83351428Y-105910000D01*
X83494285Y-106052857D01*
X83565714Y-106338571D01*
X83565714Y-106838571D01*
X83494285Y-107124285D01*
X83351428Y-107267142D01*
X83208571Y-107338571D01*
X82922857Y-107338571D01*
X82780000Y-107267142D01*
X82637142Y-107124285D01*
X82565714Y-106838571D01*
X82565714Y-106338571D01*
X82637142Y-106052857D01*
X82780000Y-105910000D01*
X82922857Y-105838571D01*
X84208571Y-106552857D02*
X84708571Y-106552857D01*
X84922857Y-107338571D02*
X84208571Y-107338571D01*
X84208571Y-105838571D01*
X84922857Y-105838571D01*
X85565714Y-106767142D02*
X86708571Y-106767142D01*
X87422857Y-107338571D02*
X87422857Y-105838571D01*
X88065714Y-107267142D02*
X88280000Y-107338571D01*
X88637142Y-107338571D01*
X88780000Y-107267142D01*
X88851428Y-107195714D01*
X88922857Y-107052857D01*
X88922857Y-106910000D01*
X88851428Y-106767142D01*
X88780000Y-106695714D01*
X88637142Y-106624285D01*
X88351428Y-106552857D01*
X88208571Y-106481428D01*
X88137142Y-106410000D01*
X88065714Y-106267142D01*
X88065714Y-106124285D01*
X88137142Y-105981428D01*
X88208571Y-105910000D01*
X88351428Y-105838571D01*
X88708571Y-105838571D01*
X88922857Y-105910000D01*
X89851428Y-105838571D02*
X90137142Y-105838571D01*
X90280000Y-105910000D01*
X90422857Y-106052857D01*
X90494285Y-106338571D01*
X90494285Y-106838571D01*
X90422857Y-107124285D01*
X90280000Y-107267142D01*
X90137142Y-107338571D01*
X89851428Y-107338571D01*
X89708571Y-107267142D01*
X89565714Y-107124285D01*
X89494285Y-106838571D01*
X89494285Y-106338571D01*
X89565714Y-106052857D01*
X89708571Y-105910000D01*
X89851428Y-105838571D01*
X77601428Y-74128571D02*
X77958571Y-75628571D01*
X78244285Y-74557142D01*
X78530000Y-75628571D01*
X78887142Y-74128571D01*
X79458571Y-74842857D02*
X79958571Y-74842857D01*
X80172857Y-75628571D02*
X79458571Y-75628571D01*
X79458571Y-74128571D01*
X80172857Y-74128571D01*
X80815714Y-75628571D02*
X80815714Y-74128571D01*
X81315714Y-75200000D01*
X81815714Y-74128571D01*
X81815714Y-75628571D01*
X82815714Y-74128571D02*
X83101428Y-74128571D01*
X83244285Y-74200000D01*
X83387142Y-74342857D01*
X83458571Y-74628571D01*
X83458571Y-75128571D01*
X83387142Y-75414285D01*
X83244285Y-75557142D01*
X83101428Y-75628571D01*
X82815714Y-75628571D01*
X82672857Y-75557142D01*
X82530000Y-75414285D01*
X82458571Y-75128571D01*
X82458571Y-74628571D01*
X82530000Y-74342857D01*
X82672857Y-74200000D01*
X82815714Y-74128571D01*
X84030000Y-75557142D02*
X84244285Y-75628571D01*
X84601428Y-75628571D01*
X84744285Y-75557142D01*
X84815714Y-75485714D01*
X84887142Y-75342857D01*
X84887142Y-75200000D01*
X84815714Y-75057142D01*
X84744285Y-74985714D01*
X84601428Y-74914285D01*
X84315714Y-74842857D01*
X84172857Y-74771428D01*
X84101428Y-74700000D01*
X84030000Y-74557142D01*
X84030000Y-74414285D01*
X84101428Y-74271428D01*
X84172857Y-74200000D01*
X84315714Y-74128571D01*
X84672857Y-74128571D01*
X84887142Y-74200000D01*
X77244285Y-78128571D02*
X77244285Y-76628571D01*
X77601428Y-76628571D01*
X77815714Y-76700000D01*
X77958571Y-76842857D01*
X78030000Y-76985714D01*
X78101428Y-77271428D01*
X78101428Y-77485714D01*
X78030000Y-77771428D01*
X77958571Y-77914285D01*
X77815714Y-78057142D01*
X77601428Y-78128571D01*
X77244285Y-78128571D01*
X79530000Y-78128571D02*
X78672857Y-78128571D01*
X79101428Y-78128571D02*
X79101428Y-76628571D01*
X78958571Y-76842857D01*
X78815714Y-76985714D01*
X78672857Y-77057142D01*
X81315714Y-78128571D02*
X81315714Y-76628571D01*
X81815714Y-77700000D01*
X82315714Y-76628571D01*
X82315714Y-78128571D01*
X83030000Y-78128571D02*
X83030000Y-76628571D01*
X83744285Y-78128571D02*
X83744285Y-76628571D01*
X84601428Y-78128571D01*
X84601428Y-76628571D01*
X85315714Y-78128571D02*
X85315714Y-76628571D01*
D12*
X107950000Y-73025000D02*
X118110000Y-73025000D01*
X107950000Y-69215000D02*
X118110000Y-69215000D01*
X118110000Y-65405000D02*
X107950000Y-65405000D01*
X118110000Y-76835000D02*
X118110000Y-65405000D01*
X107950000Y-76835000D02*
X118110000Y-76835000D01*
X107950000Y-65405000D02*
X107950000Y-76835000D01*
D13*
X114074285Y-75472857D02*
X113388571Y-75472857D01*
X113731428Y-75472857D02*
X113731428Y-74272857D01*
X113617142Y-74444285D01*
X113502857Y-74558571D01*
X113388571Y-74615714D01*
X114531428Y-74387142D02*
X114588571Y-74330000D01*
X114702857Y-74272857D01*
X114988571Y-74272857D01*
X115102857Y-74330000D01*
X115160000Y-74387142D01*
X115217142Y-74501428D01*
X115217142Y-74615714D01*
X115160000Y-74787142D01*
X114474285Y-75472857D01*
X115217142Y-75472857D01*
X115560000Y-74272857D02*
X115960000Y-75472857D01*
X116360000Y-74272857D01*
X114017142Y-70462857D02*
X113445714Y-70462857D01*
X113388571Y-71034285D01*
X113445714Y-70977142D01*
X113560000Y-70920000D01*
X113845714Y-70920000D01*
X113960000Y-70977142D01*
X114017142Y-71034285D01*
X114074285Y-71148571D01*
X114074285Y-71434285D01*
X114017142Y-71548571D01*
X113960000Y-71605714D01*
X113845714Y-71662857D01*
X113560000Y-71662857D01*
X113445714Y-71605714D01*
X113388571Y-71548571D01*
X114417142Y-70462857D02*
X114817142Y-71662857D01*
X115217142Y-70462857D01*
X113331428Y-66652857D02*
X114074285Y-66652857D01*
X113674285Y-67110000D01*
X113845714Y-67110000D01*
X113960000Y-67167142D01*
X114017142Y-67224285D01*
X114074285Y-67338571D01*
X114074285Y-67624285D01*
X114017142Y-67738571D01*
X113960000Y-67795714D01*
X113845714Y-67852857D01*
X113502857Y-67852857D01*
X113388571Y-67795714D01*
X113331428Y-67738571D01*
X114588571Y-67738571D02*
X114645714Y-67795714D01*
X114588571Y-67852857D01*
X114531428Y-67795714D01*
X114588571Y-67738571D01*
X114588571Y-67852857D01*
X115045714Y-66652857D02*
X115788571Y-66652857D01*
X115388571Y-67110000D01*
X115560000Y-67110000D01*
X115674285Y-67167142D01*
X115731428Y-67224285D01*
X115788571Y-67338571D01*
X115788571Y-67624285D01*
X115731428Y-67738571D01*
X115674285Y-67795714D01*
X115560000Y-67852857D01*
X115217142Y-67852857D01*
X115102857Y-67795714D01*
X115045714Y-67738571D01*
X116131428Y-66652857D02*
X116531428Y-67852857D01*
X116931428Y-66652857D01*
D11*
X69022857Y-120221428D02*
X69022857Y-121554761D01*
X68594285Y-119459523D02*
X68165714Y-120888095D01*
X69279999Y-120888095D01*
X69794285Y-121554761D02*
X70737142Y-120221428D01*
X69794285Y-120221428D02*
X70737142Y-121554761D01*
X72794285Y-121554761D02*
X72794285Y-119554761D01*
X73479999Y-119554761D01*
X73651428Y-119650000D01*
X73737142Y-119745238D01*
X73822857Y-119935714D01*
X73822857Y-120221428D01*
X73737142Y-120411904D01*
X73651428Y-120507142D01*
X73479999Y-120602380D01*
X72794285Y-120602380D01*
X74422857Y-119554761D02*
X74851428Y-121554761D01*
X75194285Y-120126190D01*
X75537142Y-121554761D01*
X75965714Y-119554761D01*
X76651428Y-121554761D02*
X76651428Y-119554761D01*
X77251428Y-120983333D01*
X77851428Y-119554761D01*
X77851428Y-121554761D01*
X80422857Y-119554761D02*
X80765714Y-119554761D01*
X80937142Y-119650000D01*
X81108571Y-119840476D01*
X81194285Y-120221428D01*
X81194285Y-120888095D01*
X81108571Y-121269047D01*
X80937142Y-121459523D01*
X80765714Y-121554761D01*
X80422857Y-121554761D01*
X80251428Y-121459523D01*
X80079999Y-121269047D01*
X79994285Y-120888095D01*
X79994285Y-120221428D01*
X80079999Y-119840476D01*
X80251428Y-119650000D01*
X80422857Y-119554761D01*
X81965714Y-119554761D02*
X81965714Y-121173809D01*
X82051428Y-121364285D01*
X82137142Y-121459523D01*
X82308571Y-121554761D01*
X82651428Y-121554761D01*
X82822857Y-121459523D01*
X82908571Y-121364285D01*
X82994285Y-121173809D01*
X82994285Y-119554761D01*
X83594285Y-119554761D02*
X84622857Y-119554761D01*
X84108571Y-121554761D02*
X84108571Y-119554761D01*
X87537142Y-121554761D02*
X86508571Y-121554761D01*
X87022857Y-121554761D02*
X87022857Y-119554761D01*
X86851428Y-119840476D01*
X86679999Y-120030952D01*
X86508571Y-120126190D01*
X88222857Y-119745238D02*
X88308571Y-119650000D01*
X88479999Y-119554761D01*
X88908571Y-119554761D01*
X89079999Y-119650000D01*
X89165714Y-119745238D01*
X89251428Y-119935714D01*
X89251428Y-120126190D01*
X89165714Y-120411904D01*
X88137142Y-121554761D01*
X89251428Y-121554761D01*
X89765714Y-119554761D02*
X90365714Y-121554761D01*
X90965714Y-119554761D01*
X91565714Y-121554761D02*
X91565714Y-119554761D01*
X91994285Y-119554761D01*
X92251428Y-119650000D01*
X92422857Y-119840476D01*
X92508571Y-120030952D01*
X92594285Y-120411904D01*
X92594285Y-120697619D01*
X92508571Y-121078571D01*
X92422857Y-121269047D01*
X92251428Y-121459523D01*
X91994285Y-121554761D01*
X91565714Y-121554761D01*
X94394285Y-121364285D02*
X94308571Y-121459523D01*
X94051428Y-121554761D01*
X93879999Y-121554761D01*
X93622857Y-121459523D01*
X93451428Y-121269047D01*
X93365714Y-121078571D01*
X93279999Y-120697619D01*
X93279999Y-120411904D01*
X93365714Y-120030952D01*
X93451428Y-119840476D01*
X93622857Y-119650000D01*
X93879999Y-119554761D01*
X94051428Y-119554761D01*
X94308571Y-119650000D01*
X94394285Y-119745238D01*
X156535714Y-128718571D02*
X156821428Y-128718571D01*
X156964285Y-128790000D01*
X157107142Y-128932857D01*
X157178571Y-129218571D01*
X157178571Y-129718571D01*
X157107142Y-130004285D01*
X156964285Y-130147142D01*
X156821428Y-130218571D01*
X156535714Y-130218571D01*
X156392857Y-130147142D01*
X156250000Y-130004285D01*
X156178571Y-129718571D01*
X156178571Y-129218571D01*
X156250000Y-128932857D01*
X156392857Y-128790000D01*
X156535714Y-128718571D01*
X157821428Y-128718571D02*
X157821428Y-129932857D01*
X157892857Y-130075714D01*
X157964285Y-130147142D01*
X158107142Y-130218571D01*
X158392857Y-130218571D01*
X158535714Y-130147142D01*
X158607142Y-130075714D01*
X158678571Y-129932857D01*
X158678571Y-128718571D01*
X159178571Y-128718571D02*
X160035714Y-128718571D01*
X159607142Y-130218571D02*
X159607142Y-128718571D01*
X161178571Y-129218571D02*
X161178571Y-130218571D01*
X160821428Y-128647142D02*
X160464285Y-129718571D01*
X161392857Y-129718571D01*
X133675714Y-128718571D02*
X133961428Y-128718571D01*
X134104285Y-128790000D01*
X134247142Y-128932857D01*
X134318571Y-129218571D01*
X134318571Y-129718571D01*
X134247142Y-130004285D01*
X134104285Y-130147142D01*
X133961428Y-130218571D01*
X133675714Y-130218571D01*
X133532857Y-130147142D01*
X133390000Y-130004285D01*
X133318571Y-129718571D01*
X133318571Y-129218571D01*
X133390000Y-128932857D01*
X133532857Y-128790000D01*
X133675714Y-128718571D01*
X134961428Y-128718571D02*
X134961428Y-129932857D01*
X135032857Y-130075714D01*
X135104285Y-130147142D01*
X135247142Y-130218571D01*
X135532857Y-130218571D01*
X135675714Y-130147142D01*
X135747142Y-130075714D01*
X135818571Y-129932857D01*
X135818571Y-128718571D01*
X136318571Y-128718571D02*
X137175714Y-128718571D01*
X136747142Y-130218571D02*
X136747142Y-128718571D01*
X137604285Y-128861428D02*
X137675714Y-128790000D01*
X137818571Y-128718571D01*
X138175714Y-128718571D01*
X138318571Y-128790000D01*
X138390000Y-128861428D01*
X138461428Y-129004285D01*
X138461428Y-129147142D01*
X138390000Y-129361428D01*
X137532857Y-130218571D01*
X138461428Y-130218571D01*
X145105714Y-128718571D02*
X145391428Y-128718571D01*
X145534285Y-128790000D01*
X145677142Y-128932857D01*
X145748571Y-129218571D01*
X145748571Y-129718571D01*
X145677142Y-130004285D01*
X145534285Y-130147142D01*
X145391428Y-130218571D01*
X145105714Y-130218571D01*
X144962857Y-130147142D01*
X144820000Y-130004285D01*
X144748571Y-129718571D01*
X144748571Y-129218571D01*
X144820000Y-128932857D01*
X144962857Y-128790000D01*
X145105714Y-128718571D01*
X146391428Y-128718571D02*
X146391428Y-129932857D01*
X146462857Y-130075714D01*
X146534285Y-130147142D01*
X146677142Y-130218571D01*
X146962857Y-130218571D01*
X147105714Y-130147142D01*
X147177142Y-130075714D01*
X147248571Y-129932857D01*
X147248571Y-128718571D01*
X147748571Y-128718571D02*
X148605714Y-128718571D01*
X148177142Y-130218571D02*
X148177142Y-128718571D01*
X148962857Y-128718571D02*
X149891428Y-128718571D01*
X149391428Y-129290000D01*
X149605714Y-129290000D01*
X149748571Y-129361428D01*
X149820000Y-129432857D01*
X149891428Y-129575714D01*
X149891428Y-129932857D01*
X149820000Y-130075714D01*
X149748571Y-130147142D01*
X149605714Y-130218571D01*
X149177142Y-130218571D01*
X149034285Y-130147142D01*
X148962857Y-130075714D01*
X122245714Y-128718571D02*
X122531428Y-128718571D01*
X122674285Y-128790000D01*
X122817142Y-128932857D01*
X122888571Y-129218571D01*
X122888571Y-129718571D01*
X122817142Y-130004285D01*
X122674285Y-130147142D01*
X122531428Y-130218571D01*
X122245714Y-130218571D01*
X122102857Y-130147142D01*
X121960000Y-130004285D01*
X121888571Y-129718571D01*
X121888571Y-129218571D01*
X121960000Y-128932857D01*
X122102857Y-128790000D01*
X122245714Y-128718571D01*
X123531428Y-128718571D02*
X123531428Y-129932857D01*
X123602857Y-130075714D01*
X123674285Y-130147142D01*
X123817142Y-130218571D01*
X124102857Y-130218571D01*
X124245714Y-130147142D01*
X124317142Y-130075714D01*
X124388571Y-129932857D01*
X124388571Y-128718571D01*
X124888571Y-128718571D02*
X125745714Y-128718571D01*
X125317142Y-130218571D02*
X125317142Y-128718571D01*
X127031428Y-130218571D02*
X126174285Y-130218571D01*
X126602857Y-130218571D02*
X126602857Y-128718571D01*
X126460000Y-128932857D01*
X126317142Y-129075714D01*
X126174285Y-129147142D01*
X107958571Y-129647142D02*
X109101428Y-129647142D01*
X108530000Y-130218571D02*
X108530000Y-129075714D01*
X110601428Y-130218571D02*
X109744285Y-130218571D01*
X110172857Y-130218571D02*
X110172857Y-128718571D01*
X110030000Y-128932857D01*
X109887142Y-129075714D01*
X109744285Y-129147142D01*
X111172857Y-128861428D02*
X111244285Y-128790000D01*
X111387142Y-128718571D01*
X111744285Y-128718571D01*
X111887142Y-128790000D01*
X111958571Y-128861428D01*
X112030000Y-129004285D01*
X112030000Y-129147142D01*
X111958571Y-129361428D01*
X111101428Y-130218571D01*
X112030000Y-130218571D01*
X112458571Y-128718571D02*
X112958571Y-130218571D01*
X113458571Y-128718571D01*
X113958571Y-130218571D02*
X113958571Y-128718571D01*
X114315714Y-128718571D01*
X114530000Y-128790000D01*
X114672857Y-128932857D01*
X114744285Y-129075714D01*
X114815714Y-129361428D01*
X114815714Y-129575714D01*
X114744285Y-129861428D01*
X114672857Y-130004285D01*
X114530000Y-130147142D01*
X114315714Y-130218571D01*
X113958571Y-130218571D01*
X116315714Y-130075714D02*
X116244285Y-130147142D01*
X116030000Y-130218571D01*
X115887142Y-130218571D01*
X115672857Y-130147142D01*
X115530000Y-130004285D01*
X115458571Y-129861428D01*
X115387142Y-129575714D01*
X115387142Y-129361428D01*
X115458571Y-129075714D01*
X115530000Y-128932857D01*
X115672857Y-128790000D01*
X115887142Y-128718571D01*
X116030000Y-128718571D01*
X116244285Y-128790000D01*
X116315714Y-128861428D01*
X116958571Y-129647142D02*
X118101428Y-129647142D01*
D14*
G04 #@! TO.C,C3*
X110431252Y-112495000D02*
X109908748Y-112495000D01*
X110431252Y-111025000D02*
X109908748Y-111025000D01*
G04 #@! TO.C,C6*
X143771252Y-90905000D02*
X143248748Y-90905000D01*
X143771252Y-89435000D02*
X143248748Y-89435000D01*
G04 #@! TO.C,C4*
X120911252Y-90905000D02*
X120388748Y-90905000D01*
X120911252Y-89435000D02*
X120388748Y-89435000D01*
G04 #@! TO.C,R7*
X150595000Y-84505436D02*
X150595000Y-84959564D01*
X149125000Y-84505436D02*
X149125000Y-84959564D01*
G04 #@! TO.C,R5*
X127735000Y-84505436D02*
X127735000Y-84959564D01*
X126265000Y-84505436D02*
X126265000Y-84959564D01*
G04 #@! TO.C,R6*
X149125000Y-90039564D02*
X149125000Y-89585436D01*
X150595000Y-90039564D02*
X150595000Y-89585436D01*
G04 #@! TO.C,R4*
X126265000Y-90039564D02*
X126265000Y-89585436D01*
X127735000Y-90039564D02*
X127735000Y-89585436D01*
G04 #@! TO.C,D1*
X103870000Y-118020000D02*
X101870000Y-118020000D01*
X101870000Y-118020000D02*
X101870000Y-121920000D01*
X103870000Y-118020000D02*
X103870000Y-121920000D01*
G04 #@! TO.C,D4*
X111492500Y-70385000D02*
X109207500Y-70385000D01*
X111492500Y-71855000D02*
X111492500Y-70385000D01*
X109207500Y-71855000D02*
X111492500Y-71855000D01*
G04 #@! TO.C,D3*
X111492500Y-74195000D02*
X109207500Y-74195000D01*
X111492500Y-75665000D02*
X111492500Y-74195000D01*
X109207500Y-75665000D02*
X111492500Y-75665000D01*
G04 #@! TO.C,D2*
X111492500Y-66575000D02*
X109207500Y-66575000D01*
X111492500Y-68045000D02*
X111492500Y-66575000D01*
X109207500Y-68045000D02*
X111492500Y-68045000D01*
G04 #@! TO.C,R3*
X103555436Y-66575000D02*
X104009564Y-66575000D01*
X103555436Y-68045000D02*
X104009564Y-68045000D01*
G04 #@! TO.C,R2*
X103555436Y-70385000D02*
X104009564Y-70385000D01*
X103555436Y-71855000D02*
X104009564Y-71855000D01*
G04 #@! TO.C,R1*
X103555436Y-74195000D02*
X104009564Y-74195000D01*
X103555436Y-75665000D02*
X104009564Y-75665000D01*
D15*
G04 #@! TO.C,REF\u002A\u002A*
G36*
X81080000Y-125180000D02*
G01*
X81310000Y-125320000D01*
X81460000Y-125530000D01*
X81540000Y-125730000D01*
X81550000Y-125980000D01*
X81480000Y-126230000D01*
X81340000Y-126430000D01*
X81110000Y-126600000D01*
X80850000Y-126650000D01*
X80640000Y-126620000D01*
X80400000Y-126500000D01*
X80200000Y-126270000D01*
X80110000Y-125990000D01*
X80130000Y-125680000D01*
X80230000Y-125450000D01*
X80420000Y-125250000D01*
X80630000Y-125160000D01*
X80826000Y-125136600D01*
X81080000Y-125180000D01*
G37*
X81080000Y-125180000D02*
X81310000Y-125320000D01*
X81460000Y-125530000D01*
X81540000Y-125730000D01*
X81550000Y-125980000D01*
X81480000Y-126230000D01*
X81340000Y-126430000D01*
X81110000Y-126600000D01*
X80850000Y-126650000D01*
X80640000Y-126620000D01*
X80400000Y-126500000D01*
X80200000Y-126270000D01*
X80110000Y-125990000D01*
X80130000Y-125680000D01*
X80230000Y-125450000D01*
X80420000Y-125250000D01*
X80630000Y-125160000D01*
X80826000Y-125136600D01*
X81080000Y-125180000D01*
G36*
X73690000Y-125190000D02*
G01*
X73800000Y-125320000D01*
X73820000Y-125500000D01*
X73780000Y-125660000D01*
X73630000Y-125780000D01*
X73520000Y-125790000D01*
X73180000Y-125790000D01*
X73180000Y-125140000D01*
X73550000Y-125140000D01*
X73690000Y-125190000D01*
G37*
X73690000Y-125190000D02*
X73800000Y-125320000D01*
X73820000Y-125500000D01*
X73780000Y-125660000D01*
X73630000Y-125780000D01*
X73520000Y-125790000D01*
X73180000Y-125790000D01*
X73180000Y-125140000D01*
X73550000Y-125140000D01*
X73690000Y-125190000D01*
G36*
X90990000Y-126130000D02*
G01*
X90360000Y-126130000D01*
X90670000Y-125260000D01*
X90990000Y-126130000D01*
G37*
X90990000Y-126130000D02*
X90360000Y-126130000D01*
X90670000Y-125260000D01*
X90990000Y-126130000D01*
G36*
X75890000Y-126120000D02*
G01*
X75260000Y-126120000D01*
X75570000Y-125250000D01*
X75890000Y-126120000D01*
G37*
X75890000Y-126120000D02*
X75260000Y-126120000D01*
X75570000Y-125250000D01*
X75890000Y-126120000D01*
G36*
X78160000Y-126280000D02*
G01*
X77560000Y-124710000D01*
X78770000Y-124710000D01*
X78160000Y-126280000D01*
G37*
X78160000Y-126280000D02*
X77560000Y-124710000D01*
X78770000Y-124710000D01*
X78160000Y-126280000D01*
G36*
X83830000Y-124730000D02*
G01*
X83820000Y-126330000D01*
X82730000Y-124730000D01*
X83830000Y-124730000D01*
G37*
X83830000Y-124730000D02*
X83820000Y-126330000D01*
X82730000Y-124730000D01*
X83830000Y-124730000D01*
G36*
X88930000Y-124730000D02*
G01*
X88920000Y-126330000D01*
X87830000Y-124730000D01*
X88930000Y-124730000D01*
G37*
X88930000Y-124730000D02*
X88920000Y-126330000D01*
X87830000Y-124730000D01*
X88930000Y-124730000D01*
G36*
X91080000Y-124730000D02*
G01*
X81200000Y-124740000D01*
X80832600Y-124700900D01*
X80480000Y-124730000D01*
X70680000Y-124730000D01*
X70680000Y-124430000D01*
X68710000Y-124430000D01*
X68740000Y-124030000D01*
X91080000Y-124030000D01*
X91080000Y-124730000D01*
G37*
X91080000Y-124730000D02*
X81200000Y-124740000D01*
X80832600Y-124700900D01*
X80480000Y-124730000D01*
X70680000Y-124730000D01*
X70680000Y-124430000D01*
X68710000Y-124430000D01*
X68740000Y-124030000D01*
X91080000Y-124030000D01*
X91080000Y-124730000D01*
G36*
X92890000Y-123240000D02*
G01*
X93210000Y-123360000D01*
X93460000Y-123550000D01*
X93630000Y-123840000D01*
X93700000Y-124100000D01*
X93712600Y-124309500D01*
X93712600Y-127207900D01*
X93670000Y-127560000D01*
X93530000Y-127880000D01*
X93240000Y-128150000D01*
X92940000Y-128270000D01*
X92618300Y-128302300D01*
X69806900Y-128302300D01*
X69460000Y-128260000D01*
X69180000Y-128140000D01*
X68900000Y-127880000D01*
X68740000Y-127510000D01*
X68712600Y-127207900D01*
X68712600Y-124309500D01*
X70750000Y-124310000D01*
X70750000Y-125020000D01*
X70800000Y-125120000D01*
X70960000Y-125160000D01*
X71390000Y-125160000D01*
X71390000Y-126910000D01*
X71430000Y-127010000D01*
X71540000Y-127040000D01*
X71840000Y-127040000D01*
X71840000Y-125150000D01*
X72470000Y-125150000D01*
X72470000Y-124730000D01*
X72750000Y-124730000D01*
X72750000Y-126940000D01*
X72820000Y-127020000D01*
X72919300Y-127036200D01*
X73173800Y-127036200D01*
X73173800Y-126189800D01*
X73469600Y-126189800D01*
X73900000Y-127000000D01*
X74010000Y-127040000D01*
X74398700Y-127036200D01*
X73880000Y-126110000D01*
X74120000Y-125930000D01*
X74250000Y-125630000D01*
X74260000Y-125310000D01*
X74080000Y-124940000D01*
X73810000Y-124790000D01*
X73600000Y-124740000D01*
X75370000Y-124740000D01*
X74480000Y-127040000D01*
X74930000Y-127030000D01*
X75110000Y-126530000D01*
X76036900Y-126530300D01*
X76220000Y-126980000D01*
X76310000Y-127040000D01*
X76670000Y-127030000D01*
X75780000Y-124630000D01*
X77180000Y-124630000D01*
X76804300Y-127036200D01*
X77236900Y-127036200D01*
X77440000Y-125480000D01*
X77940000Y-126730000D01*
X78020000Y-126830000D01*
X78130000Y-126850000D01*
X78340900Y-126845200D01*
X78850000Y-125500000D01*
X79050000Y-126910000D01*
X79120000Y-127000000D01*
X79240000Y-127040000D01*
X79510000Y-127040000D01*
X79155500Y-124690000D01*
X80570000Y-124700000D01*
X80180000Y-124890000D01*
X79890000Y-125160000D01*
X79700000Y-125480000D01*
X79640000Y-125950000D01*
X79680000Y-126280000D01*
X79860000Y-126580000D01*
X80120000Y-126870000D01*
X80550000Y-127060000D01*
X81030000Y-127060000D01*
X81410000Y-126930000D01*
X81700000Y-126700000D01*
X81940000Y-126330000D01*
X82030000Y-125800000D01*
X81890000Y-125340000D01*
X81640000Y-125000000D01*
X81180000Y-124730000D01*
X82305500Y-124742100D01*
X82310000Y-126870000D01*
X82340000Y-127000000D01*
X82430000Y-127030000D01*
X82720000Y-127030000D01*
X82720000Y-125460000D01*
X83810000Y-126990000D01*
X83930000Y-127040000D01*
X84230000Y-127030000D01*
X84230000Y-124710000D01*
X84520000Y-124710000D01*
X84520000Y-125060000D01*
X84580000Y-125130000D01*
X84710000Y-125150000D01*
X85150000Y-125150000D01*
X85150000Y-126930000D01*
X85180000Y-126990000D01*
X85240000Y-127020000D01*
X85318800Y-127036200D01*
X85600000Y-127030000D01*
X85600000Y-125150000D01*
X86230000Y-125150000D01*
X86228900Y-124742100D01*
X86521800Y-124742100D01*
X86530000Y-126920000D01*
X86570000Y-127000000D01*
X86650000Y-127030000D01*
X86970000Y-127030000D01*
X86970000Y-124740000D01*
X87409500Y-124742100D01*
X87410000Y-126930000D01*
X87470000Y-127020000D01*
X87590000Y-127040000D01*
X87826000Y-127036200D01*
X87830000Y-125450000D01*
X88860000Y-126930000D01*
X89010000Y-127020000D01*
X89110000Y-127040000D01*
X89350000Y-127030000D01*
X89350000Y-124700000D01*
X90470000Y-124700000D01*
X89590000Y-127030000D01*
X90030000Y-127030000D01*
X90220000Y-126520000D01*
X91140000Y-126540000D01*
X91300000Y-126950000D01*
X91370000Y-127010000D01*
X91480000Y-127040000D01*
X91784200Y-127036200D01*
X90900000Y-124750000D01*
X90900000Y-124110000D01*
X68720000Y-124090000D01*
X68890000Y-123650000D01*
X69170000Y-123380000D01*
X69570000Y-123220000D01*
X69806900Y-123214900D01*
X92618300Y-123214900D01*
X92890000Y-123240000D01*
G37*
X92890000Y-123240000D02*
X93210000Y-123360000D01*
X93460000Y-123550000D01*
X93630000Y-123840000D01*
X93700000Y-124100000D01*
X93712600Y-124309500D01*
X93712600Y-127207900D01*
X93670000Y-127560000D01*
X93530000Y-127880000D01*
X93240000Y-128150000D01*
X92940000Y-128270000D01*
X92618300Y-128302300D01*
X69806900Y-128302300D01*
X69460000Y-128260000D01*
X69180000Y-128140000D01*
X68900000Y-127880000D01*
X68740000Y-127510000D01*
X68712600Y-127207900D01*
X68712600Y-124309500D01*
X70750000Y-124310000D01*
X70750000Y-125020000D01*
X70800000Y-125120000D01*
X70960000Y-125160000D01*
X71390000Y-125160000D01*
X71390000Y-126910000D01*
X71430000Y-127010000D01*
X71540000Y-127040000D01*
X71840000Y-127040000D01*
X71840000Y-125150000D01*
X72470000Y-125150000D01*
X72470000Y-124730000D01*
X72750000Y-124730000D01*
X72750000Y-126940000D01*
X72820000Y-127020000D01*
X72919300Y-127036200D01*
X73173800Y-127036200D01*
X73173800Y-126189800D01*
X73469600Y-126189800D01*
X73900000Y-127000000D01*
X74010000Y-127040000D01*
X74398700Y-127036200D01*
X73880000Y-126110000D01*
X74120000Y-125930000D01*
X74250000Y-125630000D01*
X74260000Y-125310000D01*
X74080000Y-124940000D01*
X73810000Y-124790000D01*
X73600000Y-124740000D01*
X75370000Y-124740000D01*
X74480000Y-127040000D01*
X74930000Y-127030000D01*
X75110000Y-126530000D01*
X76036900Y-126530300D01*
X76220000Y-126980000D01*
X76310000Y-127040000D01*
X76670000Y-127030000D01*
X75780000Y-124630000D01*
X77180000Y-124630000D01*
X76804300Y-127036200D01*
X77236900Y-127036200D01*
X77440000Y-125480000D01*
X77940000Y-126730000D01*
X78020000Y-126830000D01*
X78130000Y-126850000D01*
X78340900Y-126845200D01*
X78850000Y-125500000D01*
X79050000Y-126910000D01*
X79120000Y-127000000D01*
X79240000Y-127040000D01*
X79510000Y-127040000D01*
X79155500Y-124690000D01*
X80570000Y-124700000D01*
X80180000Y-124890000D01*
X79890000Y-125160000D01*
X79700000Y-125480000D01*
X79640000Y-125950000D01*
X79680000Y-126280000D01*
X79860000Y-126580000D01*
X80120000Y-126870000D01*
X80550000Y-127060000D01*
X81030000Y-127060000D01*
X81410000Y-126930000D01*
X81700000Y-126700000D01*
X81940000Y-126330000D01*
X82030000Y-125800000D01*
X81890000Y-125340000D01*
X81640000Y-125000000D01*
X81180000Y-124730000D01*
X82305500Y-124742100D01*
X82310000Y-126870000D01*
X82340000Y-127000000D01*
X82430000Y-127030000D01*
X82720000Y-127030000D01*
X82720000Y-125460000D01*
X83810000Y-126990000D01*
X83930000Y-127040000D01*
X84230000Y-127030000D01*
X84230000Y-124710000D01*
X84520000Y-124710000D01*
X84520000Y-125060000D01*
X84580000Y-125130000D01*
X84710000Y-125150000D01*
X85150000Y-125150000D01*
X85150000Y-126930000D01*
X85180000Y-126990000D01*
X85240000Y-127020000D01*
X85318800Y-127036200D01*
X85600000Y-127030000D01*
X85600000Y-125150000D01*
X86230000Y-125150000D01*
X86228900Y-124742100D01*
X86521800Y-124742100D01*
X86530000Y-126920000D01*
X86570000Y-127000000D01*
X86650000Y-127030000D01*
X86970000Y-127030000D01*
X86970000Y-124740000D01*
X87409500Y-124742100D01*
X87410000Y-126930000D01*
X87470000Y-127020000D01*
X87590000Y-127040000D01*
X87826000Y-127036200D01*
X87830000Y-125450000D01*
X88860000Y-126930000D01*
X89010000Y-127020000D01*
X89110000Y-127040000D01*
X89350000Y-127030000D01*
X89350000Y-124700000D01*
X90470000Y-124700000D01*
X89590000Y-127030000D01*
X90030000Y-127030000D01*
X90220000Y-126520000D01*
X91140000Y-126540000D01*
X91300000Y-126950000D01*
X91370000Y-127010000D01*
X91480000Y-127040000D01*
X91784200Y-127036200D01*
X90900000Y-124750000D01*
X90900000Y-124110000D01*
X68720000Y-124090000D01*
X68890000Y-123650000D01*
X69170000Y-123380000D01*
X69570000Y-123220000D01*
X69806900Y-123214900D01*
X92618300Y-123214900D01*
X92890000Y-123240000D01*
D16*
X80826000Y-125136600D02*
X80899664Y-125140525D01*
X80899664Y-125140525D02*
X80971239Y-125152039D01*
X80971239Y-125152039D02*
X81040357Y-125170750D01*
X81040357Y-125170750D02*
X81106650Y-125196268D01*
X81106650Y-125196268D02*
X81169750Y-125228201D01*
X81169750Y-125228201D02*
X81229291Y-125266157D01*
X81229291Y-125266157D02*
X81284905Y-125309746D01*
X81284905Y-125309746D02*
X81336225Y-125358575D01*
X81336225Y-125358575D02*
X81382882Y-125412253D01*
X81382882Y-125412253D02*
X81424511Y-125470389D01*
X81424511Y-125470389D02*
X81460744Y-125532591D01*
X81460744Y-125532591D02*
X81491212Y-125598468D01*
X81491212Y-125598468D02*
X81515549Y-125667629D01*
X81515549Y-125667629D02*
X81533388Y-125739682D01*
X81533388Y-125739682D02*
X81544360Y-125814236D01*
X81544360Y-125814236D02*
X81548100Y-125890900D01*
X71385400Y-126860900D02*
X71389399Y-126912914D01*
X71389399Y-126912914D02*
X71405055Y-126962717D01*
X71405055Y-126962717D02*
X71438965Y-127004110D01*
X71438965Y-127004110D02*
X71490531Y-127028320D01*
X71490531Y-127028320D02*
X71549425Y-127036041D01*
X71549425Y-127036041D02*
X71560600Y-127036200D01*
X84510500Y-124742100D02*
X84510500Y-124977700D01*
X85143600Y-125152300D02*
X85143600Y-126860900D01*
X84510500Y-124977700D02*
X84514498Y-125029368D01*
X84514498Y-125029368D02*
X84530147Y-125078926D01*
X84530147Y-125078926D02*
X84564030Y-125120204D01*
X84564030Y-125120204D02*
X84615535Y-125144404D01*
X84615535Y-125144404D02*
X84674343Y-125152141D01*
X84674343Y-125152141D02*
X84685500Y-125152300D01*
X86228900Y-125152300D02*
X86228900Y-124742100D01*
X89585200Y-127036200D02*
X90034200Y-127036200D01*
X76036900Y-126530300D02*
X76164500Y-126880300D01*
X69806900Y-128302300D02*
X69745569Y-128301040D01*
X69745569Y-128301040D02*
X69685615Y-128297285D01*
X69685615Y-128297285D02*
X69627074Y-128291073D01*
X69627074Y-128291073D02*
X69569985Y-128282439D01*
X69569985Y-128282439D02*
X69514384Y-128271422D01*
X69514384Y-128271422D02*
X69460309Y-128258057D01*
X69460309Y-128258057D02*
X69407798Y-128242383D01*
X69407798Y-128242383D02*
X69356887Y-128224435D01*
X69356887Y-128224435D02*
X69307615Y-128204252D01*
X69307615Y-128204252D02*
X69260018Y-128181869D01*
X69260018Y-128181869D02*
X69214135Y-128157324D01*
X69214135Y-128157324D02*
X69170002Y-128130654D01*
X69170002Y-128130654D02*
X69127657Y-128101896D01*
X69127657Y-128101896D02*
X69087137Y-128071087D01*
X69087137Y-128071087D02*
X69048481Y-128038263D01*
X69048481Y-128038263D02*
X69011725Y-128003462D01*
X69011725Y-128003462D02*
X68976906Y-127966721D01*
X68976906Y-127966721D02*
X68944062Y-127928076D01*
X68944062Y-127928076D02*
X68913231Y-127887565D01*
X68913231Y-127887565D02*
X68884450Y-127845224D01*
X68884450Y-127845224D02*
X68857757Y-127801091D01*
X68857757Y-127801091D02*
X68833188Y-127755203D01*
X68833188Y-127755203D02*
X68810781Y-127707596D01*
X68810781Y-127707596D02*
X68790575Y-127658307D01*
X68790575Y-127658307D02*
X68772605Y-127607374D01*
X68772605Y-127607374D02*
X68756910Y-127554833D01*
X68756910Y-127554833D02*
X68743526Y-127500722D01*
X68743526Y-127500722D02*
X68732492Y-127445077D01*
X68732492Y-127445077D02*
X68723845Y-127387935D01*
X68723845Y-127387935D02*
X68717623Y-127329334D01*
X68717623Y-127329334D02*
X68713862Y-127269310D01*
X68713862Y-127269310D02*
X68712600Y-127207900D01*
X73472900Y-125799000D02*
X73173800Y-125799000D01*
X74930000Y-127036200D02*
X75108000Y-126530300D01*
X71385400Y-125152300D02*
X71385400Y-126860900D01*
X81548100Y-125890900D02*
X81544360Y-125967439D01*
X81544360Y-125967439D02*
X81533388Y-126041814D01*
X81533388Y-126041814D02*
X81515549Y-126113643D01*
X81515549Y-126113643D02*
X81491212Y-126182542D01*
X81491212Y-126182542D02*
X81460744Y-126248128D01*
X81460744Y-126248128D02*
X81424511Y-126310020D01*
X81424511Y-126310020D02*
X81382882Y-126367834D01*
X81382882Y-126367834D02*
X81336225Y-126421187D01*
X81336225Y-126421187D02*
X81284905Y-126469697D01*
X81284905Y-126469697D02*
X81229291Y-126512981D01*
X81229291Y-126512981D02*
X81169750Y-126550655D01*
X81169750Y-126550655D02*
X81106650Y-126582339D01*
X81106650Y-126582339D02*
X81040357Y-126607647D01*
X81040357Y-126607647D02*
X80971239Y-126626199D01*
X80971239Y-126626199D02*
X80899664Y-126637611D01*
X80899664Y-126637611D02*
X80826000Y-126641500D01*
X84685500Y-125152300D02*
X85143600Y-125152300D01*
X85143600Y-126860900D02*
X85147611Y-126912914D01*
X85147611Y-126912914D02*
X85163302Y-126962717D01*
X85163302Y-126962717D02*
X85197248Y-127004110D01*
X85197248Y-127004110D02*
X85248811Y-127028320D01*
X85248811Y-127028320D02*
X85307642Y-127036041D01*
X85307642Y-127036041D02*
X85318800Y-127036200D01*
X91269000Y-126880300D02*
X91293196Y-126933603D01*
X91293196Y-126933603D02*
X91323353Y-126975682D01*
X91323353Y-126975682D02*
X91366929Y-127010725D01*
X91366929Y-127010725D02*
X91420519Y-127030793D01*
X91420519Y-127030793D02*
X91475200Y-127036200D01*
X93712600Y-127207900D02*
X93711337Y-127269310D01*
X93711337Y-127269310D02*
X93707573Y-127329334D01*
X93707573Y-127329334D02*
X93701346Y-127387935D01*
X93701346Y-127387935D02*
X93692694Y-127445077D01*
X93692694Y-127445077D02*
X93681654Y-127500722D01*
X93681654Y-127500722D02*
X93668264Y-127554833D01*
X93668264Y-127554833D02*
X93652561Y-127607374D01*
X93652561Y-127607374D02*
X93634582Y-127658307D01*
X93634582Y-127658307D02*
X93614366Y-127707596D01*
X93614366Y-127707596D02*
X93591951Y-127755203D01*
X93591951Y-127755203D02*
X93567373Y-127801091D01*
X93567373Y-127801091D02*
X93540670Y-127845224D01*
X93540670Y-127845224D02*
X93511880Y-127887565D01*
X93511880Y-127887565D02*
X93481040Y-127928076D01*
X93481040Y-127928076D02*
X93448188Y-127966721D01*
X93448188Y-127966721D02*
X93413362Y-128003462D01*
X93413362Y-128003462D02*
X93376599Y-128038263D01*
X93376599Y-128038263D02*
X93337937Y-128071087D01*
X93337937Y-128071087D02*
X93297413Y-128101896D01*
X93297413Y-128101896D02*
X93255065Y-128130654D01*
X93255065Y-128130654D02*
X93210931Y-128157324D01*
X93210931Y-128157324D02*
X93165048Y-128181869D01*
X93165048Y-128181869D02*
X93117454Y-128204252D01*
X93117454Y-128204252D02*
X93068185Y-128224435D01*
X93068185Y-128224435D02*
X93017281Y-128242383D01*
X93017281Y-128242383D02*
X92964779Y-128258057D01*
X92964779Y-128258057D02*
X92910715Y-128271422D01*
X92910715Y-128271422D02*
X92855128Y-128282439D01*
X92855128Y-128282439D02*
X92798056Y-128291073D01*
X92798056Y-128291073D02*
X92739535Y-128297285D01*
X92739535Y-128297285D02*
X92679604Y-128301040D01*
X92679604Y-128301040D02*
X92618300Y-128302300D01*
X75894200Y-126129500D02*
X75251500Y-126129500D01*
X72470700Y-125152300D02*
X72470700Y-124742100D01*
X93712600Y-124309500D02*
X93712600Y-127207900D01*
X90463700Y-124742100D02*
X89585200Y-127036200D01*
X92618300Y-123214900D02*
X92679604Y-123216161D01*
X92679604Y-123216161D02*
X92739535Y-123219922D01*
X92739535Y-123219922D02*
X92798056Y-123226143D01*
X92798056Y-123226143D02*
X92855128Y-123234789D01*
X92855128Y-123234789D02*
X92910715Y-123245821D01*
X92910715Y-123245821D02*
X92964779Y-123259203D01*
X92964779Y-123259203D02*
X93017281Y-123274897D01*
X93017281Y-123274897D02*
X93068185Y-123292865D01*
X93068185Y-123292865D02*
X93117454Y-123313071D01*
X93117454Y-123313071D02*
X93165048Y-123335477D01*
X93165048Y-123335477D02*
X93210931Y-123360046D01*
X93210931Y-123360046D02*
X93255065Y-123386740D01*
X93255065Y-123386740D02*
X93297413Y-123415522D01*
X93297413Y-123415522D02*
X93337937Y-123446355D01*
X93337937Y-123446355D02*
X93376599Y-123479202D01*
X93376599Y-123479202D02*
X93413362Y-123514025D01*
X93413362Y-123514025D02*
X93448188Y-123550786D01*
X93448188Y-123550786D02*
X93481040Y-123589449D01*
X93481040Y-123589449D02*
X93511880Y-123629977D01*
X93511880Y-123629977D02*
X93540670Y-123672331D01*
X93540670Y-123672331D02*
X93567373Y-123716475D01*
X93567373Y-123716475D02*
X93591951Y-123762371D01*
X93591951Y-123762371D02*
X93614366Y-123809983D01*
X93614366Y-123809983D02*
X93634582Y-123859271D01*
X93634582Y-123859271D02*
X93652561Y-123910201D01*
X93652561Y-123910201D02*
X93668264Y-123962733D01*
X93668264Y-123962733D02*
X93681654Y-124016831D01*
X93681654Y-124016831D02*
X93692694Y-124072457D01*
X93692694Y-124072457D02*
X93701346Y-124129574D01*
X93701346Y-124129574D02*
X93707573Y-124188145D01*
X93707573Y-124188145D02*
X93711337Y-124248133D01*
X93711337Y-124248133D02*
X93712600Y-124309500D01*
X75251500Y-126129500D02*
X75572500Y-125235200D01*
X75572500Y-125235200D02*
X75894200Y-126129500D01*
X90355700Y-126129500D02*
X90677200Y-125235200D01*
X73472900Y-125136600D02*
X73534395Y-125140382D01*
X73534395Y-125140382D02*
X73595542Y-125152551D01*
X73595542Y-125152551D02*
X73653921Y-125174341D01*
X73653921Y-125174341D02*
X73707112Y-125206987D01*
X73707112Y-125206987D02*
X73752695Y-125251722D01*
X73752695Y-125251722D02*
X73780435Y-125293948D01*
X73780435Y-125293948D02*
X73801512Y-125344190D01*
X73801512Y-125344190D02*
X73814908Y-125402967D01*
X73814908Y-125402967D02*
X73819600Y-125470800D01*
X90998000Y-126129500D02*
X90355700Y-126129500D01*
X85595600Y-125152300D02*
X86228900Y-125152300D01*
X86972900Y-124742100D02*
X86521800Y-124742100D01*
X91475200Y-127036200D02*
X91784200Y-127036200D01*
X85595600Y-127036200D02*
X85595600Y-125152300D01*
X71837400Y-127036200D02*
X71837400Y-125152300D01*
X86521800Y-126860900D02*
X86525796Y-126912914D01*
X86525796Y-126912914D02*
X86541427Y-126962717D01*
X86541427Y-126962717D02*
X86575241Y-127004110D01*
X86575241Y-127004110D02*
X86626597Y-127028320D01*
X86626597Y-127028320D02*
X86685188Y-127036041D01*
X86685188Y-127036041D02*
X86696300Y-127036200D01*
X70752000Y-124742100D02*
X70752000Y-124977700D01*
X71560600Y-127036200D02*
X71837400Y-127036200D01*
X86972900Y-127036200D02*
X86972900Y-124742100D01*
X80826000Y-126641500D02*
X80752287Y-126637611D01*
X80752287Y-126637611D02*
X80680749Y-126626199D01*
X80680749Y-126626199D02*
X80611743Y-126607647D01*
X80611743Y-126607647D02*
X80545623Y-126582339D01*
X80545623Y-126582339D02*
X80482746Y-126550655D01*
X80482746Y-126550655D02*
X80423469Y-126512981D01*
X80423469Y-126512981D02*
X80368147Y-126469697D01*
X80368147Y-126469697D02*
X80317137Y-126421187D01*
X80317137Y-126421187D02*
X80270794Y-126367834D01*
X80270794Y-126367834D02*
X80229475Y-126310020D01*
X80229475Y-126310020D02*
X80193536Y-126248128D01*
X80193536Y-126248128D02*
X80163332Y-126182542D01*
X80163332Y-126182542D02*
X80139221Y-126113643D01*
X80139221Y-126113643D02*
X80121558Y-126041814D01*
X80121558Y-126041814D02*
X80110698Y-125967439D01*
X80110698Y-125967439D02*
X80107000Y-125890900D01*
X90034200Y-127036200D02*
X90212700Y-126530300D01*
X90899900Y-124742100D02*
X90463700Y-124742100D01*
X71837400Y-125152300D02*
X72470700Y-125152300D01*
X91784200Y-127036200D02*
X90899900Y-124742100D01*
X85318800Y-127036200D02*
X85595600Y-127036200D01*
X73819600Y-125470800D02*
X73814908Y-125537006D01*
X73814908Y-125537006D02*
X73801512Y-125594479D01*
X73801512Y-125594479D02*
X73780435Y-125643704D01*
X73780435Y-125643704D02*
X73742145Y-125697346D01*
X73742145Y-125697346D02*
X73694433Y-125738336D01*
X73694433Y-125738336D02*
X73639718Y-125767825D01*
X73639718Y-125767825D02*
X73580420Y-125786962D01*
X73580420Y-125786962D02*
X73518959Y-125796896D01*
X73518959Y-125796896D02*
X73472900Y-125799000D01*
X72470700Y-124742100D02*
X70752000Y-124742100D01*
X86696300Y-127036200D02*
X86972900Y-127036200D01*
X70927300Y-125152300D02*
X71385400Y-125152300D01*
X86228900Y-124742100D02*
X84510500Y-124742100D01*
X80107000Y-125890900D02*
X80110698Y-125814236D01*
X80110698Y-125814236D02*
X80121558Y-125739682D01*
X80121558Y-125739682D02*
X80139221Y-125667629D01*
X80139221Y-125667629D02*
X80163332Y-125598468D01*
X80163332Y-125598468D02*
X80193536Y-125532591D01*
X80193536Y-125532591D02*
X80229475Y-125470389D01*
X80229475Y-125470389D02*
X80270794Y-125412253D01*
X80270794Y-125412253D02*
X80317137Y-125358575D01*
X80317137Y-125358575D02*
X80368147Y-125309746D01*
X80368147Y-125309746D02*
X80423469Y-125266157D01*
X80423469Y-125266157D02*
X80482746Y-125228201D01*
X80482746Y-125228201D02*
X80545623Y-125196268D01*
X80545623Y-125196268D02*
X80611743Y-125170750D01*
X80611743Y-125170750D02*
X80680749Y-125152039D01*
X80680749Y-125152039D02*
X80752287Y-125140525D01*
X80752287Y-125140525D02*
X80826000Y-125136600D01*
X91141300Y-126530300D02*
X91269000Y-126880300D01*
X90212700Y-126530300D02*
X91141300Y-126530300D01*
X75108000Y-126530300D02*
X76036900Y-126530300D01*
X69806900Y-123214900D02*
X92618300Y-123214900D01*
X70752000Y-124977700D02*
X70756024Y-125029368D01*
X70756024Y-125029368D02*
X70771752Y-125078926D01*
X70771752Y-125078926D02*
X70805749Y-125120204D01*
X70805749Y-125120204D02*
X70857339Y-125144404D01*
X70857339Y-125144404D02*
X70916151Y-125152141D01*
X70916151Y-125152141D02*
X70927300Y-125152300D01*
X68712600Y-124309500D02*
X68713862Y-124248133D01*
X68713862Y-124248133D02*
X68717623Y-124188145D01*
X68717623Y-124188145D02*
X68723845Y-124129574D01*
X68723845Y-124129574D02*
X68732492Y-124072457D01*
X68732492Y-124072457D02*
X68743526Y-124016831D01*
X68743526Y-124016831D02*
X68756910Y-123962733D01*
X68756910Y-123962733D02*
X68772605Y-123910201D01*
X68772605Y-123910201D02*
X68790575Y-123859271D01*
X68790575Y-123859271D02*
X68810781Y-123809983D01*
X68810781Y-123809983D02*
X68833188Y-123762371D01*
X68833188Y-123762371D02*
X68857757Y-123716475D01*
X68857757Y-123716475D02*
X68884450Y-123672331D01*
X68884450Y-123672331D02*
X68913231Y-123629977D01*
X68913231Y-123629977D02*
X68944062Y-123589449D01*
X68944062Y-123589449D02*
X68976906Y-123550786D01*
X68976906Y-123550786D02*
X69011725Y-123514025D01*
X69011725Y-123514025D02*
X69048481Y-123479202D01*
X69048481Y-123479202D02*
X69087137Y-123446355D01*
X69087137Y-123446355D02*
X69127657Y-123415522D01*
X69127657Y-123415522D02*
X69170002Y-123386740D01*
X69170002Y-123386740D02*
X69214135Y-123360046D01*
X69214135Y-123360046D02*
X69260018Y-123335477D01*
X69260018Y-123335477D02*
X69307615Y-123313071D01*
X69307615Y-123313071D02*
X69356887Y-123292865D01*
X69356887Y-123292865D02*
X69407798Y-123274897D01*
X69407798Y-123274897D02*
X69460309Y-123259203D01*
X69460309Y-123259203D02*
X69514384Y-123245821D01*
X69514384Y-123245821D02*
X69569985Y-123234789D01*
X69569985Y-123234789D02*
X69627074Y-123226143D01*
X69627074Y-123226143D02*
X69685615Y-123219922D01*
X69685615Y-123219922D02*
X69745569Y-123216161D01*
X69745569Y-123216161D02*
X69806900Y-123214900D01*
X68712600Y-127207900D02*
X68712600Y-124309500D01*
X92618300Y-128302300D02*
X69806900Y-128302300D01*
X90677200Y-125235200D02*
X90998000Y-126129500D01*
X73173800Y-125799000D02*
X73173800Y-125136600D01*
X73173800Y-125136600D02*
X73472900Y-125136600D01*
X86521800Y-124742100D02*
X86521800Y-126860900D01*
X78159800Y-126300900D02*
X77564700Y-124742100D01*
X84236900Y-127036200D02*
X84236900Y-124742100D01*
X83718600Y-126877000D02*
X83755740Y-126925722D01*
X83755740Y-126925722D02*
X83793483Y-126964749D01*
X83793483Y-126964749D02*
X83840975Y-126999612D01*
X83840975Y-126999612D02*
X83892495Y-127022378D01*
X83892495Y-127022378D02*
X83949769Y-127034063D01*
X83949769Y-127034063D02*
X83992000Y-127036200D01*
X77236900Y-127036200D02*
X77443600Y-125461400D01*
X82480700Y-127036200D02*
X82722600Y-127036200D01*
X89340800Y-127036200D02*
X89340800Y-124742100D01*
X79512200Y-127036200D02*
X79155500Y-124742100D01*
X82722600Y-125442000D02*
X83718600Y-126877000D01*
X87816600Y-124742100D02*
X87409500Y-124742100D01*
X79155500Y-124742100D02*
X78754700Y-124742100D01*
X88923400Y-124742100D02*
X88923400Y-126365000D01*
X74398700Y-127036200D02*
X73873800Y-126107500D01*
X77443600Y-125461400D02*
X77911300Y-126679900D01*
X79040800Y-126867600D02*
X79053184Y-126918874D01*
X79053184Y-126918874D02*
X79080023Y-126967187D01*
X79080023Y-126967187D02*
X79117970Y-127001990D01*
X79117970Y-127001990D02*
X79164946Y-127024245D01*
X79164946Y-127024245D02*
X79218876Y-127034911D01*
X79218876Y-127034911D02*
X79247800Y-127036200D01*
X77160800Y-124742100D02*
X76804300Y-127036200D01*
X78754700Y-124742100D02*
X78159800Y-126300900D01*
X82305500Y-126860900D02*
X82309499Y-126912914D01*
X82309499Y-126912914D02*
X82325155Y-126962717D01*
X82325155Y-126962717D02*
X82359065Y-127004110D01*
X82359065Y-127004110D02*
X82410631Y-127028320D01*
X82410631Y-127028320D02*
X82469525Y-127036041D01*
X82469525Y-127036041D02*
X82480700Y-127036200D01*
X89340800Y-124742100D02*
X88923400Y-124742100D01*
X78340900Y-126845200D02*
X78856100Y-125486500D01*
X74261600Y-125473800D02*
X74257958Y-125391144D01*
X74257958Y-125391144D02*
X74247222Y-125312672D01*
X74247222Y-125312672D02*
X74229676Y-125238541D01*
X74229676Y-125238541D02*
X74205604Y-125168910D01*
X74205604Y-125168910D02*
X74175290Y-125103939D01*
X74175290Y-125103939D02*
X74139018Y-125043784D01*
X74139018Y-125043784D02*
X74097073Y-124988606D01*
X74097073Y-124988606D02*
X74049737Y-124938562D01*
X74049737Y-124938562D02*
X73997295Y-124893812D01*
X73997295Y-124893812D02*
X73940032Y-124854513D01*
X73940032Y-124854513D02*
X73878231Y-124820826D01*
X73878231Y-124820826D02*
X73812176Y-124792907D01*
X73812176Y-124792907D02*
X73742151Y-124770917D01*
X73742151Y-124770917D02*
X73668441Y-124755013D01*
X73668441Y-124755013D02*
X73591329Y-124745354D01*
X73591329Y-124745354D02*
X73511100Y-124742100D01*
X83820000Y-124742100D02*
X83820000Y-126365000D01*
X80819400Y-127077700D02*
X80880504Y-127076164D01*
X80880504Y-127076164D02*
X80940840Y-127071605D01*
X80940840Y-127071605D02*
X81000332Y-127064095D01*
X81000332Y-127064095D02*
X81058903Y-127053707D01*
X81058903Y-127053707D02*
X81116475Y-127040512D01*
X81116475Y-127040512D02*
X81172972Y-127024583D01*
X81172972Y-127024583D02*
X81228318Y-127005993D01*
X81228318Y-127005993D02*
X81282434Y-126984814D01*
X81282434Y-126984814D02*
X81335244Y-126961117D01*
X81335244Y-126961117D02*
X81386672Y-126934975D01*
X81386672Y-126934975D02*
X81436641Y-126906462D01*
X81436641Y-126906462D02*
X81485073Y-126875648D01*
X81485073Y-126875648D02*
X81531891Y-126842606D01*
X81531891Y-126842606D02*
X81577020Y-126807409D01*
X81577020Y-126807409D02*
X81620382Y-126770128D01*
X81620382Y-126770128D02*
X81661900Y-126730837D01*
X81661900Y-126730837D02*
X81701497Y-126689607D01*
X81701497Y-126689607D02*
X81739096Y-126646511D01*
X81739096Y-126646511D02*
X81774621Y-126601621D01*
X81774621Y-126601621D02*
X81807995Y-126555009D01*
X81807995Y-126555009D02*
X81839141Y-126506748D01*
X81839141Y-126506748D02*
X81867981Y-126456910D01*
X81867981Y-126456910D02*
X81894440Y-126405567D01*
X81894440Y-126405567D02*
X81918440Y-126352791D01*
X81918440Y-126352791D02*
X81939904Y-126298656D01*
X81939904Y-126298656D02*
X81958756Y-126243233D01*
X81958756Y-126243233D02*
X81974919Y-126186594D01*
X81974919Y-126186594D02*
X81988315Y-126128812D01*
X81988315Y-126128812D02*
X81998868Y-126069959D01*
X81998868Y-126069959D02*
X82006501Y-126010108D01*
X82006501Y-126010108D02*
X82011137Y-125949330D01*
X82011137Y-125949330D02*
X82012700Y-125887699D01*
X83992000Y-127036200D02*
X84236900Y-127036200D01*
X88822000Y-126877000D02*
X88859141Y-126925722D01*
X88859141Y-126925722D02*
X88896892Y-126964749D01*
X88896892Y-126964749D02*
X88944412Y-126999612D01*
X88944412Y-126999612D02*
X88995993Y-127022378D01*
X88995993Y-127022378D02*
X89053370Y-127034063D01*
X89053370Y-127034063D02*
X89095700Y-127036200D01*
X87826000Y-125442000D02*
X88822000Y-126877000D01*
X73469600Y-126189800D02*
X73835300Y-126906000D01*
X87409500Y-124742100D02*
X87409500Y-126860900D01*
X72744300Y-126860900D02*
X72748286Y-126912914D01*
X72748286Y-126912914D02*
X72763900Y-126962717D01*
X72763900Y-126962717D02*
X72797746Y-127004110D01*
X72797746Y-127004110D02*
X72849255Y-127028320D01*
X72849255Y-127028320D02*
X72908125Y-127036041D01*
X72908125Y-127036041D02*
X72919300Y-127036200D01*
X77911300Y-126679900D02*
X77933983Y-126727921D01*
X77933983Y-126727921D02*
X77966149Y-126774544D01*
X77966149Y-126774544D02*
X78004561Y-126809299D01*
X78004561Y-126809299D02*
X78050114Y-126832329D01*
X78050114Y-126832329D02*
X78103707Y-126843775D01*
X78103707Y-126843775D02*
X78133800Y-126845200D01*
X73173800Y-126189800D02*
X73469600Y-126189800D01*
X82712600Y-124742100D02*
X82305500Y-124742100D01*
X89095700Y-127036200D02*
X89340800Y-127036200D01*
X74054600Y-127036200D02*
X74398700Y-127036200D01*
X82012700Y-125887699D02*
X82011164Y-125826886D01*
X82011164Y-125826886D02*
X82006607Y-125766842D01*
X82006607Y-125766842D02*
X81999103Y-125707643D01*
X81999103Y-125707643D02*
X81988726Y-125649365D01*
X81988726Y-125649365D02*
X81975550Y-125592084D01*
X81975550Y-125592084D02*
X81959649Y-125535877D01*
X81959649Y-125535877D02*
X81941097Y-125480820D01*
X81941097Y-125480820D02*
X81919968Y-125426988D01*
X81919968Y-125426988D02*
X81896337Y-125374459D01*
X81896337Y-125374459D02*
X81870278Y-125323308D01*
X81870278Y-125323308D02*
X81841864Y-125273611D01*
X81841864Y-125273611D02*
X81811170Y-125225445D01*
X81811170Y-125225445D02*
X81778270Y-125178886D01*
X81778270Y-125178886D02*
X81743238Y-125134010D01*
X81743238Y-125134010D02*
X81706148Y-125090893D01*
X81706148Y-125090893D02*
X81667075Y-125049612D01*
X81667075Y-125049612D02*
X81626091Y-125010242D01*
X81626091Y-125010242D02*
X81583273Y-124972860D01*
X81583273Y-124972860D02*
X81538693Y-124937542D01*
X81538693Y-124937542D02*
X81492426Y-124904364D01*
X81492426Y-124904364D02*
X81444546Y-124873403D01*
X81444546Y-124873403D02*
X81395127Y-124844734D01*
X81395127Y-124844734D02*
X81344243Y-124818434D01*
X81344243Y-124818434D02*
X81291968Y-124794579D01*
X81291968Y-124794579D02*
X81238377Y-124773245D01*
X81238377Y-124773245D02*
X81183543Y-124754509D01*
X81183543Y-124754509D02*
X81127541Y-124738446D01*
X81127541Y-124738446D02*
X81070445Y-124725132D01*
X81070445Y-124725132D02*
X81012328Y-124714645D01*
X81012328Y-124714645D02*
X80953266Y-124707059D01*
X80953266Y-124707059D02*
X80893332Y-124702452D01*
X80893332Y-124702452D02*
X80832600Y-124700900D01*
X78856100Y-125486500D02*
X79040800Y-126867600D01*
X73511100Y-124742100D02*
X72744300Y-124742100D01*
X78133800Y-126845200D02*
X78340900Y-126845200D01*
X84236900Y-124742100D02*
X83820000Y-124742100D01*
X80832600Y-124700900D02*
X80771478Y-124702443D01*
X80771478Y-124702443D02*
X80711146Y-124707026D01*
X80711146Y-124707026D02*
X80651679Y-124714573D01*
X80651679Y-124714573D02*
X80593152Y-124725012D01*
X80593152Y-124725012D02*
X80535640Y-124738270D01*
X80535640Y-124738270D02*
X80479220Y-124754273D01*
X80479220Y-124754273D02*
X80423966Y-124772947D01*
X80423966Y-124772947D02*
X80369954Y-124794220D01*
X80369954Y-124794220D02*
X80317260Y-124818018D01*
X80317260Y-124818018D02*
X80265959Y-124844267D01*
X80265959Y-124844267D02*
X80216127Y-124872894D01*
X80216127Y-124872894D02*
X80167839Y-124903827D01*
X80167839Y-124903827D02*
X80121170Y-124936990D01*
X80121170Y-124936990D02*
X80076197Y-124972312D01*
X80076197Y-124972312D02*
X80032994Y-125009719D01*
X80032994Y-125009719D02*
X79991637Y-125049137D01*
X79991637Y-125049137D02*
X79952202Y-125090493D01*
X79952202Y-125090493D02*
X79914764Y-125133714D01*
X79914764Y-125133714D02*
X79879398Y-125178725D01*
X79879398Y-125178725D02*
X79846181Y-125225455D01*
X79846181Y-125225455D02*
X79815187Y-125273829D01*
X79815187Y-125273829D02*
X79786492Y-125323775D01*
X79786492Y-125323775D02*
X79760171Y-125375218D01*
X79760171Y-125375218D02*
X79736301Y-125428085D01*
X79736301Y-125428085D02*
X79714956Y-125482304D01*
X79714956Y-125482304D02*
X79696213Y-125537800D01*
X79696213Y-125537800D02*
X79680145Y-125594501D01*
X79680145Y-125594501D02*
X79666830Y-125652332D01*
X79666830Y-125652332D02*
X79656342Y-125711221D01*
X79656342Y-125711221D02*
X79648758Y-125771094D01*
X79648758Y-125771094D02*
X79644152Y-125831878D01*
X79644152Y-125831878D02*
X79642600Y-125893500D01*
X72919300Y-127036200D02*
X73173800Y-127036200D01*
X87826000Y-127036200D02*
X87826000Y-125442000D01*
X82722600Y-127036200D02*
X82722600Y-125442000D01*
X88923400Y-126365000D02*
X87816600Y-124742100D01*
X82305500Y-124742100D02*
X82305500Y-126860900D01*
X73873800Y-126107500D02*
X73936259Y-126073086D01*
X73936259Y-126073086D02*
X73994587Y-126032877D01*
X73994587Y-126032877D02*
X74048345Y-125987088D01*
X74048345Y-125987088D02*
X74097093Y-125935935D01*
X74097093Y-125935935D02*
X74140391Y-125879635D01*
X74140391Y-125879635D02*
X74177801Y-125818404D01*
X74177801Y-125818404D02*
X74208882Y-125752457D01*
X74208882Y-125752457D02*
X74233195Y-125682010D01*
X74233195Y-125682010D02*
X74245427Y-125632653D01*
X74245427Y-125632653D02*
X74254325Y-125581456D01*
X74254325Y-125581456D02*
X74259759Y-125528484D01*
X74259759Y-125528484D02*
X74261600Y-125473800D01*
X73173800Y-127036200D02*
X73173800Y-126189800D01*
X72744300Y-124742100D02*
X72744300Y-126860900D01*
X79642600Y-125893500D02*
X79644124Y-125954314D01*
X79644124Y-125954314D02*
X79648648Y-126014344D01*
X79648648Y-126014344D02*
X79656100Y-126073514D01*
X79656100Y-126073514D02*
X79666407Y-126131751D01*
X79666407Y-126131751D02*
X79679496Y-126188977D01*
X79679496Y-126188977D02*
X79695294Y-126245119D01*
X79695294Y-126245119D02*
X79713730Y-126300100D01*
X79713730Y-126300100D02*
X79734731Y-126353846D01*
X79734731Y-126353846D02*
X79758223Y-126406282D01*
X79758223Y-126406282D02*
X79784135Y-126457332D01*
X79784135Y-126457332D02*
X79812394Y-126506922D01*
X79812394Y-126506922D02*
X79842927Y-126554975D01*
X79842927Y-126554975D02*
X79875661Y-126601417D01*
X79875661Y-126601417D02*
X79910525Y-126646173D01*
X79910525Y-126646173D02*
X79947445Y-126689167D01*
X79947445Y-126689167D02*
X79986350Y-126730325D01*
X79986350Y-126730325D02*
X80027165Y-126769570D01*
X80027165Y-126769570D02*
X80069819Y-126806829D01*
X80069819Y-126806829D02*
X80114239Y-126842025D01*
X80114239Y-126842025D02*
X80160353Y-126875083D01*
X80160353Y-126875083D02*
X80208088Y-126905930D01*
X80208088Y-126905930D02*
X80257372Y-126934488D01*
X80257372Y-126934488D02*
X80308131Y-126960683D01*
X80308131Y-126960683D02*
X80360293Y-126984440D01*
X80360293Y-126984440D02*
X80413786Y-127005684D01*
X80413786Y-127005684D02*
X80468537Y-127024339D01*
X80468537Y-127024339D02*
X80524474Y-127040330D01*
X80524474Y-127040330D02*
X80581524Y-127053583D01*
X80581524Y-127053583D02*
X80639614Y-127064021D01*
X80639614Y-127064021D02*
X80698671Y-127071570D01*
X80698671Y-127071570D02*
X80758624Y-127076155D01*
X80758624Y-127076155D02*
X80819400Y-127077700D01*
X87584100Y-127036200D02*
X87826000Y-127036200D01*
X76804300Y-127036200D02*
X77236900Y-127036200D01*
X77564700Y-124742100D02*
X77160800Y-124742100D01*
X74481100Y-127036200D02*
X74930000Y-127036200D01*
X75359300Y-124742100D02*
X74481100Y-127036200D01*
X79247800Y-127036200D02*
X79512200Y-127036200D01*
X75795200Y-124742100D02*
X75359300Y-124742100D01*
X87409500Y-126860900D02*
X87413509Y-126912914D01*
X87413509Y-126912914D02*
X87429177Y-126962717D01*
X87429177Y-126962717D02*
X87463041Y-127004110D01*
X87463041Y-127004110D02*
X87514425Y-127028320D01*
X87514425Y-127028320D02*
X87572997Y-127036041D01*
X87572997Y-127036041D02*
X87584100Y-127036200D01*
X76680100Y-127036200D02*
X75795200Y-124742100D01*
X76371100Y-127036200D02*
X76680100Y-127036200D01*
X76164500Y-126880300D02*
X76188770Y-126933603D01*
X76188770Y-126933603D02*
X76219023Y-126975682D01*
X76219023Y-126975682D02*
X76262714Y-127010725D01*
X76262714Y-127010725D02*
X76316391Y-127030793D01*
X76316391Y-127030793D02*
X76371100Y-127036200D01*
X73835300Y-126906000D02*
X73863976Y-126953441D01*
X73863976Y-126953441D02*
X73903233Y-126993994D01*
X73903233Y-126993994D02*
X73950389Y-127020158D01*
X73950389Y-127020158D02*
X74007178Y-127033552D01*
X74007178Y-127033552D02*
X74054600Y-127036200D01*
X83820000Y-126365000D02*
X82712600Y-124742100D01*
D14*
G04 #@! TO.C,U1*
X113390000Y-105110000D02*
X113390000Y-106610000D01*
X113390000Y-106610000D02*
X113660000Y-106610000D01*
X113660000Y-106610000D02*
X113660000Y-109440000D01*
X120290000Y-105110000D02*
X120290000Y-106610000D01*
X120290000Y-106610000D02*
X120020000Y-106610000D01*
X120020000Y-106610000D02*
X120020000Y-107710000D01*
G04 #@! TO.C,C7*
X145995000Y-92410000D02*
X141910000Y-92410000D01*
X145995000Y-94280000D02*
X145995000Y-92410000D01*
X141910000Y-94280000D02*
X145995000Y-94280000D01*
G04 #@! TO.C,C5*
X123135000Y-92410000D02*
X119050000Y-92410000D01*
X123135000Y-94280000D02*
X123135000Y-92410000D01*
X119050000Y-94280000D02*
X123135000Y-94280000D01*
G04 #@! TO.C,C1*
X111380000Y-108130000D02*
X111380000Y-104380000D01*
X111380000Y-97610000D02*
X111380000Y-101360000D01*
X101924437Y-97610000D02*
X111380000Y-97610000D01*
X101924437Y-108130000D02*
X111380000Y-108130000D01*
X100860000Y-107065563D02*
X100860000Y-104380000D01*
X100860000Y-98674437D02*
X100860000Y-101360000D01*
X100860000Y-98674437D02*
X101924437Y-97610000D01*
X100860000Y-107065563D02*
X101924437Y-108130000D01*
X99370000Y-100110000D02*
X100620000Y-100110000D01*
X99995000Y-99485000D02*
X99995000Y-100735000D01*
G04 #@! TO.C,U2*
X68350000Y-86530000D02*
X68350000Y-65880000D01*
X94210000Y-86530000D02*
X94210000Y-65880000D01*
X94210000Y-65880000D02*
X68350000Y-65880000D01*
D12*
G36*
X67310000Y-66675000D02*
G01*
X67310000Y-67945000D01*
X67945000Y-67310000D01*
X67310000Y-66675000D01*
G37*
X67310000Y-66675000D02*
X67310000Y-67945000D01*
X67945000Y-67310000D01*
X67310000Y-66675000D01*
D14*
X68350000Y-86530000D02*
X94210000Y-86530000D01*
G04 #@! TO.C,HS1*
X122590000Y-97558001D02*
X122790000Y-97358001D01*
X122790000Y-98158001D02*
X122590000Y-97958001D01*
X122590000Y-97158000D02*
X122790000Y-96958000D01*
X122790000Y-97358001D02*
X122590000Y-97158000D01*
X122790000Y-97758001D02*
X122590000Y-97558001D01*
X122590000Y-97958001D02*
X122790000Y-97758001D01*
X122790000Y-98558001D02*
X122590000Y-98358001D01*
X122590000Y-98358001D02*
X122790000Y-98158001D01*
X127590000Y-99158001D02*
X127790000Y-98958001D01*
X126290000Y-98558001D02*
X126490000Y-98758001D01*
X131490000Y-97158000D02*
X131290000Y-97358001D01*
X131490000Y-98358001D02*
X131290000Y-98558001D01*
X132790000Y-98558001D02*
X132590000Y-98358001D01*
X127790000Y-97358001D02*
X127590000Y-97158000D01*
X131290000Y-99358001D02*
X131290000Y-99641387D01*
X131490000Y-98758001D02*
X131290000Y-98958001D01*
X132590000Y-97158000D02*
X132790000Y-96958000D01*
X126490000Y-97558001D02*
X126290000Y-97758001D01*
X131490000Y-97958001D02*
X131290000Y-98158001D01*
X127790000Y-99358001D02*
X127590000Y-99158001D01*
X127790000Y-97758001D02*
X127590000Y-97558001D01*
X127790000Y-98958001D02*
X127590000Y-98758001D01*
X131290000Y-98958001D02*
X131490000Y-99158001D01*
X131490000Y-97558001D02*
X131290000Y-97758001D01*
X131290000Y-98558001D02*
X131490000Y-98758001D01*
X127590000Y-97158000D02*
X127790000Y-96958000D01*
X132790000Y-98158001D02*
X132590000Y-97958001D01*
X132590000Y-97558001D02*
X132790000Y-97358001D01*
X126290000Y-97758001D02*
X126490000Y-97958001D01*
X131290000Y-98158001D02*
X131490000Y-98358001D01*
X126490000Y-99158001D02*
X126290000Y-99358001D01*
X127590000Y-97958001D02*
X127790000Y-97758001D01*
X127590000Y-98358001D02*
X127790000Y-98158001D01*
X126290000Y-96958000D02*
X126490000Y-97158000D01*
X126490000Y-98358001D02*
X126290000Y-98558001D01*
X126490000Y-97158000D02*
X126290000Y-97358001D01*
X126490000Y-97958001D02*
X126290000Y-98158001D01*
X122590000Y-98758001D02*
X122790000Y-98558001D01*
X127590000Y-97558001D02*
X127790000Y-97358001D01*
X127790000Y-98158001D02*
X127590000Y-97958001D01*
X132590000Y-98358001D02*
X132790000Y-98158001D01*
X131290000Y-97758001D02*
X131490000Y-97958001D01*
X131290000Y-97358001D02*
X131490000Y-97558001D01*
X132790000Y-97758001D02*
X132590000Y-97558001D01*
X126290000Y-98958001D02*
X126490000Y-99158001D01*
X122790000Y-98958001D02*
X122590000Y-98758001D01*
X126290000Y-98158001D02*
X126490000Y-98358001D01*
X122590000Y-99158001D02*
X122790000Y-98958001D01*
X126290000Y-97358001D02*
X126490000Y-97558001D01*
X131290000Y-96958000D02*
X131490000Y-97158000D01*
X122790000Y-99641387D02*
X122790000Y-99358001D01*
X127790000Y-99641387D02*
X127790000Y-99358001D01*
X127590000Y-98758001D02*
X127790000Y-98558001D01*
X132590000Y-97958001D02*
X132790000Y-97758001D01*
X132790000Y-97358001D02*
X132590000Y-97158000D01*
X131490000Y-99158001D02*
X131290000Y-99358001D01*
X122790000Y-99358001D02*
X122590000Y-99158001D01*
X126290000Y-99358001D02*
X126290000Y-99641387D01*
X127790000Y-98558001D02*
X127590000Y-98358001D01*
X126490000Y-98758001D02*
X126290000Y-98958001D01*
X137590000Y-98358001D02*
X137790000Y-98158001D01*
X137590000Y-98758001D02*
X137790000Y-98558001D01*
X121489999Y-103158001D02*
X121290000Y-103358001D01*
X137590000Y-100358001D02*
X137790000Y-100158001D01*
X121290000Y-102958001D02*
X121489999Y-103158001D01*
X137790000Y-99758001D02*
X137590000Y-99558001D01*
X132590000Y-98758001D02*
X132790000Y-98558001D01*
X132790000Y-98958001D02*
X132590000Y-98758001D01*
X136290000Y-97758001D02*
X136489999Y-97958001D01*
X136489999Y-97558001D02*
X136290000Y-97758001D01*
X137790000Y-98158001D02*
X137590000Y-97958001D01*
X137590000Y-97958001D02*
X137790000Y-97758001D01*
X137590000Y-99158001D02*
X137790000Y-98958001D01*
X137790000Y-102958001D02*
X137590000Y-102758001D01*
X137590000Y-102358001D02*
X137790000Y-102158001D01*
X137790000Y-103358001D02*
X137590000Y-103158001D01*
X121290000Y-103358001D02*
X121290000Y-104858000D01*
X136489999Y-98758001D02*
X136290000Y-98958001D01*
X137590000Y-100758001D02*
X137790000Y-100558001D01*
X121489999Y-102758001D02*
X121290000Y-102958001D01*
X137790000Y-100958001D02*
X137590000Y-100758001D01*
X132590000Y-99158001D02*
X132790000Y-98958001D01*
X137790000Y-104858000D02*
X137790000Y-103358001D01*
X132790000Y-99358001D02*
X132590000Y-99158001D01*
X132790000Y-99641387D02*
X132790000Y-99358001D01*
X137590000Y-101558001D02*
X137790000Y-101358001D01*
X137790000Y-97758001D02*
X137590000Y-97558001D01*
X137590000Y-101158001D02*
X137790000Y-100958001D01*
X136290000Y-98158001D02*
X136489999Y-98358001D01*
X137790000Y-99358001D02*
X137590000Y-99158001D01*
X136489999Y-97158000D02*
X136290000Y-97358001D01*
X136290000Y-98558001D02*
X136489999Y-98758001D01*
X137790000Y-102558001D02*
X137590000Y-102358001D01*
X137790000Y-101358001D02*
X137590000Y-101158001D01*
X136290000Y-98958001D02*
X136489999Y-99158001D01*
X136290000Y-97358001D02*
X136489999Y-97558001D01*
X136489999Y-97958001D02*
X136290000Y-98158001D01*
X137590000Y-101958001D02*
X137790000Y-101758001D01*
X137790000Y-100158001D02*
X137590000Y-99958001D01*
X122030000Y-105608000D02*
X137030000Y-105608000D01*
X137790000Y-98958001D02*
X137590000Y-98758001D01*
X136290000Y-96958000D02*
X136489999Y-97158000D01*
X137790000Y-97358001D02*
X137590000Y-97158000D01*
X137590000Y-102758001D02*
X137790000Y-102558001D01*
X137790000Y-98558001D02*
X137590000Y-98358001D01*
X136290000Y-99358001D02*
X136290000Y-99641387D01*
X137590000Y-99958001D02*
X137790000Y-99758001D01*
X137590000Y-103158001D02*
X137790000Y-102958001D01*
X137590000Y-97558001D02*
X137790000Y-97358001D01*
X136489999Y-99158001D02*
X136290000Y-99358001D01*
X137790000Y-100558001D02*
X137590000Y-100358001D01*
X137590000Y-99558001D02*
X137790000Y-99358001D01*
X137590000Y-97158000D02*
X137790000Y-96958001D01*
X137790000Y-101758001D02*
X137590000Y-101558001D01*
X137790000Y-102158001D02*
X137590000Y-101958001D01*
X136489999Y-98358001D02*
X136290000Y-98558001D01*
X121489999Y-101558001D02*
X121290000Y-101758001D01*
X121290000Y-101358001D02*
X121489999Y-101558001D01*
X121489999Y-101158001D02*
X121290000Y-101358001D01*
X121489999Y-100758001D02*
X121290000Y-100958001D01*
X121290000Y-100558001D02*
X121489999Y-100758001D01*
X121489999Y-100358001D02*
X121290000Y-100558001D01*
X121290000Y-100158001D02*
X121489999Y-100358001D01*
X121489999Y-99558001D02*
X121290000Y-99758001D01*
X121290000Y-99358001D02*
X121489999Y-99558001D01*
X121489999Y-98758001D02*
X121290000Y-98958001D01*
X121290000Y-98558001D02*
X121489999Y-98758001D01*
X121290000Y-102558001D02*
X121489999Y-102758001D01*
X121290000Y-99758001D02*
X121489999Y-99958001D01*
X121290000Y-100958001D02*
X121489999Y-101158001D01*
X121290000Y-98958001D02*
X121489999Y-99158001D01*
X121489999Y-99158001D02*
X121290000Y-99358001D01*
X121489999Y-102358001D02*
X121290000Y-102558001D01*
X121290000Y-102158001D02*
X121489999Y-102358001D01*
X121290000Y-101758001D02*
X121489999Y-101958001D01*
X121489999Y-99958001D02*
X121290000Y-100158001D01*
X121489999Y-101958001D02*
X121290000Y-102158001D01*
X121290000Y-98158001D02*
X121489999Y-98358001D01*
X121489999Y-97158000D02*
X121290000Y-97358001D01*
X121290000Y-97758001D02*
X121489999Y-97958001D01*
X121290000Y-96958000D02*
X121489999Y-97158000D01*
X121290000Y-97358001D02*
X121489999Y-97558001D01*
X121489999Y-98358001D02*
X121290000Y-98558001D01*
X121489999Y-97958001D02*
X121290000Y-98158001D01*
X121489999Y-97558001D02*
X121290000Y-97758001D01*
X121290000Y-96958000D02*
G75*
G02*
X122790000Y-96958000I750000J0D01*
G01*
X136290000Y-96958001D02*
G75*
G02*
X137790000Y-96958001I750000J0D01*
G01*
X122030000Y-105608000D02*
G75*
G02*
X121280000Y-104858000I0J750000D01*
G01*
X137780000Y-104858000D02*
G75*
G02*
X137030000Y-105608000I-750000J0D01*
G01*
X136290000Y-99641387D02*
G75*
G02*
X136083103Y-99887643I-250000J0D01*
G01*
X135089999Y-101069673D02*
G75*
G02*
X136083103Y-99887643I1200001J0D01*
G01*
X132996896Y-99887642D02*
G75*
G02*
X132790000Y-99641387I43103J246255D01*
G01*
X132996896Y-99887642D02*
G75*
G02*
X133990000Y-101069673I-206897J-1182031D01*
G01*
X135089999Y-101069673D02*
G75*
G02*
X133990000Y-101069673I-549999J-1038327D01*
G01*
X130089999Y-101069673D02*
G75*
G02*
X131083103Y-99887643I1200001J0D01*
G01*
X127996896Y-99887644D02*
G75*
G02*
X128989999Y-101069673I-206896J-1182029D01*
G01*
X126290000Y-96958000D02*
G75*
G02*
X127790000Y-96958000I750000J0D01*
G01*
X131290000Y-96958000D02*
G75*
G02*
X132790000Y-96958000I750000J0D01*
G01*
X131290000Y-99641387D02*
G75*
G02*
X131083103Y-99887643I-250000J0D01*
G01*
X130089998Y-101069673D02*
G75*
G02*
X128989999Y-101069673I-549999J-1038327D01*
G01*
X126290000Y-99641387D02*
G75*
G02*
X126083103Y-99887643I-250000J0D01*
G01*
X125089999Y-101069673D02*
G75*
G02*
X126083103Y-99887643I1200001J0D01*
G01*
X125089999Y-101069673D02*
G75*
G02*
X123989999Y-101069673I-549999J-1038328D01*
G01*
X122996896Y-99887643D02*
G75*
G02*
X123989999Y-101069673I-206897J-1182030D01*
G01*
X122996897Y-99887643D02*
G75*
G02*
X122790000Y-99641387I43103J246256D01*
G01*
X127996897Y-99887643D02*
G75*
G02*
X127790000Y-99641387I43103J246256D01*
G01*
G04 #@! TO.C,U3*
X67080000Y-118195000D02*
X95480000Y-118195000D01*
X95480000Y-118195000D02*
X95480000Y-92625000D01*
X95480000Y-92625000D02*
X67080000Y-92625000D01*
D12*
G36*
X66040000Y-93345000D02*
G01*
X66040000Y-94615000D01*
X66675000Y-93980000D01*
X66040000Y-93345000D01*
G37*
X66040000Y-93345000D02*
X66040000Y-94615000D01*
X66675000Y-93980000D01*
X66040000Y-93345000D01*
D14*
X67080000Y-118195000D02*
X67080000Y-92625000D01*
G04 #@! TO.C,HS3*
X145450000Y-97558001D02*
X145650000Y-97358001D01*
X145650000Y-98158001D02*
X145450000Y-97958001D01*
X145450000Y-97158000D02*
X145650000Y-96958000D01*
X145650000Y-97358001D02*
X145450000Y-97158000D01*
X145650000Y-97758001D02*
X145450000Y-97558001D01*
X145450000Y-97958001D02*
X145650000Y-97758001D01*
X145650000Y-98558001D02*
X145450000Y-98358001D01*
X145450000Y-98358001D02*
X145650000Y-98158001D01*
X150450000Y-99158001D02*
X150650000Y-98958001D01*
X149150000Y-98558001D02*
X149350000Y-98758001D01*
X154350000Y-97158000D02*
X154150000Y-97358001D01*
X154350000Y-98358001D02*
X154150000Y-98558001D01*
X155650000Y-98558001D02*
X155450000Y-98358001D01*
X150650000Y-97358001D02*
X150450000Y-97158000D01*
X154150000Y-99358001D02*
X154150000Y-99641387D01*
X154350000Y-98758001D02*
X154150000Y-98958001D01*
X155450000Y-97158000D02*
X155650000Y-96958000D01*
X149350000Y-97558001D02*
X149150000Y-97758001D01*
X154350000Y-97958001D02*
X154150000Y-98158001D01*
X150650000Y-99358001D02*
X150450000Y-99158001D01*
X150650000Y-97758001D02*
X150450000Y-97558001D01*
X150650000Y-98958001D02*
X150450000Y-98758001D01*
X154150000Y-98958001D02*
X154350000Y-99158001D01*
X154350000Y-97558001D02*
X154150000Y-97758001D01*
X154150000Y-98558001D02*
X154350000Y-98758001D01*
X150450000Y-97158000D02*
X150650000Y-96958000D01*
X155650000Y-98158001D02*
X155450000Y-97958001D01*
X155450000Y-97558001D02*
X155650000Y-97358001D01*
X149150000Y-97758001D02*
X149350000Y-97958001D01*
X154150000Y-98158001D02*
X154350000Y-98358001D01*
X149350000Y-99158001D02*
X149150000Y-99358001D01*
X150450000Y-97958001D02*
X150650000Y-97758001D01*
X150450000Y-98358001D02*
X150650000Y-98158001D01*
X149150000Y-96958000D02*
X149350000Y-97158000D01*
X149350000Y-98358001D02*
X149150000Y-98558001D01*
X149350000Y-97158000D02*
X149150000Y-97358001D01*
X149350000Y-97958001D02*
X149150000Y-98158001D01*
X145450000Y-98758001D02*
X145650000Y-98558001D01*
X150450000Y-97558001D02*
X150650000Y-97358001D01*
X150650000Y-98158001D02*
X150450000Y-97958001D01*
X155450000Y-98358001D02*
X155650000Y-98158001D01*
X154150000Y-97758001D02*
X154350000Y-97958001D01*
X154150000Y-97358001D02*
X154350000Y-97558001D01*
X155650000Y-97758001D02*
X155450000Y-97558001D01*
X149150000Y-98958001D02*
X149350000Y-99158001D01*
X145650000Y-98958001D02*
X145450000Y-98758001D01*
X149150000Y-98158001D02*
X149350000Y-98358001D01*
X145450000Y-99158001D02*
X145650000Y-98958001D01*
X149150000Y-97358001D02*
X149350000Y-97558001D01*
X154150000Y-96958000D02*
X154350000Y-97158000D01*
X145650000Y-99641387D02*
X145650000Y-99358001D01*
X150650000Y-99641387D02*
X150650000Y-99358001D01*
X150450000Y-98758001D02*
X150650000Y-98558001D01*
X155450000Y-97958001D02*
X155650000Y-97758001D01*
X155650000Y-97358001D02*
X155450000Y-97158000D01*
X154350000Y-99158001D02*
X154150000Y-99358001D01*
X145650000Y-99358001D02*
X145450000Y-99158001D01*
X149150000Y-99358001D02*
X149150000Y-99641387D01*
X150650000Y-98558001D02*
X150450000Y-98358001D01*
X149350000Y-98758001D02*
X149150000Y-98958001D01*
X160450000Y-98358001D02*
X160650000Y-98158001D01*
X160450000Y-98758001D02*
X160650000Y-98558001D01*
X144349999Y-103158001D02*
X144150000Y-103358001D01*
X160450000Y-100358001D02*
X160650000Y-100158001D01*
X144150000Y-102958001D02*
X144349999Y-103158001D01*
X160650000Y-99758001D02*
X160450000Y-99558001D01*
X155450000Y-98758001D02*
X155650000Y-98558001D01*
X155650000Y-98958001D02*
X155450000Y-98758001D01*
X159150000Y-97758001D02*
X159349999Y-97958001D01*
X159349999Y-97558001D02*
X159150000Y-97758001D01*
X160650000Y-98158001D02*
X160450000Y-97958001D01*
X160450000Y-97958001D02*
X160650000Y-97758001D01*
X160450000Y-99158001D02*
X160650000Y-98958001D01*
X160650000Y-102958001D02*
X160450000Y-102758001D01*
X160450000Y-102358001D02*
X160650000Y-102158001D01*
X160650000Y-103358001D02*
X160450000Y-103158001D01*
X144150000Y-103358001D02*
X144150000Y-104858000D01*
X159349999Y-98758001D02*
X159150000Y-98958001D01*
X160450000Y-100758001D02*
X160650000Y-100558001D01*
X144349999Y-102758001D02*
X144150000Y-102958001D01*
X160650000Y-100958001D02*
X160450000Y-100758001D01*
X155450000Y-99158001D02*
X155650000Y-98958001D01*
X160650000Y-104858000D02*
X160650000Y-103358001D01*
X155650000Y-99358001D02*
X155450000Y-99158001D01*
X155650000Y-99641387D02*
X155650000Y-99358001D01*
X160450000Y-101558001D02*
X160650000Y-101358001D01*
X160650000Y-97758001D02*
X160450000Y-97558001D01*
X160450000Y-101158001D02*
X160650000Y-100958001D01*
X159150000Y-98158001D02*
X159349999Y-98358001D01*
X160650000Y-99358001D02*
X160450000Y-99158001D01*
X159349999Y-97158000D02*
X159150000Y-97358001D01*
X159150000Y-98558001D02*
X159349999Y-98758001D01*
X160650000Y-102558001D02*
X160450000Y-102358001D01*
X160650000Y-101358001D02*
X160450000Y-101158001D01*
X159150000Y-98958001D02*
X159349999Y-99158001D01*
X159150000Y-97358001D02*
X159349999Y-97558001D01*
X159349999Y-97958001D02*
X159150000Y-98158001D01*
X160450000Y-101958001D02*
X160650000Y-101758001D01*
X160650000Y-100158001D02*
X160450000Y-99958001D01*
X144890000Y-105608000D02*
X159890000Y-105608000D01*
X160650000Y-98958001D02*
X160450000Y-98758001D01*
X159150000Y-96958000D02*
X159349999Y-97158000D01*
X160650000Y-97358001D02*
X160450000Y-97158000D01*
X160450000Y-102758001D02*
X160650000Y-102558001D01*
X160650000Y-98558001D02*
X160450000Y-98358001D01*
X159150000Y-99358001D02*
X159150000Y-99641387D01*
X160450000Y-99958001D02*
X160650000Y-99758001D01*
X160450000Y-103158001D02*
X160650000Y-102958001D01*
X160450000Y-97558001D02*
X160650000Y-97358001D01*
X159349999Y-99158001D02*
X159150000Y-99358001D01*
X160650000Y-100558001D02*
X160450000Y-100358001D01*
X160450000Y-99558001D02*
X160650000Y-99358001D01*
X160450000Y-97158000D02*
X160650000Y-96958001D01*
X160650000Y-101758001D02*
X160450000Y-101558001D01*
X160650000Y-102158001D02*
X160450000Y-101958001D01*
X159349999Y-98358001D02*
X159150000Y-98558001D01*
X144349999Y-101558001D02*
X144150000Y-101758001D01*
X144150000Y-101358001D02*
X144349999Y-101558001D01*
X144349999Y-101158001D02*
X144150000Y-101358001D01*
X144349999Y-100758001D02*
X144150000Y-100958001D01*
X144150000Y-100558001D02*
X144349999Y-100758001D01*
X144349999Y-100358001D02*
X144150000Y-100558001D01*
X144150000Y-100158001D02*
X144349999Y-100358001D01*
X144349999Y-99558001D02*
X144150000Y-99758001D01*
X144150000Y-99358001D02*
X144349999Y-99558001D01*
X144349999Y-98758001D02*
X144150000Y-98958001D01*
X144150000Y-98558001D02*
X144349999Y-98758001D01*
X144150000Y-102558001D02*
X144349999Y-102758001D01*
X144150000Y-99758001D02*
X144349999Y-99958001D01*
X144150000Y-100958001D02*
X144349999Y-101158001D01*
X144150000Y-98958001D02*
X144349999Y-99158001D01*
X144349999Y-99158001D02*
X144150000Y-99358001D01*
X144349999Y-102358001D02*
X144150000Y-102558001D01*
X144150000Y-102158001D02*
X144349999Y-102358001D01*
X144150000Y-101758001D02*
X144349999Y-101958001D01*
X144349999Y-99958001D02*
X144150000Y-100158001D01*
X144349999Y-101958001D02*
X144150000Y-102158001D01*
X144150000Y-98158001D02*
X144349999Y-98358001D01*
X144349999Y-97158000D02*
X144150000Y-97358001D01*
X144150000Y-97758001D02*
X144349999Y-97958001D01*
X144150000Y-96958000D02*
X144349999Y-97158000D01*
X144150000Y-97358001D02*
X144349999Y-97558001D01*
X144349999Y-98358001D02*
X144150000Y-98558001D01*
X144349999Y-97958001D02*
X144150000Y-98158001D01*
X144349999Y-97558001D02*
X144150000Y-97758001D01*
X144150000Y-96958000D02*
G75*
G02*
X145650000Y-96958000I750000J0D01*
G01*
X159150000Y-96958001D02*
G75*
G02*
X160650000Y-96958001I750000J0D01*
G01*
X144890000Y-105608000D02*
G75*
G02*
X144140000Y-104858000I0J750000D01*
G01*
X160640000Y-104858000D02*
G75*
G02*
X159890000Y-105608000I-750000J0D01*
G01*
X159150000Y-99641387D02*
G75*
G02*
X158943103Y-99887643I-250000J0D01*
G01*
X157949999Y-101069673D02*
G75*
G02*
X158943103Y-99887643I1200001J0D01*
G01*
X155856896Y-99887642D02*
G75*
G02*
X155650000Y-99641387I43103J246255D01*
G01*
X155856896Y-99887642D02*
G75*
G02*
X156850000Y-101069673I-206897J-1182031D01*
G01*
X157949999Y-101069673D02*
G75*
G02*
X156850000Y-101069673I-549999J-1038327D01*
G01*
X152949999Y-101069673D02*
G75*
G02*
X153943103Y-99887643I1200001J0D01*
G01*
X150856896Y-99887644D02*
G75*
G02*
X151849999Y-101069673I-206896J-1182029D01*
G01*
X149150000Y-96958000D02*
G75*
G02*
X150650000Y-96958000I750000J0D01*
G01*
X154150000Y-96958000D02*
G75*
G02*
X155650000Y-96958000I750000J0D01*
G01*
X154150000Y-99641387D02*
G75*
G02*
X153943103Y-99887643I-250000J0D01*
G01*
X152949998Y-101069673D02*
G75*
G02*
X151849999Y-101069673I-549999J-1038327D01*
G01*
X149150000Y-99641387D02*
G75*
G02*
X148943103Y-99887643I-250000J0D01*
G01*
X147949999Y-101069673D02*
G75*
G02*
X148943103Y-99887643I1200001J0D01*
G01*
X147949999Y-101069673D02*
G75*
G02*
X146849999Y-101069673I-549999J-1038328D01*
G01*
X145856896Y-99887643D02*
G75*
G02*
X146849999Y-101069673I-206897J-1182030D01*
G01*
X145856897Y-99887643D02*
G75*
G02*
X145650000Y-99641387I43103J246256D01*
G01*
X150856897Y-99887643D02*
G75*
G02*
X150650000Y-99641387I43103J246256D01*
G01*
G04 #@! TO.C,HS4*
X145450000Y-68348001D02*
X145650000Y-68148001D01*
X145650000Y-68948001D02*
X145450000Y-68748001D01*
X145450000Y-67948000D02*
X145650000Y-67748000D01*
X145650000Y-68148001D02*
X145450000Y-67948000D01*
X145650000Y-68548001D02*
X145450000Y-68348001D01*
X145450000Y-68748001D02*
X145650000Y-68548001D01*
X145650000Y-69348001D02*
X145450000Y-69148001D01*
X145450000Y-69148001D02*
X145650000Y-68948001D01*
X150450000Y-69948001D02*
X150650000Y-69748001D01*
X149150000Y-69348001D02*
X149350000Y-69548001D01*
X154350000Y-67948000D02*
X154150000Y-68148001D01*
X154350000Y-69148001D02*
X154150000Y-69348001D01*
X155650000Y-69348001D02*
X155450000Y-69148001D01*
X150650000Y-68148001D02*
X150450000Y-67948000D01*
X154150000Y-70148001D02*
X154150000Y-70431387D01*
X154350000Y-69548001D02*
X154150000Y-69748001D01*
X155450000Y-67948000D02*
X155650000Y-67748000D01*
X149350000Y-68348001D02*
X149150000Y-68548001D01*
X154350000Y-68748001D02*
X154150000Y-68948001D01*
X150650000Y-70148001D02*
X150450000Y-69948001D01*
X150650000Y-68548001D02*
X150450000Y-68348001D01*
X150650000Y-69748001D02*
X150450000Y-69548001D01*
X154150000Y-69748001D02*
X154350000Y-69948001D01*
X154350000Y-68348001D02*
X154150000Y-68548001D01*
X154150000Y-69348001D02*
X154350000Y-69548001D01*
X150450000Y-67948000D02*
X150650000Y-67748000D01*
X155650000Y-68948001D02*
X155450000Y-68748001D01*
X155450000Y-68348001D02*
X155650000Y-68148001D01*
X149150000Y-68548001D02*
X149350000Y-68748001D01*
X154150000Y-68948001D02*
X154350000Y-69148001D01*
X149350000Y-69948001D02*
X149150000Y-70148001D01*
X150450000Y-68748001D02*
X150650000Y-68548001D01*
X150450000Y-69148001D02*
X150650000Y-68948001D01*
X149150000Y-67748000D02*
X149350000Y-67948000D01*
X149350000Y-69148001D02*
X149150000Y-69348001D01*
X149350000Y-67948000D02*
X149150000Y-68148001D01*
X149350000Y-68748001D02*
X149150000Y-68948001D01*
X145450000Y-69548001D02*
X145650000Y-69348001D01*
X150450000Y-68348001D02*
X150650000Y-68148001D01*
X150650000Y-68948001D02*
X150450000Y-68748001D01*
X155450000Y-69148001D02*
X155650000Y-68948001D01*
X154150000Y-68548001D02*
X154350000Y-68748001D01*
X154150000Y-68148001D02*
X154350000Y-68348001D01*
X155650000Y-68548001D02*
X155450000Y-68348001D01*
X149150000Y-69748001D02*
X149350000Y-69948001D01*
X145650000Y-69748001D02*
X145450000Y-69548001D01*
X149150000Y-68948001D02*
X149350000Y-69148001D01*
X145450000Y-69948001D02*
X145650000Y-69748001D01*
X149150000Y-68148001D02*
X149350000Y-68348001D01*
X154150000Y-67748000D02*
X154350000Y-67948000D01*
X145650000Y-70431387D02*
X145650000Y-70148001D01*
X150650000Y-70431387D02*
X150650000Y-70148001D01*
X150450000Y-69548001D02*
X150650000Y-69348001D01*
X155450000Y-68748001D02*
X155650000Y-68548001D01*
X155650000Y-68148001D02*
X155450000Y-67948000D01*
X154350000Y-69948001D02*
X154150000Y-70148001D01*
X145650000Y-70148001D02*
X145450000Y-69948001D01*
X149150000Y-70148001D02*
X149150000Y-70431387D01*
X150650000Y-69348001D02*
X150450000Y-69148001D01*
X149350000Y-69548001D02*
X149150000Y-69748001D01*
X160450000Y-69148001D02*
X160650000Y-68948001D01*
X160450000Y-69548001D02*
X160650000Y-69348001D01*
X144349999Y-73948001D02*
X144150000Y-74148001D01*
X160450000Y-71148001D02*
X160650000Y-70948001D01*
X144150000Y-73748001D02*
X144349999Y-73948001D01*
X160650000Y-70548001D02*
X160450000Y-70348001D01*
X155450000Y-69548001D02*
X155650000Y-69348001D01*
X155650000Y-69748001D02*
X155450000Y-69548001D01*
X159150000Y-68548001D02*
X159349999Y-68748001D01*
X159349999Y-68348001D02*
X159150000Y-68548001D01*
X160650000Y-68948001D02*
X160450000Y-68748001D01*
X160450000Y-68748001D02*
X160650000Y-68548001D01*
X160450000Y-69948001D02*
X160650000Y-69748001D01*
X160650000Y-73748001D02*
X160450000Y-73548001D01*
X160450000Y-73148001D02*
X160650000Y-72948001D01*
X160650000Y-74148001D02*
X160450000Y-73948001D01*
X144150000Y-74148001D02*
X144150000Y-75648000D01*
X159349999Y-69548001D02*
X159150000Y-69748001D01*
X160450000Y-71548001D02*
X160650000Y-71348001D01*
X144349999Y-73548001D02*
X144150000Y-73748001D01*
X160650000Y-71748001D02*
X160450000Y-71548001D01*
X155450000Y-69948001D02*
X155650000Y-69748001D01*
X160650000Y-75648000D02*
X160650000Y-74148001D01*
X155650000Y-70148001D02*
X155450000Y-69948001D01*
X155650000Y-70431387D02*
X155650000Y-70148001D01*
X160450000Y-72348001D02*
X160650000Y-72148001D01*
X160650000Y-68548001D02*
X160450000Y-68348001D01*
X160450000Y-71948001D02*
X160650000Y-71748001D01*
X159150000Y-68948001D02*
X159349999Y-69148001D01*
X160650000Y-70148001D02*
X160450000Y-69948001D01*
X159349999Y-67948000D02*
X159150000Y-68148001D01*
X159150000Y-69348001D02*
X159349999Y-69548001D01*
X160650000Y-73348001D02*
X160450000Y-73148001D01*
X160650000Y-72148001D02*
X160450000Y-71948001D01*
X159150000Y-69748001D02*
X159349999Y-69948001D01*
X159150000Y-68148001D02*
X159349999Y-68348001D01*
X159349999Y-68748001D02*
X159150000Y-68948001D01*
X160450000Y-72748001D02*
X160650000Y-72548001D01*
X160650000Y-70948001D02*
X160450000Y-70748001D01*
X144890000Y-76398000D02*
X159890000Y-76398000D01*
X160650000Y-69748001D02*
X160450000Y-69548001D01*
X159150000Y-67748000D02*
X159349999Y-67948000D01*
X160650000Y-68148001D02*
X160450000Y-67948000D01*
X160450000Y-73548001D02*
X160650000Y-73348001D01*
X160650000Y-69348001D02*
X160450000Y-69148001D01*
X159150000Y-70148001D02*
X159150000Y-70431387D01*
X160450000Y-70748001D02*
X160650000Y-70548001D01*
X160450000Y-73948001D02*
X160650000Y-73748001D01*
X160450000Y-68348001D02*
X160650000Y-68148001D01*
X159349999Y-69948001D02*
X159150000Y-70148001D01*
X160650000Y-71348001D02*
X160450000Y-71148001D01*
X160450000Y-70348001D02*
X160650000Y-70148001D01*
X160450000Y-67948000D02*
X160650000Y-67748001D01*
X160650000Y-72548001D02*
X160450000Y-72348001D01*
X160650000Y-72948001D02*
X160450000Y-72748001D01*
X159349999Y-69148001D02*
X159150000Y-69348001D01*
X144349999Y-72348001D02*
X144150000Y-72548001D01*
X144150000Y-72148001D02*
X144349999Y-72348001D01*
X144349999Y-71948001D02*
X144150000Y-72148001D01*
X144349999Y-71548001D02*
X144150000Y-71748001D01*
X144150000Y-71348001D02*
X144349999Y-71548001D01*
X144349999Y-71148001D02*
X144150000Y-71348001D01*
X144150000Y-70948001D02*
X144349999Y-71148001D01*
X144349999Y-70348001D02*
X144150000Y-70548001D01*
X144150000Y-70148001D02*
X144349999Y-70348001D01*
X144349999Y-69548001D02*
X144150000Y-69748001D01*
X144150000Y-69348001D02*
X144349999Y-69548001D01*
X144150000Y-73348001D02*
X144349999Y-73548001D01*
X144150000Y-70548001D02*
X144349999Y-70748001D01*
X144150000Y-71748001D02*
X144349999Y-71948001D01*
X144150000Y-69748001D02*
X144349999Y-69948001D01*
X144349999Y-69948001D02*
X144150000Y-70148001D01*
X144349999Y-73148001D02*
X144150000Y-73348001D01*
X144150000Y-72948001D02*
X144349999Y-73148001D01*
X144150000Y-72548001D02*
X144349999Y-72748001D01*
X144349999Y-70748001D02*
X144150000Y-70948001D01*
X144349999Y-72748001D02*
X144150000Y-72948001D01*
X144150000Y-68948001D02*
X144349999Y-69148001D01*
X144349999Y-67948000D02*
X144150000Y-68148001D01*
X144150000Y-68548001D02*
X144349999Y-68748001D01*
X144150000Y-67748000D02*
X144349999Y-67948000D01*
X144150000Y-68148001D02*
X144349999Y-68348001D01*
X144349999Y-69148001D02*
X144150000Y-69348001D01*
X144349999Y-68748001D02*
X144150000Y-68948001D01*
X144349999Y-68348001D02*
X144150000Y-68548001D01*
X144150000Y-67748000D02*
G75*
G02*
X145650000Y-67748000I750000J0D01*
G01*
X159150000Y-67748001D02*
G75*
G02*
X160650000Y-67748001I750000J0D01*
G01*
X144890000Y-76398000D02*
G75*
G02*
X144140000Y-75648000I0J750000D01*
G01*
X160640000Y-75648000D02*
G75*
G02*
X159890000Y-76398000I-750000J0D01*
G01*
X159150000Y-70431387D02*
G75*
G02*
X158943103Y-70677643I-250000J0D01*
G01*
X157949999Y-71859673D02*
G75*
G02*
X158943103Y-70677643I1200001J0D01*
G01*
X155856896Y-70677642D02*
G75*
G02*
X155650000Y-70431387I43103J246255D01*
G01*
X155856896Y-70677642D02*
G75*
G02*
X156850000Y-71859673I-206897J-1182031D01*
G01*
X157949999Y-71859673D02*
G75*
G02*
X156850000Y-71859673I-549999J-1038327D01*
G01*
X152949999Y-71859673D02*
G75*
G02*
X153943103Y-70677643I1200001J0D01*
G01*
X150856896Y-70677644D02*
G75*
G02*
X151849999Y-71859673I-206896J-1182029D01*
G01*
X149150000Y-67748000D02*
G75*
G02*
X150650000Y-67748000I750000J0D01*
G01*
X154150000Y-67748000D02*
G75*
G02*
X155650000Y-67748000I750000J0D01*
G01*
X154150000Y-70431387D02*
G75*
G02*
X153943103Y-70677643I-250000J0D01*
G01*
X152949998Y-71859673D02*
G75*
G02*
X151849999Y-71859673I-549999J-1038327D01*
G01*
X149150000Y-70431387D02*
G75*
G02*
X148943103Y-70677643I-250000J0D01*
G01*
X147949999Y-71859673D02*
G75*
G02*
X148943103Y-70677643I1200001J0D01*
G01*
X147949999Y-71859673D02*
G75*
G02*
X146849999Y-71859673I-549999J-1038328D01*
G01*
X145856896Y-70677643D02*
G75*
G02*
X146849999Y-71859673I-206897J-1182030D01*
G01*
X145856897Y-70677643D02*
G75*
G02*
X145650000Y-70431387I43103J246256D01*
G01*
X150856897Y-70677643D02*
G75*
G02*
X150650000Y-70431387I43103J246256D01*
G01*
G04 #@! TO.C,HS2*
X122590000Y-68348001D02*
X122790000Y-68148001D01*
X122790000Y-68948001D02*
X122590000Y-68748001D01*
X122590000Y-67948000D02*
X122790000Y-67748000D01*
X122790000Y-68148001D02*
X122590000Y-67948000D01*
X122790000Y-68548001D02*
X122590000Y-68348001D01*
X122590000Y-68748001D02*
X122790000Y-68548001D01*
X122790000Y-69348001D02*
X122590000Y-69148001D01*
X122590000Y-69148001D02*
X122790000Y-68948001D01*
X127590000Y-69948001D02*
X127790000Y-69748001D01*
X126290000Y-69348001D02*
X126490000Y-69548001D01*
X131490000Y-67948000D02*
X131290000Y-68148001D01*
X131490000Y-69148001D02*
X131290000Y-69348001D01*
X132790000Y-69348001D02*
X132590000Y-69148001D01*
X127790000Y-68148001D02*
X127590000Y-67948000D01*
X131290000Y-70148001D02*
X131290000Y-70431387D01*
X131490000Y-69548001D02*
X131290000Y-69748001D01*
X132590000Y-67948000D02*
X132790000Y-67748000D01*
X126490000Y-68348001D02*
X126290000Y-68548001D01*
X131490000Y-68748001D02*
X131290000Y-68948001D01*
X127790000Y-70148001D02*
X127590000Y-69948001D01*
X127790000Y-68548001D02*
X127590000Y-68348001D01*
X127790000Y-69748001D02*
X127590000Y-69548001D01*
X131290000Y-69748001D02*
X131490000Y-69948001D01*
X131490000Y-68348001D02*
X131290000Y-68548001D01*
X131290000Y-69348001D02*
X131490000Y-69548001D01*
X127590000Y-67948000D02*
X127790000Y-67748000D01*
X132790000Y-68948001D02*
X132590000Y-68748001D01*
X132590000Y-68348001D02*
X132790000Y-68148001D01*
X126290000Y-68548001D02*
X126490000Y-68748001D01*
X131290000Y-68948001D02*
X131490000Y-69148001D01*
X126490000Y-69948001D02*
X126290000Y-70148001D01*
X127590000Y-68748001D02*
X127790000Y-68548001D01*
X127590000Y-69148001D02*
X127790000Y-68948001D01*
X126290000Y-67748000D02*
X126490000Y-67948000D01*
X126490000Y-69148001D02*
X126290000Y-69348001D01*
X126490000Y-67948000D02*
X126290000Y-68148001D01*
X126490000Y-68748001D02*
X126290000Y-68948001D01*
X122590000Y-69548001D02*
X122790000Y-69348001D01*
X127590000Y-68348001D02*
X127790000Y-68148001D01*
X127790000Y-68948001D02*
X127590000Y-68748001D01*
X132590000Y-69148001D02*
X132790000Y-68948001D01*
X131290000Y-68548001D02*
X131490000Y-68748001D01*
X131290000Y-68148001D02*
X131490000Y-68348001D01*
X132790000Y-68548001D02*
X132590000Y-68348001D01*
X126290000Y-69748001D02*
X126490000Y-69948001D01*
X122790000Y-69748001D02*
X122590000Y-69548001D01*
X126290000Y-68948001D02*
X126490000Y-69148001D01*
X122590000Y-69948001D02*
X122790000Y-69748001D01*
X126290000Y-68148001D02*
X126490000Y-68348001D01*
X131290000Y-67748000D02*
X131490000Y-67948000D01*
X122790000Y-70431387D02*
X122790000Y-70148001D01*
X127790000Y-70431387D02*
X127790000Y-70148001D01*
X127590000Y-69548001D02*
X127790000Y-69348001D01*
X132590000Y-68748001D02*
X132790000Y-68548001D01*
X132790000Y-68148001D02*
X132590000Y-67948000D01*
X131490000Y-69948001D02*
X131290000Y-70148001D01*
X122790000Y-70148001D02*
X122590000Y-69948001D01*
X126290000Y-70148001D02*
X126290000Y-70431387D01*
X127790000Y-69348001D02*
X127590000Y-69148001D01*
X126490000Y-69548001D02*
X126290000Y-69748001D01*
X137590000Y-69148001D02*
X137790000Y-68948001D01*
X137590000Y-69548001D02*
X137790000Y-69348001D01*
X121489999Y-73948001D02*
X121290000Y-74148001D01*
X137590000Y-71148001D02*
X137790000Y-70948001D01*
X121290000Y-73748001D02*
X121489999Y-73948001D01*
X137790000Y-70548001D02*
X137590000Y-70348001D01*
X132590000Y-69548001D02*
X132790000Y-69348001D01*
X132790000Y-69748001D02*
X132590000Y-69548001D01*
X136290000Y-68548001D02*
X136489999Y-68748001D01*
X136489999Y-68348001D02*
X136290000Y-68548001D01*
X137790000Y-68948001D02*
X137590000Y-68748001D01*
X137590000Y-68748001D02*
X137790000Y-68548001D01*
X137590000Y-69948001D02*
X137790000Y-69748001D01*
X137790000Y-73748001D02*
X137590000Y-73548001D01*
X137590000Y-73148001D02*
X137790000Y-72948001D01*
X137790000Y-74148001D02*
X137590000Y-73948001D01*
X121290000Y-74148001D02*
X121290000Y-75648000D01*
X136489999Y-69548001D02*
X136290000Y-69748001D01*
X137590000Y-71548001D02*
X137790000Y-71348001D01*
X121489999Y-73548001D02*
X121290000Y-73748001D01*
X137790000Y-71748001D02*
X137590000Y-71548001D01*
X132590000Y-69948001D02*
X132790000Y-69748001D01*
X137790000Y-75648000D02*
X137790000Y-74148001D01*
X132790000Y-70148001D02*
X132590000Y-69948001D01*
X132790000Y-70431387D02*
X132790000Y-70148001D01*
X137590000Y-72348001D02*
X137790000Y-72148001D01*
X137790000Y-68548001D02*
X137590000Y-68348001D01*
X137590000Y-71948001D02*
X137790000Y-71748001D01*
X136290000Y-68948001D02*
X136489999Y-69148001D01*
X137790000Y-70148001D02*
X137590000Y-69948001D01*
X136489999Y-67948000D02*
X136290000Y-68148001D01*
X136290000Y-69348001D02*
X136489999Y-69548001D01*
X137790000Y-73348001D02*
X137590000Y-73148001D01*
X137790000Y-72148001D02*
X137590000Y-71948001D01*
X136290000Y-69748001D02*
X136489999Y-69948001D01*
X136290000Y-68148001D02*
X136489999Y-68348001D01*
X136489999Y-68748001D02*
X136290000Y-68948001D01*
X137590000Y-72748001D02*
X137790000Y-72548001D01*
X137790000Y-70948001D02*
X137590000Y-70748001D01*
X122030000Y-76398000D02*
X137030000Y-76398000D01*
X137790000Y-69748001D02*
X137590000Y-69548001D01*
X136290000Y-67748000D02*
X136489999Y-67948000D01*
X137790000Y-68148001D02*
X137590000Y-67948000D01*
X137590000Y-73548001D02*
X137790000Y-73348001D01*
X137790000Y-69348001D02*
X137590000Y-69148001D01*
X136290000Y-70148001D02*
X136290000Y-70431387D01*
X137590000Y-70748001D02*
X137790000Y-70548001D01*
X137590000Y-73948001D02*
X137790000Y-73748001D01*
X137590000Y-68348001D02*
X137790000Y-68148001D01*
X136489999Y-69948001D02*
X136290000Y-70148001D01*
X137790000Y-71348001D02*
X137590000Y-71148001D01*
X137590000Y-70348001D02*
X137790000Y-70148001D01*
X137590000Y-67948000D02*
X137790000Y-67748001D01*
X137790000Y-72548001D02*
X137590000Y-72348001D01*
X137790000Y-72948001D02*
X137590000Y-72748001D01*
X136489999Y-69148001D02*
X136290000Y-69348001D01*
X121489999Y-72348001D02*
X121290000Y-72548001D01*
X121290000Y-72148001D02*
X121489999Y-72348001D01*
X121489999Y-71948001D02*
X121290000Y-72148001D01*
X121489999Y-71548001D02*
X121290000Y-71748001D01*
X121290000Y-71348001D02*
X121489999Y-71548001D01*
X121489999Y-71148001D02*
X121290000Y-71348001D01*
X121290000Y-70948001D02*
X121489999Y-71148001D01*
X121489999Y-70348001D02*
X121290000Y-70548001D01*
X121290000Y-70148001D02*
X121489999Y-70348001D01*
X121489999Y-69548001D02*
X121290000Y-69748001D01*
X121290000Y-69348001D02*
X121489999Y-69548001D01*
X121290000Y-73348001D02*
X121489999Y-73548001D01*
X121290000Y-70548001D02*
X121489999Y-70748001D01*
X121290000Y-71748001D02*
X121489999Y-71948001D01*
X121290000Y-69748001D02*
X121489999Y-69948001D01*
X121489999Y-69948001D02*
X121290000Y-70148001D01*
X121489999Y-73148001D02*
X121290000Y-73348001D01*
X121290000Y-72948001D02*
X121489999Y-73148001D01*
X121290000Y-72548001D02*
X121489999Y-72748001D01*
X121489999Y-70748001D02*
X121290000Y-70948001D01*
X121489999Y-72748001D02*
X121290000Y-72948001D01*
X121290000Y-68948001D02*
X121489999Y-69148001D01*
X121489999Y-67948000D02*
X121290000Y-68148001D01*
X121290000Y-68548001D02*
X121489999Y-68748001D01*
X121290000Y-67748000D02*
X121489999Y-67948000D01*
X121290000Y-68148001D02*
X121489999Y-68348001D01*
X121489999Y-69148001D02*
X121290000Y-69348001D01*
X121489999Y-68748001D02*
X121290000Y-68948001D01*
X121489999Y-68348001D02*
X121290000Y-68548001D01*
X121290000Y-67748000D02*
G75*
G02*
X122790000Y-67748000I750000J0D01*
G01*
X136290000Y-67748001D02*
G75*
G02*
X137790000Y-67748001I750000J0D01*
G01*
X122030000Y-76398000D02*
G75*
G02*
X121280000Y-75648000I0J750000D01*
G01*
X137780000Y-75648000D02*
G75*
G02*
X137030000Y-76398000I-750000J0D01*
G01*
X136290000Y-70431387D02*
G75*
G02*
X136083103Y-70677643I-250000J0D01*
G01*
X135089999Y-71859673D02*
G75*
G02*
X136083103Y-70677643I1200001J0D01*
G01*
X132996896Y-70677642D02*
G75*
G02*
X132790000Y-70431387I43103J246255D01*
G01*
X132996896Y-70677642D02*
G75*
G02*
X133990000Y-71859673I-206897J-1182031D01*
G01*
X135089999Y-71859673D02*
G75*
G02*
X133990000Y-71859673I-549999J-1038327D01*
G01*
X130089999Y-71859673D02*
G75*
G02*
X131083103Y-70677643I1200001J0D01*
G01*
X127996896Y-70677644D02*
G75*
G02*
X128989999Y-71859673I-206896J-1182029D01*
G01*
X126290000Y-67748000D02*
G75*
G02*
X127790000Y-67748000I750000J0D01*
G01*
X131290000Y-67748000D02*
G75*
G02*
X132790000Y-67748000I750000J0D01*
G01*
X131290000Y-70431387D02*
G75*
G02*
X131083103Y-70677643I-250000J0D01*
G01*
X130089998Y-71859673D02*
G75*
G02*
X128989999Y-71859673I-549999J-1038327D01*
G01*
X126290000Y-70431387D02*
G75*
G02*
X126083103Y-70677643I-250000J0D01*
G01*
X125089999Y-71859673D02*
G75*
G02*
X126083103Y-70677643I1200001J0D01*
G01*
X125089999Y-71859673D02*
G75*
G02*
X123989999Y-71859673I-549999J-1038328D01*
G01*
X122996896Y-70677643D02*
G75*
G02*
X123989999Y-71859673I-206897J-1182030D01*
G01*
X122996897Y-70677643D02*
G75*
G02*
X122790000Y-70431387I43103J246256D01*
G01*
X127996897Y-70677643D02*
G75*
G02*
X127790000Y-70431387I43103J246256D01*
G01*
G04 #@! TO.C,J1*
X112670000Y-121920000D02*
G75*
G03*
X112670000Y-121920000I-2180000J0D01*
G01*
X117750000Y-121920000D02*
G75*
G03*
X117750000Y-121920000I-2180000J0D01*
G01*
X107890000Y-126720000D02*
X118170000Y-126720000D01*
X107890000Y-124220000D02*
X118170000Y-124220000D01*
X107890000Y-118020000D02*
X118170000Y-118020000D01*
X107890000Y-115960000D02*
X118170000Y-115960000D01*
X107890000Y-127280000D02*
X118170000Y-127280000D01*
X107890000Y-115960000D02*
X107890000Y-127280000D01*
X118170000Y-115960000D02*
X118170000Y-127280000D01*
X112144000Y-120532000D02*
X112037000Y-120639000D01*
X109208000Y-123467000D02*
X109102000Y-123574000D01*
X111878000Y-120266000D02*
X111771000Y-120373000D01*
X108942000Y-123201000D02*
X108836000Y-123308000D01*
X117224000Y-120532000D02*
X116829000Y-120928000D01*
X114563000Y-123194000D02*
X114183000Y-123574000D01*
X116958000Y-120266000D02*
X116578000Y-120646000D01*
X114312000Y-122912000D02*
X113917000Y-123308000D01*
X107650000Y-126780000D02*
X107650000Y-127520000D01*
X107650000Y-127520000D02*
X108150000Y-127520000D01*
G04 #@! TO.C,J2*
X124100000Y-121920000D02*
G75*
G03*
X124100000Y-121920000I-2180000J0D01*
G01*
X129180000Y-121920000D02*
G75*
G03*
X129180000Y-121920000I-2180000J0D01*
G01*
X119320000Y-126720000D02*
X129600000Y-126720000D01*
X119320000Y-124220000D02*
X129600000Y-124220000D01*
X119320000Y-118020000D02*
X129600000Y-118020000D01*
X119320000Y-115960000D02*
X129600000Y-115960000D01*
X119320000Y-127280000D02*
X129600000Y-127280000D01*
X119320000Y-115960000D02*
X119320000Y-127280000D01*
X129600000Y-115960000D02*
X129600000Y-127280000D01*
X123574000Y-120532000D02*
X123467000Y-120639000D01*
X120638000Y-123467000D02*
X120532000Y-123574000D01*
X123308000Y-120266000D02*
X123201000Y-120373000D01*
X120372000Y-123201000D02*
X120266000Y-123308000D01*
X128654000Y-120532000D02*
X128259000Y-120928000D01*
X125993000Y-123194000D02*
X125613000Y-123574000D01*
X128388000Y-120266000D02*
X128008000Y-120646000D01*
X125742000Y-122912000D02*
X125347000Y-123308000D01*
X119080000Y-126780000D02*
X119080000Y-127520000D01*
X119080000Y-127520000D02*
X119580000Y-127520000D01*
G04 #@! TO.C,J3*
X130510000Y-127520000D02*
X131010000Y-127520000D01*
X130510000Y-126780000D02*
X130510000Y-127520000D01*
X137172000Y-122912000D02*
X136777000Y-123308000D01*
X139818000Y-120266000D02*
X139438000Y-120646000D01*
X137423000Y-123194000D02*
X137043000Y-123574000D01*
X140084000Y-120532000D02*
X139689000Y-120928000D01*
X131802000Y-123201000D02*
X131696000Y-123308000D01*
X134738000Y-120266000D02*
X134631000Y-120373000D01*
X132068000Y-123467000D02*
X131962000Y-123574000D01*
X135004000Y-120532000D02*
X134897000Y-120639000D01*
X141030000Y-115960000D02*
X141030000Y-127280000D01*
X130750000Y-115960000D02*
X130750000Y-127280000D01*
X130750000Y-127280000D02*
X141030000Y-127280000D01*
X130750000Y-115960000D02*
X141030000Y-115960000D01*
X130750000Y-118020000D02*
X141030000Y-118020000D01*
X130750000Y-124220000D02*
X141030000Y-124220000D01*
X130750000Y-126720000D02*
X141030000Y-126720000D01*
X140610000Y-121920000D02*
G75*
G03*
X140610000Y-121920000I-2180000J0D01*
G01*
X135530000Y-121920000D02*
G75*
G03*
X135530000Y-121920000I-2180000J0D01*
G01*
G04 #@! TO.C,J4*
X146960000Y-121920000D02*
G75*
G03*
X146960000Y-121920000I-2180000J0D01*
G01*
X152040000Y-121920000D02*
G75*
G03*
X152040000Y-121920000I-2180000J0D01*
G01*
X142180000Y-126720000D02*
X152460000Y-126720000D01*
X142180000Y-124220000D02*
X152460000Y-124220000D01*
X142180000Y-118020000D02*
X152460000Y-118020000D01*
X142180000Y-115960000D02*
X152460000Y-115960000D01*
X142180000Y-127280000D02*
X152460000Y-127280000D01*
X142180000Y-115960000D02*
X142180000Y-127280000D01*
X152460000Y-115960000D02*
X152460000Y-127280000D01*
X146434000Y-120532000D02*
X146327000Y-120639000D01*
X143498000Y-123467000D02*
X143392000Y-123574000D01*
X146168000Y-120266000D02*
X146061000Y-120373000D01*
X143232000Y-123201000D02*
X143126000Y-123308000D01*
X151514000Y-120532000D02*
X151119000Y-120928000D01*
X148853000Y-123194000D02*
X148473000Y-123574000D01*
X151248000Y-120266000D02*
X150868000Y-120646000D01*
X148602000Y-122912000D02*
X148207000Y-123308000D01*
X141940000Y-126780000D02*
X141940000Y-127520000D01*
X141940000Y-127520000D02*
X142440000Y-127520000D01*
G04 #@! TO.C,J5*
X153370000Y-127520000D02*
X153870000Y-127520000D01*
X153370000Y-126780000D02*
X153370000Y-127520000D01*
X160032000Y-122912000D02*
X159637000Y-123308000D01*
X162678000Y-120266000D02*
X162298000Y-120646000D01*
X160283000Y-123194000D02*
X159903000Y-123574000D01*
X162944000Y-120532000D02*
X162549000Y-120928000D01*
X154662000Y-123201000D02*
X154556000Y-123308000D01*
X157598000Y-120266000D02*
X157491000Y-120373000D01*
X154928000Y-123467000D02*
X154822000Y-123574000D01*
X157864000Y-120532000D02*
X157757000Y-120639000D01*
X163890000Y-115960000D02*
X163890000Y-127280000D01*
X153610000Y-115960000D02*
X153610000Y-127280000D01*
X153610000Y-127280000D02*
X163890000Y-127280000D01*
X153610000Y-115960000D02*
X163890000Y-115960000D01*
X153610000Y-118020000D02*
X163890000Y-118020000D01*
X153610000Y-124220000D02*
X163890000Y-124220000D01*
X153610000Y-126720000D02*
X163890000Y-126720000D01*
X163470000Y-121920000D02*
G75*
G03*
X163470000Y-121920000I-2180000J0D01*
G01*
X158390000Y-121920000D02*
G75*
G03*
X158390000Y-121920000I-2180000J0D01*
G01*
G04 #@! TO.C,Q1*
X124420000Y-105950000D02*
X134660000Y-105950000D01*
X124420000Y-110591000D02*
X134660000Y-110591000D01*
X124420000Y-105950000D02*
X124420000Y-110591000D01*
X134660000Y-105950000D02*
X134660000Y-110591000D01*
X124420000Y-107460000D02*
X134660000Y-107460000D01*
X127690000Y-105950000D02*
X127690000Y-107460000D01*
X131391000Y-105950000D02*
X131391000Y-107460000D01*
G04 #@! TO.C,Q2*
X131391000Y-76740000D02*
X131391000Y-78250000D01*
X127690000Y-76740000D02*
X127690000Y-78250000D01*
X124420000Y-78250000D02*
X134660000Y-78250000D01*
X134660000Y-76740000D02*
X134660000Y-81381000D01*
X124420000Y-76740000D02*
X124420000Y-81381000D01*
X124420000Y-81381000D02*
X134660000Y-81381000D01*
X124420000Y-76740000D02*
X134660000Y-76740000D01*
G04 #@! TO.C,Q3*
X154251000Y-105950000D02*
X154251000Y-107460000D01*
X150550000Y-105950000D02*
X150550000Y-107460000D01*
X147280000Y-107460000D02*
X157520000Y-107460000D01*
X157520000Y-105950000D02*
X157520000Y-110591000D01*
X147280000Y-105950000D02*
X147280000Y-110591000D01*
X147280000Y-110591000D02*
X157520000Y-110591000D01*
X147280000Y-105950000D02*
X157520000Y-105950000D01*
G04 #@! TO.C,Q4*
X147280000Y-76740000D02*
X157520000Y-76740000D01*
X147280000Y-81381000D02*
X157520000Y-81381000D01*
X147280000Y-76740000D02*
X147280000Y-81381000D01*
X157520000Y-76740000D02*
X157520000Y-81381000D01*
X147280000Y-78250000D02*
X157520000Y-78250000D01*
X150550000Y-76740000D02*
X150550000Y-78250000D01*
X154251000Y-76740000D02*
X154251000Y-78250000D01*
G04 #@! TO.C,U4*
X120585000Y-83165000D02*
X117135000Y-83165000D01*
X120585000Y-83165000D02*
X122535000Y-83165000D01*
X120585000Y-88285000D02*
X118635000Y-88285000D01*
X120585000Y-88285000D02*
X122535000Y-88285000D01*
G04 #@! TO.C,U5*
X143445000Y-88285000D02*
X145395000Y-88285000D01*
X143445000Y-88285000D02*
X141495000Y-88285000D01*
X143445000Y-83165000D02*
X145395000Y-83165000D01*
X143445000Y-83165000D02*
X139995000Y-83165000D01*
G04 #@! TO.C,C2*
X101822500Y-112695000D02*
X105907500Y-112695000D01*
X101822500Y-110825000D02*
X101822500Y-112695000D01*
X105907500Y-110825000D02*
X101822500Y-110825000D01*
G04 #@! TO.C,C3*
D12*
X110003333Y-110212142D02*
X109955714Y-110259761D01*
X109812857Y-110307380D01*
X109717619Y-110307380D01*
X109574761Y-110259761D01*
X109479523Y-110164523D01*
X109431904Y-110069285D01*
X109384285Y-109878809D01*
X109384285Y-109735952D01*
X109431904Y-109545476D01*
X109479523Y-109450238D01*
X109574761Y-109355000D01*
X109717619Y-109307380D01*
X109812857Y-109307380D01*
X109955714Y-109355000D01*
X110003333Y-109402619D01*
X110336666Y-109307380D02*
X110955714Y-109307380D01*
X110622380Y-109688333D01*
X110765238Y-109688333D01*
X110860476Y-109735952D01*
X110908095Y-109783571D01*
X110955714Y-109878809D01*
X110955714Y-110116904D01*
X110908095Y-110212142D01*
X110860476Y-110259761D01*
X110765238Y-110307380D01*
X110479523Y-110307380D01*
X110384285Y-110259761D01*
X110336666Y-110212142D01*
G04 #@! TO.C,C6*
X146518333Y-90527142D02*
X146470714Y-90574761D01*
X146327857Y-90622380D01*
X146232619Y-90622380D01*
X146089761Y-90574761D01*
X145994523Y-90479523D01*
X145946904Y-90384285D01*
X145899285Y-90193809D01*
X145899285Y-90050952D01*
X145946904Y-89860476D01*
X145994523Y-89765238D01*
X146089761Y-89670000D01*
X146232619Y-89622380D01*
X146327857Y-89622380D01*
X146470714Y-89670000D01*
X146518333Y-89717619D01*
X147375476Y-89622380D02*
X147185000Y-89622380D01*
X147089761Y-89670000D01*
X147042142Y-89717619D01*
X146946904Y-89860476D01*
X146899285Y-90050952D01*
X146899285Y-90431904D01*
X146946904Y-90527142D01*
X146994523Y-90574761D01*
X147089761Y-90622380D01*
X147280238Y-90622380D01*
X147375476Y-90574761D01*
X147423095Y-90527142D01*
X147470714Y-90431904D01*
X147470714Y-90193809D01*
X147423095Y-90098571D01*
X147375476Y-90050952D01*
X147280238Y-90003333D01*
X147089761Y-90003333D01*
X146994523Y-90050952D01*
X146946904Y-90098571D01*
X146899285Y-90193809D01*
G04 #@! TO.C,C4*
X123658333Y-90527142D02*
X123610714Y-90574761D01*
X123467857Y-90622380D01*
X123372619Y-90622380D01*
X123229761Y-90574761D01*
X123134523Y-90479523D01*
X123086904Y-90384285D01*
X123039285Y-90193809D01*
X123039285Y-90050952D01*
X123086904Y-89860476D01*
X123134523Y-89765238D01*
X123229761Y-89670000D01*
X123372619Y-89622380D01*
X123467857Y-89622380D01*
X123610714Y-89670000D01*
X123658333Y-89717619D01*
X124515476Y-89955714D02*
X124515476Y-90622380D01*
X124277380Y-89574761D02*
X124039285Y-90289047D01*
X124658333Y-90289047D01*
G04 #@! TO.C,R7*
X152233333Y-85184880D02*
X151900000Y-84708690D01*
X151661904Y-85184880D02*
X151661904Y-84184880D01*
X152042857Y-84184880D01*
X152138095Y-84232500D01*
X152185714Y-84280119D01*
X152233333Y-84375357D01*
X152233333Y-84518214D01*
X152185714Y-84613452D01*
X152138095Y-84661071D01*
X152042857Y-84708690D01*
X151661904Y-84708690D01*
X152566666Y-84184880D02*
X153233333Y-84184880D01*
X152804761Y-85184880D01*
G04 #@! TO.C,R5*
X129373333Y-84907380D02*
X129040000Y-84431190D01*
X128801904Y-84907380D02*
X128801904Y-83907380D01*
X129182857Y-83907380D01*
X129278095Y-83955000D01*
X129325714Y-84002619D01*
X129373333Y-84097857D01*
X129373333Y-84240714D01*
X129325714Y-84335952D01*
X129278095Y-84383571D01*
X129182857Y-84431190D01*
X128801904Y-84431190D01*
X130278095Y-83907380D02*
X129801904Y-83907380D01*
X129754285Y-84383571D01*
X129801904Y-84335952D01*
X129897142Y-84288333D01*
X130135238Y-84288333D01*
X130230476Y-84335952D01*
X130278095Y-84383571D01*
X130325714Y-84478809D01*
X130325714Y-84716904D01*
X130278095Y-84812142D01*
X130230476Y-84859761D01*
X130135238Y-84907380D01*
X129897142Y-84907380D01*
X129801904Y-84859761D01*
X129754285Y-84812142D01*
G04 #@! TO.C,R6*
X152233333Y-90264880D02*
X151900000Y-89788690D01*
X151661904Y-90264880D02*
X151661904Y-89264880D01*
X152042857Y-89264880D01*
X152138095Y-89312500D01*
X152185714Y-89360119D01*
X152233333Y-89455357D01*
X152233333Y-89598214D01*
X152185714Y-89693452D01*
X152138095Y-89741071D01*
X152042857Y-89788690D01*
X151661904Y-89788690D01*
X153090476Y-89264880D02*
X152900000Y-89264880D01*
X152804761Y-89312500D01*
X152757142Y-89360119D01*
X152661904Y-89502976D01*
X152614285Y-89693452D01*
X152614285Y-90074404D01*
X152661904Y-90169642D01*
X152709523Y-90217261D01*
X152804761Y-90264880D01*
X152995238Y-90264880D01*
X153090476Y-90217261D01*
X153138095Y-90169642D01*
X153185714Y-90074404D01*
X153185714Y-89836309D01*
X153138095Y-89741071D01*
X153090476Y-89693452D01*
X152995238Y-89645833D01*
X152804761Y-89645833D01*
X152709523Y-89693452D01*
X152661904Y-89741071D01*
X152614285Y-89836309D01*
G04 #@! TO.C,R4*
X129373333Y-89987380D02*
X129040000Y-89511190D01*
X128801904Y-89987380D02*
X128801904Y-88987380D01*
X129182857Y-88987380D01*
X129278095Y-89035000D01*
X129325714Y-89082619D01*
X129373333Y-89177857D01*
X129373333Y-89320714D01*
X129325714Y-89415952D01*
X129278095Y-89463571D01*
X129182857Y-89511190D01*
X128801904Y-89511190D01*
X130230476Y-89320714D02*
X130230476Y-89987380D01*
X129992380Y-88939761D02*
X129754285Y-89654047D01*
X130373333Y-89654047D01*
G04 #@! TO.C,D1*
X102131904Y-117292380D02*
X102131904Y-116292380D01*
X102370000Y-116292380D01*
X102512857Y-116340000D01*
X102608095Y-116435238D01*
X102655714Y-116530476D01*
X102703333Y-116720952D01*
X102703333Y-116863809D01*
X102655714Y-117054285D01*
X102608095Y-117149523D01*
X102512857Y-117244761D01*
X102370000Y-117292380D01*
X102131904Y-117292380D01*
X103655714Y-117292380D02*
X103084285Y-117292380D01*
X103370000Y-117292380D02*
X103370000Y-116292380D01*
X103274761Y-116435238D01*
X103179523Y-116530476D01*
X103084285Y-116578095D01*
G04 #@! TO.C,D4*
X105941904Y-71572380D02*
X105941904Y-70572380D01*
X106180000Y-70572380D01*
X106322857Y-70620000D01*
X106418095Y-70715238D01*
X106465714Y-70810476D01*
X106513333Y-71000952D01*
X106513333Y-71143809D01*
X106465714Y-71334285D01*
X106418095Y-71429523D01*
X106322857Y-71524761D01*
X106180000Y-71572380D01*
X105941904Y-71572380D01*
X107370476Y-70905714D02*
X107370476Y-71572380D01*
X107132380Y-70524761D02*
X106894285Y-71239047D01*
X107513333Y-71239047D01*
G04 #@! TO.C,D3*
X105941904Y-75382380D02*
X105941904Y-74382380D01*
X106180000Y-74382380D01*
X106322857Y-74430000D01*
X106418095Y-74525238D01*
X106465714Y-74620476D01*
X106513333Y-74810952D01*
X106513333Y-74953809D01*
X106465714Y-75144285D01*
X106418095Y-75239523D01*
X106322857Y-75334761D01*
X106180000Y-75382380D01*
X105941904Y-75382380D01*
X106846666Y-74382380D02*
X107465714Y-74382380D01*
X107132380Y-74763333D01*
X107275238Y-74763333D01*
X107370476Y-74810952D01*
X107418095Y-74858571D01*
X107465714Y-74953809D01*
X107465714Y-75191904D01*
X107418095Y-75287142D01*
X107370476Y-75334761D01*
X107275238Y-75382380D01*
X106989523Y-75382380D01*
X106894285Y-75334761D01*
X106846666Y-75287142D01*
G04 #@! TO.C,D2*
X105941904Y-67762380D02*
X105941904Y-66762380D01*
X106180000Y-66762380D01*
X106322857Y-66810000D01*
X106418095Y-66905238D01*
X106465714Y-67000476D01*
X106513333Y-67190952D01*
X106513333Y-67333809D01*
X106465714Y-67524285D01*
X106418095Y-67619523D01*
X106322857Y-67714761D01*
X106180000Y-67762380D01*
X105941904Y-67762380D01*
X106894285Y-66857619D02*
X106941904Y-66810000D01*
X107037142Y-66762380D01*
X107275238Y-66762380D01*
X107370476Y-66810000D01*
X107418095Y-66857619D01*
X107465714Y-66952857D01*
X107465714Y-67048095D01*
X107418095Y-67190952D01*
X106846666Y-67762380D01*
X107465714Y-67762380D01*
G04 #@! TO.C,R3*
X100798333Y-67762380D02*
X100465000Y-67286190D01*
X100226904Y-67762380D02*
X100226904Y-66762380D01*
X100607857Y-66762380D01*
X100703095Y-66810000D01*
X100750714Y-66857619D01*
X100798333Y-66952857D01*
X100798333Y-67095714D01*
X100750714Y-67190952D01*
X100703095Y-67238571D01*
X100607857Y-67286190D01*
X100226904Y-67286190D01*
X101131666Y-66762380D02*
X101750714Y-66762380D01*
X101417380Y-67143333D01*
X101560238Y-67143333D01*
X101655476Y-67190952D01*
X101703095Y-67238571D01*
X101750714Y-67333809D01*
X101750714Y-67571904D01*
X101703095Y-67667142D01*
X101655476Y-67714761D01*
X101560238Y-67762380D01*
X101274523Y-67762380D01*
X101179285Y-67714761D01*
X101131666Y-67667142D01*
G04 #@! TO.C,R2*
X100798333Y-71572380D02*
X100465000Y-71096190D01*
X100226904Y-71572380D02*
X100226904Y-70572380D01*
X100607857Y-70572380D01*
X100703095Y-70620000D01*
X100750714Y-70667619D01*
X100798333Y-70762857D01*
X100798333Y-70905714D01*
X100750714Y-71000952D01*
X100703095Y-71048571D01*
X100607857Y-71096190D01*
X100226904Y-71096190D01*
X101179285Y-70667619D02*
X101226904Y-70620000D01*
X101322142Y-70572380D01*
X101560238Y-70572380D01*
X101655476Y-70620000D01*
X101703095Y-70667619D01*
X101750714Y-70762857D01*
X101750714Y-70858095D01*
X101703095Y-71000952D01*
X101131666Y-71572380D01*
X101750714Y-71572380D01*
G04 #@! TO.C,R1*
X100798333Y-75382380D02*
X100465000Y-74906190D01*
X100226904Y-75382380D02*
X100226904Y-74382380D01*
X100607857Y-74382380D01*
X100703095Y-74430000D01*
X100750714Y-74477619D01*
X100798333Y-74572857D01*
X100798333Y-74715714D01*
X100750714Y-74810952D01*
X100703095Y-74858571D01*
X100607857Y-74906190D01*
X100226904Y-74906190D01*
X101750714Y-75382380D02*
X101179285Y-75382380D01*
X101465000Y-75382380D02*
X101465000Y-74382380D01*
X101369761Y-74525238D01*
X101274523Y-74620476D01*
X101179285Y-74668095D01*
G04 #@! TO.C,U1*
X116078095Y-96607380D02*
X116078095Y-97416904D01*
X116125714Y-97512142D01*
X116173333Y-97559761D01*
X116268571Y-97607380D01*
X116459047Y-97607380D01*
X116554285Y-97559761D01*
X116601904Y-97512142D01*
X116649523Y-97416904D01*
X116649523Y-96607380D01*
X117649523Y-97607380D02*
X117078095Y-97607380D01*
X117363809Y-97607380D02*
X117363809Y-96607380D01*
X117268571Y-96750238D01*
X117173333Y-96845476D01*
X117078095Y-96893095D01*
G04 #@! TO.C,C7*
X147153333Y-93702142D02*
X147105714Y-93749761D01*
X146962857Y-93797380D01*
X146867619Y-93797380D01*
X146724761Y-93749761D01*
X146629523Y-93654523D01*
X146581904Y-93559285D01*
X146534285Y-93368809D01*
X146534285Y-93225952D01*
X146581904Y-93035476D01*
X146629523Y-92940238D01*
X146724761Y-92845000D01*
X146867619Y-92797380D01*
X146962857Y-92797380D01*
X147105714Y-92845000D01*
X147153333Y-92892619D01*
X147486666Y-92797380D02*
X148153333Y-92797380D01*
X147724761Y-93797380D01*
G04 #@! TO.C,C5*
X124293333Y-93702142D02*
X124245714Y-93749761D01*
X124102857Y-93797380D01*
X124007619Y-93797380D01*
X123864761Y-93749761D01*
X123769523Y-93654523D01*
X123721904Y-93559285D01*
X123674285Y-93368809D01*
X123674285Y-93225952D01*
X123721904Y-93035476D01*
X123769523Y-92940238D01*
X123864761Y-92845000D01*
X124007619Y-92797380D01*
X124102857Y-92797380D01*
X124245714Y-92845000D01*
X124293333Y-92892619D01*
X125198095Y-92797380D02*
X124721904Y-92797380D01*
X124674285Y-93273571D01*
X124721904Y-93225952D01*
X124817142Y-93178333D01*
X125055238Y-93178333D01*
X125150476Y-93225952D01*
X125198095Y-93273571D01*
X125245714Y-93368809D01*
X125245714Y-93606904D01*
X125198095Y-93702142D01*
X125150476Y-93749761D01*
X125055238Y-93797380D01*
X124817142Y-93797380D01*
X124721904Y-93749761D01*
X124674285Y-93702142D01*
G04 #@! TO.C,C1*
X105953333Y-96242142D02*
X105905714Y-96289761D01*
X105762857Y-96337380D01*
X105667619Y-96337380D01*
X105524761Y-96289761D01*
X105429523Y-96194523D01*
X105381904Y-96099285D01*
X105334285Y-95908809D01*
X105334285Y-95765952D01*
X105381904Y-95575476D01*
X105429523Y-95480238D01*
X105524761Y-95385000D01*
X105667619Y-95337380D01*
X105762857Y-95337380D01*
X105905714Y-95385000D01*
X105953333Y-95432619D01*
X106905714Y-96337380D02*
X106334285Y-96337380D01*
X106620000Y-96337380D02*
X106620000Y-95337380D01*
X106524761Y-95480238D01*
X106429523Y-95575476D01*
X106334285Y-95623095D01*
G04 #@! TO.C,U2*
X95123095Y-66762380D02*
X95123095Y-67571904D01*
X95170714Y-67667142D01*
X95218333Y-67714761D01*
X95313571Y-67762380D01*
X95504047Y-67762380D01*
X95599285Y-67714761D01*
X95646904Y-67667142D01*
X95694523Y-67571904D01*
X95694523Y-66762380D01*
X96123095Y-66857619D02*
X96170714Y-66810000D01*
X96265952Y-66762380D01*
X96504047Y-66762380D01*
X96599285Y-66810000D01*
X96646904Y-66857619D01*
X96694523Y-66952857D01*
X96694523Y-67048095D01*
X96646904Y-67190952D01*
X96075476Y-67762380D01*
X96694523Y-67762380D01*
G04 #@! TO.C,HS1*
X128301904Y-105100380D02*
X128301904Y-104100380D01*
X128301904Y-104576571D02*
X128873333Y-104576571D01*
X128873333Y-105100380D02*
X128873333Y-104100380D01*
X129301904Y-105052761D02*
X129444761Y-105100380D01*
X129682857Y-105100380D01*
X129778095Y-105052761D01*
X129825714Y-105005142D01*
X129873333Y-104909904D01*
X129873333Y-104814666D01*
X129825714Y-104719428D01*
X129778095Y-104671809D01*
X129682857Y-104624190D01*
X129492380Y-104576571D01*
X129397142Y-104528952D01*
X129349523Y-104481333D01*
X129301904Y-104386095D01*
X129301904Y-104290857D01*
X129349523Y-104195619D01*
X129397142Y-104148000D01*
X129492380Y-104100380D01*
X129730476Y-104100380D01*
X129873333Y-104148000D01*
X130825714Y-105100380D02*
X130254285Y-105100380D01*
X130540000Y-105100380D02*
X130540000Y-104100380D01*
X130444761Y-104243238D01*
X130349523Y-104338476D01*
X130254285Y-104386095D01*
G04 #@! TO.C,U3*
X96393095Y-116292380D02*
X96393095Y-117101904D01*
X96440714Y-117197142D01*
X96488333Y-117244761D01*
X96583571Y-117292380D01*
X96774047Y-117292380D01*
X96869285Y-117244761D01*
X96916904Y-117197142D01*
X96964523Y-117101904D01*
X96964523Y-116292380D01*
X97345476Y-116292380D02*
X97964523Y-116292380D01*
X97631190Y-116673333D01*
X97774047Y-116673333D01*
X97869285Y-116720952D01*
X97916904Y-116768571D01*
X97964523Y-116863809D01*
X97964523Y-117101904D01*
X97916904Y-117197142D01*
X97869285Y-117244761D01*
X97774047Y-117292380D01*
X97488333Y-117292380D01*
X97393095Y-117244761D01*
X97345476Y-117197142D01*
G04 #@! TO.C,HS3*
X151161904Y-105100380D02*
X151161904Y-104100380D01*
X151161904Y-104576571D02*
X151733333Y-104576571D01*
X151733333Y-105100380D02*
X151733333Y-104100380D01*
X152161904Y-105052761D02*
X152304761Y-105100380D01*
X152542857Y-105100380D01*
X152638095Y-105052761D01*
X152685714Y-105005142D01*
X152733333Y-104909904D01*
X152733333Y-104814666D01*
X152685714Y-104719428D01*
X152638095Y-104671809D01*
X152542857Y-104624190D01*
X152352380Y-104576571D01*
X152257142Y-104528952D01*
X152209523Y-104481333D01*
X152161904Y-104386095D01*
X152161904Y-104290857D01*
X152209523Y-104195619D01*
X152257142Y-104148000D01*
X152352380Y-104100380D01*
X152590476Y-104100380D01*
X152733333Y-104148000D01*
X153066666Y-104100380D02*
X153685714Y-104100380D01*
X153352380Y-104481333D01*
X153495238Y-104481333D01*
X153590476Y-104528952D01*
X153638095Y-104576571D01*
X153685714Y-104671809D01*
X153685714Y-104909904D01*
X153638095Y-105005142D01*
X153590476Y-105052761D01*
X153495238Y-105100380D01*
X153209523Y-105100380D01*
X153114285Y-105052761D01*
X153066666Y-105005142D01*
G04 #@! TO.C,HS4*
X151161904Y-75890380D02*
X151161904Y-74890380D01*
X151161904Y-75366571D02*
X151733333Y-75366571D01*
X151733333Y-75890380D02*
X151733333Y-74890380D01*
X152161904Y-75842761D02*
X152304761Y-75890380D01*
X152542857Y-75890380D01*
X152638095Y-75842761D01*
X152685714Y-75795142D01*
X152733333Y-75699904D01*
X152733333Y-75604666D01*
X152685714Y-75509428D01*
X152638095Y-75461809D01*
X152542857Y-75414190D01*
X152352380Y-75366571D01*
X152257142Y-75318952D01*
X152209523Y-75271333D01*
X152161904Y-75176095D01*
X152161904Y-75080857D01*
X152209523Y-74985619D01*
X152257142Y-74938000D01*
X152352380Y-74890380D01*
X152590476Y-74890380D01*
X152733333Y-74938000D01*
X153590476Y-75223714D02*
X153590476Y-75890380D01*
X153352380Y-74842761D02*
X153114285Y-75557047D01*
X153733333Y-75557047D01*
G04 #@! TO.C,HS2*
X128936904Y-75890381D02*
X128936904Y-74890381D01*
X128936904Y-75366572D02*
X129508333Y-75366572D01*
X129508333Y-75890381D02*
X129508333Y-74890381D01*
X129936904Y-75842762D02*
X130079761Y-75890381D01*
X130317857Y-75890381D01*
X130413095Y-75842762D01*
X130460714Y-75795143D01*
X130508333Y-75699905D01*
X130508333Y-75604667D01*
X130460714Y-75509429D01*
X130413095Y-75461810D01*
X130317857Y-75414191D01*
X130127380Y-75366572D01*
X130032142Y-75318953D01*
X129984523Y-75271334D01*
X129936904Y-75176096D01*
X129936904Y-75080858D01*
X129984523Y-74985620D01*
X130032142Y-74938001D01*
X130127380Y-74890381D01*
X130365476Y-74890381D01*
X130508333Y-74938001D01*
X130889285Y-74985620D02*
X130936904Y-74938001D01*
X131032142Y-74890381D01*
X131270238Y-74890381D01*
X131365476Y-74938001D01*
X131413095Y-74985620D01*
X131460714Y-75080858D01*
X131460714Y-75176096D01*
X131413095Y-75318953D01*
X130841666Y-75890381D01*
X131460714Y-75890381D01*
G04 #@! TO.C,J1*
X112696666Y-113752380D02*
X112696666Y-114466666D01*
X112649047Y-114609523D01*
X112553809Y-114704761D01*
X112410952Y-114752380D01*
X112315714Y-114752380D01*
X113696666Y-114752380D02*
X113125238Y-114752380D01*
X113410952Y-114752380D02*
X113410952Y-113752380D01*
X113315714Y-113895238D01*
X113220476Y-113990476D01*
X113125238Y-114038095D01*
G04 #@! TO.C,J2*
X124126666Y-113752380D02*
X124126666Y-114466666D01*
X124079047Y-114609523D01*
X123983809Y-114704761D01*
X123840952Y-114752380D01*
X123745714Y-114752380D01*
X124555238Y-113847619D02*
X124602857Y-113800000D01*
X124698095Y-113752380D01*
X124936190Y-113752380D01*
X125031428Y-113800000D01*
X125079047Y-113847619D01*
X125126666Y-113942857D01*
X125126666Y-114038095D01*
X125079047Y-114180952D01*
X124507619Y-114752380D01*
X125126666Y-114752380D01*
G04 #@! TO.C,J3*
X135556666Y-113752380D02*
X135556666Y-114466666D01*
X135509047Y-114609523D01*
X135413809Y-114704761D01*
X135270952Y-114752380D01*
X135175714Y-114752380D01*
X135937619Y-113752380D02*
X136556666Y-113752380D01*
X136223333Y-114133333D01*
X136366190Y-114133333D01*
X136461428Y-114180952D01*
X136509047Y-114228571D01*
X136556666Y-114323809D01*
X136556666Y-114561904D01*
X136509047Y-114657142D01*
X136461428Y-114704761D01*
X136366190Y-114752380D01*
X136080476Y-114752380D01*
X135985238Y-114704761D01*
X135937619Y-114657142D01*
G04 #@! TO.C,J4*
X146986666Y-113752380D02*
X146986666Y-114466666D01*
X146939047Y-114609523D01*
X146843809Y-114704761D01*
X146700952Y-114752380D01*
X146605714Y-114752380D01*
X147891428Y-114085714D02*
X147891428Y-114752380D01*
X147653333Y-113704761D02*
X147415238Y-114419047D01*
X148034285Y-114419047D01*
G04 #@! TO.C,J5*
X158416666Y-113752380D02*
X158416666Y-114466666D01*
X158369047Y-114609523D01*
X158273809Y-114704761D01*
X158130952Y-114752380D01*
X158035714Y-114752380D01*
X159369047Y-113752380D02*
X158892857Y-113752380D01*
X158845238Y-114228571D01*
X158892857Y-114180952D01*
X158988095Y-114133333D01*
X159226190Y-114133333D01*
X159321428Y-114180952D01*
X159369047Y-114228571D01*
X159416666Y-114323809D01*
X159416666Y-114561904D01*
X159369047Y-114657142D01*
X159321428Y-114704761D01*
X159226190Y-114752380D01*
X158988095Y-114752380D01*
X158892857Y-114704761D01*
X158845238Y-114657142D01*
G04 #@! TO.C,Q1*
X136429761Y-109767619D02*
X136334523Y-109720000D01*
X136239285Y-109624761D01*
X136096428Y-109481904D01*
X136001190Y-109434285D01*
X135905952Y-109434285D01*
X135953571Y-109672380D02*
X135858333Y-109624761D01*
X135763095Y-109529523D01*
X135715476Y-109339047D01*
X135715476Y-109005714D01*
X135763095Y-108815238D01*
X135858333Y-108720000D01*
X135953571Y-108672380D01*
X136144047Y-108672380D01*
X136239285Y-108720000D01*
X136334523Y-108815238D01*
X136382142Y-109005714D01*
X136382142Y-109339047D01*
X136334523Y-109529523D01*
X136239285Y-109624761D01*
X136144047Y-109672380D01*
X135953571Y-109672380D01*
X137334523Y-109672380D02*
X136763095Y-109672380D01*
X137048809Y-109672380D02*
X137048809Y-108672380D01*
X136953571Y-108815238D01*
X136858333Y-108910476D01*
X136763095Y-108958095D01*
G04 #@! TO.C,Q2*
X136429761Y-80557619D02*
X136334523Y-80510000D01*
X136239285Y-80414761D01*
X136096428Y-80271904D01*
X136001190Y-80224285D01*
X135905952Y-80224285D01*
X135953571Y-80462380D02*
X135858333Y-80414761D01*
X135763095Y-80319523D01*
X135715476Y-80129047D01*
X135715476Y-79795714D01*
X135763095Y-79605238D01*
X135858333Y-79510000D01*
X135953571Y-79462380D01*
X136144047Y-79462380D01*
X136239285Y-79510000D01*
X136334523Y-79605238D01*
X136382142Y-79795714D01*
X136382142Y-80129047D01*
X136334523Y-80319523D01*
X136239285Y-80414761D01*
X136144047Y-80462380D01*
X135953571Y-80462380D01*
X136763095Y-79557619D02*
X136810714Y-79510000D01*
X136905952Y-79462380D01*
X137144047Y-79462380D01*
X137239285Y-79510000D01*
X137286904Y-79557619D01*
X137334523Y-79652857D01*
X137334523Y-79748095D01*
X137286904Y-79890952D01*
X136715476Y-80462380D01*
X137334523Y-80462380D01*
G04 #@! TO.C,Q3*
X159289761Y-109767619D02*
X159194523Y-109720000D01*
X159099285Y-109624761D01*
X158956428Y-109481904D01*
X158861190Y-109434285D01*
X158765952Y-109434285D01*
X158813571Y-109672380D02*
X158718333Y-109624761D01*
X158623095Y-109529523D01*
X158575476Y-109339047D01*
X158575476Y-109005714D01*
X158623095Y-108815238D01*
X158718333Y-108720000D01*
X158813571Y-108672380D01*
X159004047Y-108672380D01*
X159099285Y-108720000D01*
X159194523Y-108815238D01*
X159242142Y-109005714D01*
X159242142Y-109339047D01*
X159194523Y-109529523D01*
X159099285Y-109624761D01*
X159004047Y-109672380D01*
X158813571Y-109672380D01*
X159575476Y-108672380D02*
X160194523Y-108672380D01*
X159861190Y-109053333D01*
X160004047Y-109053333D01*
X160099285Y-109100952D01*
X160146904Y-109148571D01*
X160194523Y-109243809D01*
X160194523Y-109481904D01*
X160146904Y-109577142D01*
X160099285Y-109624761D01*
X160004047Y-109672380D01*
X159718333Y-109672380D01*
X159623095Y-109624761D01*
X159575476Y-109577142D01*
G04 #@! TO.C,Q4*
X159289761Y-80557619D02*
X159194523Y-80510000D01*
X159099285Y-80414761D01*
X158956428Y-80271904D01*
X158861190Y-80224285D01*
X158765952Y-80224285D01*
X158813571Y-80462380D02*
X158718333Y-80414761D01*
X158623095Y-80319523D01*
X158575476Y-80129047D01*
X158575476Y-79795714D01*
X158623095Y-79605238D01*
X158718333Y-79510000D01*
X158813571Y-79462380D01*
X159004047Y-79462380D01*
X159099285Y-79510000D01*
X159194523Y-79605238D01*
X159242142Y-79795714D01*
X159242142Y-80129047D01*
X159194523Y-80319523D01*
X159099285Y-80414761D01*
X159004047Y-80462380D01*
X158813571Y-80462380D01*
X160099285Y-79795714D02*
X160099285Y-80462380D01*
X159861190Y-79414761D02*
X159623095Y-80129047D01*
X160242142Y-80129047D01*
G04 #@! TO.C,U4*
X119823095Y-81367380D02*
X119823095Y-82176904D01*
X119870714Y-82272142D01*
X119918333Y-82319761D01*
X120013571Y-82367380D01*
X120204047Y-82367380D01*
X120299285Y-82319761D01*
X120346904Y-82272142D01*
X120394523Y-82176904D01*
X120394523Y-81367380D01*
X121299285Y-81700714D02*
X121299285Y-82367380D01*
X121061190Y-81319761D02*
X120823095Y-82034047D01*
X121442142Y-82034047D01*
G04 #@! TO.C,U5*
X142683095Y-81367380D02*
X142683095Y-82176904D01*
X142730714Y-82272142D01*
X142778333Y-82319761D01*
X142873571Y-82367380D01*
X143064047Y-82367380D01*
X143159285Y-82319761D01*
X143206904Y-82272142D01*
X143254523Y-82176904D01*
X143254523Y-81367380D01*
X144206904Y-81367380D02*
X143730714Y-81367380D01*
X143683095Y-81843571D01*
X143730714Y-81795952D01*
X143825952Y-81748333D01*
X144064047Y-81748333D01*
X144159285Y-81795952D01*
X144206904Y-81843571D01*
X144254523Y-81938809D01*
X144254523Y-82176904D01*
X144206904Y-82272142D01*
X144159285Y-82319761D01*
X144064047Y-82367380D01*
X143825952Y-82367380D01*
X143730714Y-82319761D01*
X143683095Y-82272142D01*
G04 #@! TO.C,C2*
X104140833Y-110212142D02*
X104093214Y-110259761D01*
X103950357Y-110307380D01*
X103855119Y-110307380D01*
X103712261Y-110259761D01*
X103617023Y-110164523D01*
X103569404Y-110069285D01*
X103521785Y-109878809D01*
X103521785Y-109735952D01*
X103569404Y-109545476D01*
X103617023Y-109450238D01*
X103712261Y-109355000D01*
X103855119Y-109307380D01*
X103950357Y-109307380D01*
X104093214Y-109355000D01*
X104140833Y-109402619D01*
X104521785Y-109402619D02*
X104569404Y-109355000D01*
X104664642Y-109307380D01*
X104902738Y-109307380D01*
X104997976Y-109355000D01*
X105045595Y-109402619D01*
X105093214Y-109497857D01*
X105093214Y-109593095D01*
X105045595Y-109735952D01*
X104474166Y-110307380D01*
X105093214Y-110307380D01*
G04 #@! TD*
M02*
