%FSLAX45Y45*%
G04 Gerber Fmt 4.5, Leading zero omitted, Abs format (unit mm)*
G04 Created by KiCad (PCBNEW (5.1.10)-1) date 2021-10-04 13:51:50*
%MOMM*%
%LPD*%
G01*
G04 APERTURE LIST*
%TA.AperFunction,Profile*%
%ADD10C,0.100000*%
%TD*%
%ADD11C,0.200000*%
%ADD12C,0.300000*%
G04 APERTURE END LIST*
D10*
X16777000Y-13208000D02*
X16777000Y-6428000D01*
X16777000Y-6428000D02*
X6477000Y-6428000D01*
X6477000Y-13208000D02*
X16777000Y-13208000D01*
X6477000Y-6428000D02*
X6477000Y-13208000D01*
D11*
X7463000Y-8733000D02*
X7523000Y-8793000D01*
X7523000Y-8733000D02*
X7463000Y-8793000D01*
X7463000Y-9622000D02*
X7523000Y-9682000D01*
X7523000Y-9622000D02*
X7463000Y-9682000D01*
X7844000Y-8479000D02*
X7904000Y-8539000D01*
X7904000Y-8479000D02*
X7844000Y-8539000D01*
X7844000Y-9368000D02*
X7904000Y-9428000D01*
X7904000Y-9368000D02*
X7844000Y-9428000D01*
X8098000Y-7717000D02*
X8158000Y-7777000D01*
X8158000Y-7717000D02*
X8098000Y-7777000D01*
X8098000Y-11146000D02*
X8158000Y-11206000D01*
X8158000Y-11146000D02*
X8098000Y-11206000D01*
X8352000Y-7463000D02*
X8412000Y-7523000D01*
X8412000Y-7463000D02*
X8352000Y-7523000D01*
X8352000Y-10892000D02*
X8412000Y-10952000D01*
X8412000Y-10892000D02*
X8352000Y-10952000D01*
X8606000Y-7463000D02*
X8666000Y-7523000D01*
X8666000Y-7463000D02*
X8606000Y-7523000D01*
X8606000Y-10638000D02*
X8666000Y-10698000D01*
X8666000Y-10638000D02*
X8606000Y-10698000D01*
X8860000Y-7209000D02*
X8920000Y-7269000D01*
X8920000Y-7209000D02*
X8860000Y-7269000D01*
X8860000Y-10384000D02*
X8920000Y-10444000D01*
X8920000Y-10384000D02*
X8860000Y-10444000D01*
X9622000Y-6701000D02*
X9682000Y-6761000D01*
X9682000Y-6701000D02*
X9622000Y-6761000D01*
X9622000Y-8733000D02*
X9682000Y-8793000D01*
X9682000Y-8733000D02*
X9622000Y-8793000D01*
X9812500Y-7082000D02*
X9872500Y-7142000D01*
X9872500Y-7082000D02*
X9812500Y-7142000D01*
X10003000Y-7336000D02*
X10063000Y-7396000D01*
X10063000Y-7336000D02*
X10003000Y-7396000D01*
X10003000Y-8479000D02*
X10063000Y-8539000D01*
X10063000Y-8479000D02*
X10003000Y-8539000D01*
X10257000Y-9876000D02*
X10317000Y-9936000D01*
X10317000Y-9876000D02*
X10257000Y-9936000D01*
X10892000Y-8225000D02*
X10952000Y-8285000D01*
X10952000Y-8225000D02*
X10892000Y-8285000D01*
X10892000Y-8733000D02*
X10952000Y-8793000D01*
X10952000Y-8733000D02*
X10892000Y-8793000D01*
X10892000Y-8987000D02*
X10952000Y-9047000D01*
X10952000Y-8987000D02*
X10892000Y-9047000D01*
X10892000Y-9812500D02*
X10952000Y-9872500D01*
X10952000Y-9812500D02*
X10892000Y-9872500D01*
X10892000Y-10003000D02*
X10952000Y-10063000D01*
X10952000Y-10003000D02*
X10892000Y-10063000D01*
X10892000Y-11400000D02*
X10952000Y-11460000D01*
X10952000Y-11400000D02*
X10892000Y-11460000D01*
X11019000Y-10955500D02*
X11079000Y-11015500D01*
X11079000Y-10955500D02*
X11019000Y-11015500D01*
X11400000Y-7463000D02*
X11460000Y-7523000D01*
X11460000Y-7463000D02*
X11400000Y-7523000D01*
X11400000Y-8225000D02*
X11460000Y-8285000D01*
X11460000Y-8225000D02*
X11400000Y-8285000D01*
X11654000Y-10638000D02*
X11714000Y-10698000D01*
X11714000Y-10638000D02*
X11654000Y-10698000D01*
X11654000Y-10828500D02*
X11714000Y-10888500D01*
X11714000Y-10828500D02*
X11654000Y-10888500D01*
X11971500Y-8669500D02*
X12031500Y-8729500D01*
X12031500Y-8669500D02*
X11971500Y-8729500D01*
X11971500Y-8796500D02*
X12031500Y-8856500D01*
X12031500Y-8796500D02*
X11971500Y-8856500D01*
X12035000Y-7463000D02*
X12095000Y-7523000D01*
X12095000Y-7463000D02*
X12035000Y-7523000D01*
X12035000Y-8098000D02*
X12095000Y-8158000D01*
X12095000Y-8098000D02*
X12035000Y-8158000D01*
X14257500Y-8669500D02*
X14317500Y-8729500D01*
X14317500Y-8669500D02*
X14257500Y-8729500D01*
X14257500Y-8796500D02*
X14317500Y-8856500D01*
X14317500Y-8796500D02*
X14257500Y-8856500D01*
X6903000Y-9398000D02*
G75*
G03*
X6903000Y-9398000I-45000J0D01*
G01*
X6903000Y-9652000D02*
G75*
G03*
X6903000Y-9652000I-45000J0D01*
G01*
X6903000Y-9906000D02*
G75*
G03*
X6903000Y-9906000I-45000J0D01*
G01*
X6903000Y-10160000D02*
G75*
G03*
X6903000Y-10160000I-45000J0D01*
G01*
X6903000Y-10414000D02*
G75*
G03*
X6903000Y-10414000I-45000J0D01*
G01*
X6903000Y-10668000D02*
G75*
G03*
X6903000Y-10668000I-45000J0D01*
G01*
X6903000Y-10922000D02*
G75*
G03*
X6903000Y-10922000I-45000J0D01*
G01*
X6903000Y-11176000D02*
G75*
G03*
X6903000Y-11176000I-45000J0D01*
G01*
X6903000Y-11430000D02*
G75*
G03*
X6903000Y-11430000I-45000J0D01*
G01*
X6903000Y-11684000D02*
G75*
G03*
X6903000Y-11684000I-45000J0D01*
G01*
X7030000Y-6731000D02*
G75*
G03*
X7030000Y-6731000I-45000J0D01*
G01*
X7030000Y-6985000D02*
G75*
G03*
X7030000Y-6985000I-45000J0D01*
G01*
X7030000Y-7239000D02*
G75*
G03*
X7030000Y-7239000I-45000J0D01*
G01*
X7030000Y-7493000D02*
G75*
G03*
X7030000Y-7493000I-45000J0D01*
G01*
X7030000Y-7747000D02*
G75*
G03*
X7030000Y-7747000I-45000J0D01*
G01*
X7030000Y-8001000D02*
G75*
G03*
X7030000Y-8001000I-45000J0D01*
G01*
X7030000Y-8255000D02*
G75*
G03*
X7030000Y-8255000I-45000J0D01*
G01*
X7030000Y-8509000D02*
G75*
G03*
X7030000Y-8509000I-45000J0D01*
G01*
X9316000Y-6731000D02*
G75*
G03*
X9316000Y-6731000I-45000J0D01*
G01*
X9316000Y-6985000D02*
G75*
G03*
X9316000Y-6985000I-45000J0D01*
G01*
X9316000Y-7239000D02*
G75*
G03*
X9316000Y-7239000I-45000J0D01*
G01*
X9316000Y-7493000D02*
G75*
G03*
X9316000Y-7493000I-45000J0D01*
G01*
X9316000Y-7747000D02*
G75*
G03*
X9316000Y-7747000I-45000J0D01*
G01*
X9316000Y-8001000D02*
G75*
G03*
X9316000Y-8001000I-45000J0D01*
G01*
X9316000Y-8255000D02*
G75*
G03*
X9316000Y-8255000I-45000J0D01*
G01*
X9316000Y-8509000D02*
G75*
G03*
X9316000Y-8509000I-45000J0D01*
G01*
X9443000Y-9398000D02*
G75*
G03*
X9443000Y-9398000I-45000J0D01*
G01*
X9443000Y-9652000D02*
G75*
G03*
X9443000Y-9652000I-45000J0D01*
G01*
X9443000Y-9906000D02*
G75*
G03*
X9443000Y-9906000I-45000J0D01*
G01*
X9443000Y-10160000D02*
G75*
G03*
X9443000Y-10160000I-45000J0D01*
G01*
X9443000Y-10414000D02*
G75*
G03*
X9443000Y-10414000I-45000J0D01*
G01*
X9443000Y-10668000D02*
G75*
G03*
X9443000Y-10668000I-45000J0D01*
G01*
X9443000Y-10922000D02*
G75*
G03*
X9443000Y-10922000I-45000J0D01*
G01*
X9443000Y-11176000D02*
G75*
G03*
X9443000Y-11176000I-45000J0D01*
G01*
X9443000Y-11430000D02*
G75*
G03*
X9443000Y-11430000I-45000J0D01*
G01*
X9443000Y-11684000D02*
G75*
G03*
X9443000Y-11684000I-45000J0D01*
G01*
X12700000Y-7946000D02*
X12700000Y-8056000D01*
X12645000Y-8001000D02*
X12755000Y-8001000D01*
X12700000Y-10867000D02*
X12700000Y-10977000D01*
X12645000Y-10922000D02*
X12755000Y-10922000D01*
X12954000Y-7946000D02*
X12954000Y-8056000D01*
X12899000Y-8001000D02*
X13009000Y-8001000D01*
X12954000Y-10867000D02*
X12954000Y-10977000D01*
X12899000Y-10922000D02*
X13009000Y-10922000D01*
X13208000Y-7946000D02*
X13208000Y-8056000D01*
X13153000Y-8001000D02*
X13263000Y-8001000D01*
X13208000Y-10867000D02*
X13208000Y-10977000D01*
X13153000Y-10922000D02*
X13263000Y-10922000D01*
X14986000Y-7946000D02*
X14986000Y-8056000D01*
X14931000Y-8001000D02*
X15041000Y-8001000D01*
X14986000Y-10867000D02*
X14986000Y-10977000D01*
X14931000Y-10922000D02*
X15041000Y-10922000D01*
X15240000Y-7946000D02*
X15240000Y-8056000D01*
X15185000Y-8001000D02*
X15295000Y-8001000D01*
X15240000Y-10867000D02*
X15240000Y-10977000D01*
X15185000Y-10922000D02*
X15295000Y-10922000D01*
X15494000Y-7946000D02*
X15494000Y-8056000D01*
X15439000Y-8001000D02*
X15549000Y-8001000D01*
X15494000Y-10867000D02*
X15494000Y-10977000D01*
X15439000Y-10922000D02*
X15549000Y-10922000D01*
X11094962Y-12237962D02*
X11094962Y-12146038D01*
X11003038Y-12146038D01*
X11003038Y-12237962D01*
X11094962Y-12237962D01*
X11602962Y-12237962D02*
X11602962Y-12146038D01*
X11511038Y-12146038D01*
X11511038Y-12237962D01*
X11602962Y-12237962D01*
X12237962Y-12237962D02*
X12237962Y-12146038D01*
X12146038Y-12146038D01*
X12146038Y-12237962D01*
X12237962Y-12237962D01*
X12745962Y-12237962D02*
X12745962Y-12146038D01*
X12654038Y-12146038D01*
X12654038Y-12237962D01*
X12745962Y-12237962D01*
X13380962Y-12237962D02*
X13380962Y-12146038D01*
X13289038Y-12146038D01*
X13289038Y-12237962D01*
X13380962Y-12237962D01*
X13888962Y-12237962D02*
X13888962Y-12146038D01*
X13797038Y-12146038D01*
X13797038Y-12237962D01*
X13888962Y-12237962D01*
X14523962Y-12237962D02*
X14523962Y-12146038D01*
X14432038Y-12146038D01*
X14432038Y-12237962D01*
X14523962Y-12237962D01*
X15031962Y-12237962D02*
X15031962Y-12146038D01*
X14940038Y-12146038D01*
X14940038Y-12237962D01*
X15031962Y-12237962D01*
X15666962Y-12237962D02*
X15666962Y-12146038D01*
X15575038Y-12146038D01*
X15575038Y-12237962D01*
X15666962Y-12237962D01*
X16174962Y-12237962D02*
X16174962Y-12146038D01*
X16083038Y-12146038D01*
X16083038Y-12237962D01*
X16174962Y-12237962D01*
D12*
X6758428Y-13678714D02*
X6758428Y-13378714D01*
X6829857Y-13378714D01*
X6872714Y-13393000D01*
X6901286Y-13421571D01*
X6915571Y-13450143D01*
X6929857Y-13507286D01*
X6929857Y-13550143D01*
X6915571Y-13607286D01*
X6901286Y-13635857D01*
X6872714Y-13664429D01*
X6829857Y-13678714D01*
X6758428Y-13678714D01*
X7058428Y-13678714D02*
X7058428Y-13478714D01*
X7058428Y-13535857D02*
X7072714Y-13507286D01*
X7087000Y-13493000D01*
X7115571Y-13478714D01*
X7144143Y-13478714D01*
X7244143Y-13678714D02*
X7244143Y-13478714D01*
X7244143Y-13378714D02*
X7229857Y-13393000D01*
X7244143Y-13407286D01*
X7258428Y-13393000D01*
X7244143Y-13378714D01*
X7244143Y-13407286D01*
X7429857Y-13678714D02*
X7401286Y-13664429D01*
X7387000Y-13635857D01*
X7387000Y-13378714D01*
X7587000Y-13678714D02*
X7558428Y-13664429D01*
X7544143Y-13635857D01*
X7544143Y-13378714D01*
X7929857Y-13678714D02*
X7929857Y-13378714D01*
X8029857Y-13593000D01*
X8129857Y-13378714D01*
X8129857Y-13678714D01*
X8401286Y-13678714D02*
X8401286Y-13521571D01*
X8387000Y-13493000D01*
X8358428Y-13478714D01*
X8301286Y-13478714D01*
X8272714Y-13493000D01*
X8401286Y-13664429D02*
X8372714Y-13678714D01*
X8301286Y-13678714D01*
X8272714Y-13664429D01*
X8258428Y-13635857D01*
X8258428Y-13607286D01*
X8272714Y-13578714D01*
X8301286Y-13564429D01*
X8372714Y-13564429D01*
X8401286Y-13550143D01*
X8544143Y-13478714D02*
X8544143Y-13778714D01*
X8544143Y-13493000D02*
X8572714Y-13478714D01*
X8629857Y-13478714D01*
X8658428Y-13493000D01*
X8672714Y-13507286D01*
X8687000Y-13535857D01*
X8687000Y-13621571D01*
X8672714Y-13650143D01*
X8658428Y-13664429D01*
X8629857Y-13678714D01*
X8572714Y-13678714D01*
X8544143Y-13664429D01*
X8815571Y-13650143D02*
X8829857Y-13664429D01*
X8815571Y-13678714D01*
X8801286Y-13664429D01*
X8815571Y-13650143D01*
X8815571Y-13678714D01*
X8815571Y-13493000D02*
X8829857Y-13507286D01*
X8815571Y-13521571D01*
X8801286Y-13507286D01*
X8815571Y-13493000D01*
X8815571Y-13521571D01*
X6412000Y-14143000D02*
X6472000Y-14203000D01*
X6472000Y-14143000D02*
X6412000Y-14203000D01*
X6815571Y-14008714D02*
X6844143Y-14008714D01*
X6872714Y-14023000D01*
X6887000Y-14037286D01*
X6901286Y-14065857D01*
X6915571Y-14123000D01*
X6915571Y-14194429D01*
X6901286Y-14251571D01*
X6887000Y-14280143D01*
X6872714Y-14294429D01*
X6844143Y-14308714D01*
X6815571Y-14308714D01*
X6787000Y-14294429D01*
X6772714Y-14280143D01*
X6758428Y-14251571D01*
X6744143Y-14194429D01*
X6744143Y-14123000D01*
X6758428Y-14065857D01*
X6772714Y-14037286D01*
X6787000Y-14023000D01*
X6815571Y-14008714D01*
X7044143Y-14280143D02*
X7058428Y-14294429D01*
X7044143Y-14308714D01*
X7029857Y-14294429D01*
X7044143Y-14280143D01*
X7044143Y-14308714D01*
X7315571Y-14008714D02*
X7258428Y-14008714D01*
X7229857Y-14023000D01*
X7215571Y-14037286D01*
X7187000Y-14080143D01*
X7172714Y-14137286D01*
X7172714Y-14251571D01*
X7187000Y-14280143D01*
X7201286Y-14294429D01*
X7229857Y-14308714D01*
X7287000Y-14308714D01*
X7315571Y-14294429D01*
X7329857Y-14280143D01*
X7344143Y-14251571D01*
X7344143Y-14180143D01*
X7329857Y-14151571D01*
X7315571Y-14137286D01*
X7287000Y-14123000D01*
X7229857Y-14123000D01*
X7201286Y-14137286D01*
X7187000Y-14151571D01*
X7172714Y-14180143D01*
X7529857Y-14008714D02*
X7558428Y-14008714D01*
X7587000Y-14023000D01*
X7601286Y-14037286D01*
X7615571Y-14065857D01*
X7629857Y-14123000D01*
X7629857Y-14194429D01*
X7615571Y-14251571D01*
X7601286Y-14280143D01*
X7587000Y-14294429D01*
X7558428Y-14308714D01*
X7529857Y-14308714D01*
X7501286Y-14294429D01*
X7487000Y-14280143D01*
X7472714Y-14251571D01*
X7458428Y-14194429D01*
X7458428Y-14123000D01*
X7472714Y-14065857D01*
X7487000Y-14037286D01*
X7501286Y-14023000D01*
X7529857Y-14008714D01*
X7815571Y-14008714D02*
X7844143Y-14008714D01*
X7872714Y-14023000D01*
X7887000Y-14037286D01*
X7901286Y-14065857D01*
X7915571Y-14123000D01*
X7915571Y-14194429D01*
X7901286Y-14251571D01*
X7887000Y-14280143D01*
X7872714Y-14294429D01*
X7844143Y-14308714D01*
X7815571Y-14308714D01*
X7787000Y-14294429D01*
X7772714Y-14280143D01*
X7758428Y-14251571D01*
X7744143Y-14194429D01*
X7744143Y-14123000D01*
X7758428Y-14065857D01*
X7772714Y-14037286D01*
X7787000Y-14023000D01*
X7815571Y-14008714D01*
X8044143Y-14308714D02*
X8044143Y-14108714D01*
X8044143Y-14137286D02*
X8058428Y-14123000D01*
X8087000Y-14108714D01*
X8129857Y-14108714D01*
X8158428Y-14123000D01*
X8172714Y-14151571D01*
X8172714Y-14308714D01*
X8172714Y-14151571D02*
X8187000Y-14123000D01*
X8215571Y-14108714D01*
X8258428Y-14108714D01*
X8287000Y-14123000D01*
X8301286Y-14151571D01*
X8301286Y-14308714D01*
X8444143Y-14308714D02*
X8444143Y-14108714D01*
X8444143Y-14137286D02*
X8458428Y-14123000D01*
X8487000Y-14108714D01*
X8529857Y-14108714D01*
X8558428Y-14123000D01*
X8572714Y-14151571D01*
X8572714Y-14308714D01*
X8572714Y-14151571D02*
X8587000Y-14123000D01*
X8615571Y-14108714D01*
X8658428Y-14108714D01*
X8687000Y-14123000D01*
X8701286Y-14151571D01*
X8701286Y-14308714D01*
X9287000Y-13994429D02*
X9029857Y-14380143D01*
X9672714Y-14008714D02*
X9701286Y-14008714D01*
X9729857Y-14023000D01*
X9744143Y-14037286D01*
X9758428Y-14065857D01*
X9772714Y-14123000D01*
X9772714Y-14194429D01*
X9758428Y-14251571D01*
X9744143Y-14280143D01*
X9729857Y-14294429D01*
X9701286Y-14308714D01*
X9672714Y-14308714D01*
X9644143Y-14294429D01*
X9629857Y-14280143D01*
X9615571Y-14251571D01*
X9601286Y-14194429D01*
X9601286Y-14123000D01*
X9615571Y-14065857D01*
X9629857Y-14037286D01*
X9644143Y-14023000D01*
X9672714Y-14008714D01*
X9901286Y-14280143D02*
X9915571Y-14294429D01*
X9901286Y-14308714D01*
X9887000Y-14294429D01*
X9901286Y-14280143D01*
X9901286Y-14308714D01*
X10101286Y-14008714D02*
X10129857Y-14008714D01*
X10158428Y-14023000D01*
X10172714Y-14037286D01*
X10187000Y-14065857D01*
X10201286Y-14123000D01*
X10201286Y-14194429D01*
X10187000Y-14251571D01*
X10172714Y-14280143D01*
X10158428Y-14294429D01*
X10129857Y-14308714D01*
X10101286Y-14308714D01*
X10072714Y-14294429D01*
X10058428Y-14280143D01*
X10044143Y-14251571D01*
X10029857Y-14194429D01*
X10029857Y-14123000D01*
X10044143Y-14065857D01*
X10058428Y-14037286D01*
X10072714Y-14023000D01*
X10101286Y-14008714D01*
X10315571Y-14037286D02*
X10329857Y-14023000D01*
X10358428Y-14008714D01*
X10429857Y-14008714D01*
X10458428Y-14023000D01*
X10472714Y-14037286D01*
X10487000Y-14065857D01*
X10487000Y-14094429D01*
X10472714Y-14137286D01*
X10301286Y-14308714D01*
X10487000Y-14308714D01*
X10587000Y-14008714D02*
X10772714Y-14008714D01*
X10672714Y-14123000D01*
X10715571Y-14123000D01*
X10744143Y-14137286D01*
X10758428Y-14151571D01*
X10772714Y-14180143D01*
X10772714Y-14251571D01*
X10758428Y-14280143D01*
X10744143Y-14294429D01*
X10715571Y-14308714D01*
X10629857Y-14308714D01*
X10601286Y-14294429D01*
X10587000Y-14280143D01*
X11029857Y-14008714D02*
X10972714Y-14008714D01*
X10944143Y-14023000D01*
X10929857Y-14037286D01*
X10901286Y-14080143D01*
X10887000Y-14137286D01*
X10887000Y-14251571D01*
X10901286Y-14280143D01*
X10915571Y-14294429D01*
X10944143Y-14308714D01*
X11001286Y-14308714D01*
X11029857Y-14294429D01*
X11044143Y-14280143D01*
X11058428Y-14251571D01*
X11058428Y-14180143D01*
X11044143Y-14151571D01*
X11029857Y-14137286D01*
X11001286Y-14123000D01*
X10944143Y-14123000D01*
X10915571Y-14137286D01*
X10901286Y-14151571D01*
X10887000Y-14180143D01*
X11172714Y-14008714D02*
X11172714Y-14065857D01*
X11287000Y-14008714D02*
X11287000Y-14065857D01*
X11729857Y-14423000D02*
X11715571Y-14408714D01*
X11687000Y-14365857D01*
X11672714Y-14337286D01*
X11658428Y-14294429D01*
X11644143Y-14223000D01*
X11644143Y-14165857D01*
X11658428Y-14094429D01*
X11672714Y-14051571D01*
X11687000Y-14023000D01*
X11715571Y-13980143D01*
X11729857Y-13965857D01*
X11815571Y-14008714D02*
X12001286Y-14008714D01*
X11901286Y-14123000D01*
X11944143Y-14123000D01*
X11972714Y-14137286D01*
X11987000Y-14151571D01*
X12001286Y-14180143D01*
X12001286Y-14251571D01*
X11987000Y-14280143D01*
X11972714Y-14294429D01*
X11944143Y-14308714D01*
X11858428Y-14308714D01*
X11829857Y-14294429D01*
X11815571Y-14280143D01*
X12272714Y-14008714D02*
X12129857Y-14008714D01*
X12115571Y-14151571D01*
X12129857Y-14137286D01*
X12158428Y-14123000D01*
X12229857Y-14123000D01*
X12258428Y-14137286D01*
X12272714Y-14151571D01*
X12287000Y-14180143D01*
X12287000Y-14251571D01*
X12272714Y-14280143D01*
X12258428Y-14294429D01*
X12229857Y-14308714D01*
X12158428Y-14308714D01*
X12129857Y-14294429D01*
X12115571Y-14280143D01*
X12644143Y-14308714D02*
X12644143Y-14008714D01*
X12772714Y-14308714D02*
X12772714Y-14151571D01*
X12758428Y-14123000D01*
X12729857Y-14108714D01*
X12687000Y-14108714D01*
X12658428Y-14123000D01*
X12644143Y-14137286D01*
X12958428Y-14308714D02*
X12929857Y-14294429D01*
X12915571Y-14280143D01*
X12901286Y-14251571D01*
X12901286Y-14165857D01*
X12915571Y-14137286D01*
X12929857Y-14123000D01*
X12958428Y-14108714D01*
X13001286Y-14108714D01*
X13029857Y-14123000D01*
X13044143Y-14137286D01*
X13058428Y-14165857D01*
X13058428Y-14251571D01*
X13044143Y-14280143D01*
X13029857Y-14294429D01*
X13001286Y-14308714D01*
X12958428Y-14308714D01*
X13229857Y-14308714D02*
X13201286Y-14294429D01*
X13187000Y-14265857D01*
X13187000Y-14008714D01*
X13458428Y-14294429D02*
X13429857Y-14308714D01*
X13372714Y-14308714D01*
X13344143Y-14294429D01*
X13329857Y-14265857D01*
X13329857Y-14151571D01*
X13344143Y-14123000D01*
X13372714Y-14108714D01*
X13429857Y-14108714D01*
X13458428Y-14123000D01*
X13472714Y-14151571D01*
X13472714Y-14180143D01*
X13329857Y-14208714D01*
X13587000Y-14294429D02*
X13615571Y-14308714D01*
X13672714Y-14308714D01*
X13701286Y-14294429D01*
X13715571Y-14265857D01*
X13715571Y-14251571D01*
X13701286Y-14223000D01*
X13672714Y-14208714D01*
X13629857Y-14208714D01*
X13601286Y-14194429D01*
X13587000Y-14165857D01*
X13587000Y-14151571D01*
X13601286Y-14123000D01*
X13629857Y-14108714D01*
X13672714Y-14108714D01*
X13701286Y-14123000D01*
X13815571Y-14423000D02*
X13829857Y-14408714D01*
X13858428Y-14365857D01*
X13872714Y-14337286D01*
X13887000Y-14294429D01*
X13901286Y-14223000D01*
X13901286Y-14165857D01*
X13887000Y-14094429D01*
X13872714Y-14051571D01*
X13858428Y-14023000D01*
X13829857Y-13980143D01*
X13815571Y-13965857D01*
X6472000Y-14569000D02*
G75*
G03*
X6472000Y-14569000I-45000J0D01*
G01*
X6815571Y-14404714D02*
X6844143Y-14404714D01*
X6872714Y-14419000D01*
X6887000Y-14433286D01*
X6901286Y-14461857D01*
X6915571Y-14519000D01*
X6915571Y-14590429D01*
X6901286Y-14647571D01*
X6887000Y-14676143D01*
X6872714Y-14690429D01*
X6844143Y-14704714D01*
X6815571Y-14704714D01*
X6787000Y-14690429D01*
X6772714Y-14676143D01*
X6758428Y-14647571D01*
X6744143Y-14590429D01*
X6744143Y-14519000D01*
X6758428Y-14461857D01*
X6772714Y-14433286D01*
X6787000Y-14419000D01*
X6815571Y-14404714D01*
X7044143Y-14676143D02*
X7058428Y-14690429D01*
X7044143Y-14704714D01*
X7029857Y-14690429D01*
X7044143Y-14676143D01*
X7044143Y-14704714D01*
X7201286Y-14704714D02*
X7258428Y-14704714D01*
X7287000Y-14690429D01*
X7301286Y-14676143D01*
X7329857Y-14633286D01*
X7344143Y-14576143D01*
X7344143Y-14461857D01*
X7329857Y-14433286D01*
X7315571Y-14419000D01*
X7287000Y-14404714D01*
X7229857Y-14404714D01*
X7201286Y-14419000D01*
X7187000Y-14433286D01*
X7172714Y-14461857D01*
X7172714Y-14533286D01*
X7187000Y-14561857D01*
X7201286Y-14576143D01*
X7229857Y-14590429D01*
X7287000Y-14590429D01*
X7315571Y-14576143D01*
X7329857Y-14561857D01*
X7344143Y-14533286D01*
X7529857Y-14404714D02*
X7558428Y-14404714D01*
X7587000Y-14419000D01*
X7601286Y-14433286D01*
X7615571Y-14461857D01*
X7629857Y-14519000D01*
X7629857Y-14590429D01*
X7615571Y-14647571D01*
X7601286Y-14676143D01*
X7587000Y-14690429D01*
X7558428Y-14704714D01*
X7529857Y-14704714D01*
X7501286Y-14690429D01*
X7487000Y-14676143D01*
X7472714Y-14647571D01*
X7458428Y-14590429D01*
X7458428Y-14519000D01*
X7472714Y-14461857D01*
X7487000Y-14433286D01*
X7501286Y-14419000D01*
X7529857Y-14404714D01*
X7815571Y-14404714D02*
X7844143Y-14404714D01*
X7872714Y-14419000D01*
X7887000Y-14433286D01*
X7901286Y-14461857D01*
X7915571Y-14519000D01*
X7915571Y-14590429D01*
X7901286Y-14647571D01*
X7887000Y-14676143D01*
X7872714Y-14690429D01*
X7844143Y-14704714D01*
X7815571Y-14704714D01*
X7787000Y-14690429D01*
X7772714Y-14676143D01*
X7758428Y-14647571D01*
X7744143Y-14590429D01*
X7744143Y-14519000D01*
X7758428Y-14461857D01*
X7772714Y-14433286D01*
X7787000Y-14419000D01*
X7815571Y-14404714D01*
X8044143Y-14704714D02*
X8044143Y-14504714D01*
X8044143Y-14533286D02*
X8058428Y-14519000D01*
X8087000Y-14504714D01*
X8129857Y-14504714D01*
X8158428Y-14519000D01*
X8172714Y-14547571D01*
X8172714Y-14704714D01*
X8172714Y-14547571D02*
X8187000Y-14519000D01*
X8215571Y-14504714D01*
X8258428Y-14504714D01*
X8287000Y-14519000D01*
X8301286Y-14547571D01*
X8301286Y-14704714D01*
X8444143Y-14704714D02*
X8444143Y-14504714D01*
X8444143Y-14533286D02*
X8458428Y-14519000D01*
X8487000Y-14504714D01*
X8529857Y-14504714D01*
X8558428Y-14519000D01*
X8572714Y-14547571D01*
X8572714Y-14704714D01*
X8572714Y-14547571D02*
X8587000Y-14519000D01*
X8615571Y-14504714D01*
X8658428Y-14504714D01*
X8687000Y-14519000D01*
X8701286Y-14547571D01*
X8701286Y-14704714D01*
X9287000Y-14390429D02*
X9029857Y-14776143D01*
X9672714Y-14404714D02*
X9701286Y-14404714D01*
X9729857Y-14419000D01*
X9744143Y-14433286D01*
X9758428Y-14461857D01*
X9772714Y-14519000D01*
X9772714Y-14590429D01*
X9758428Y-14647571D01*
X9744143Y-14676143D01*
X9729857Y-14690429D01*
X9701286Y-14704714D01*
X9672714Y-14704714D01*
X9644143Y-14690429D01*
X9629857Y-14676143D01*
X9615571Y-14647571D01*
X9601286Y-14590429D01*
X9601286Y-14519000D01*
X9615571Y-14461857D01*
X9629857Y-14433286D01*
X9644143Y-14419000D01*
X9672714Y-14404714D01*
X9901286Y-14676143D02*
X9915571Y-14690429D01*
X9901286Y-14704714D01*
X9887000Y-14690429D01*
X9901286Y-14676143D01*
X9901286Y-14704714D01*
X10101286Y-14404714D02*
X10129857Y-14404714D01*
X10158428Y-14419000D01*
X10172714Y-14433286D01*
X10187000Y-14461857D01*
X10201286Y-14519000D01*
X10201286Y-14590429D01*
X10187000Y-14647571D01*
X10172714Y-14676143D01*
X10158428Y-14690429D01*
X10129857Y-14704714D01*
X10101286Y-14704714D01*
X10072714Y-14690429D01*
X10058428Y-14676143D01*
X10044143Y-14647571D01*
X10029857Y-14590429D01*
X10029857Y-14519000D01*
X10044143Y-14461857D01*
X10058428Y-14433286D01*
X10072714Y-14419000D01*
X10101286Y-14404714D01*
X10301286Y-14404714D02*
X10487000Y-14404714D01*
X10387000Y-14519000D01*
X10429857Y-14519000D01*
X10458428Y-14533286D01*
X10472714Y-14547571D01*
X10487000Y-14576143D01*
X10487000Y-14647571D01*
X10472714Y-14676143D01*
X10458428Y-14690429D01*
X10429857Y-14704714D01*
X10344143Y-14704714D01*
X10315571Y-14690429D01*
X10301286Y-14676143D01*
X10758428Y-14404714D02*
X10615571Y-14404714D01*
X10601286Y-14547571D01*
X10615571Y-14533286D01*
X10644143Y-14519000D01*
X10715571Y-14519000D01*
X10744143Y-14533286D01*
X10758428Y-14547571D01*
X10772714Y-14576143D01*
X10772714Y-14647571D01*
X10758428Y-14676143D01*
X10744143Y-14690429D01*
X10715571Y-14704714D01*
X10644143Y-14704714D01*
X10615571Y-14690429D01*
X10601286Y-14676143D01*
X11029857Y-14504714D02*
X11029857Y-14704714D01*
X10958428Y-14390429D02*
X10887000Y-14604714D01*
X11072714Y-14604714D01*
X11172714Y-14404714D02*
X11172714Y-14461857D01*
X11287000Y-14404714D02*
X11287000Y-14461857D01*
X11729857Y-14819000D02*
X11715571Y-14804714D01*
X11687000Y-14761857D01*
X11672714Y-14733286D01*
X11658428Y-14690429D01*
X11644143Y-14619000D01*
X11644143Y-14561857D01*
X11658428Y-14490429D01*
X11672714Y-14447571D01*
X11687000Y-14419000D01*
X11715571Y-14376143D01*
X11729857Y-14361857D01*
X11815571Y-14404714D02*
X12001286Y-14404714D01*
X11901286Y-14519000D01*
X11944143Y-14519000D01*
X11972714Y-14533286D01*
X11987000Y-14547571D01*
X12001286Y-14576143D01*
X12001286Y-14647571D01*
X11987000Y-14676143D01*
X11972714Y-14690429D01*
X11944143Y-14704714D01*
X11858428Y-14704714D01*
X11829857Y-14690429D01*
X11815571Y-14676143D01*
X12258428Y-14404714D02*
X12201286Y-14404714D01*
X12172714Y-14419000D01*
X12158428Y-14433286D01*
X12129857Y-14476143D01*
X12115571Y-14533286D01*
X12115571Y-14647571D01*
X12129857Y-14676143D01*
X12144143Y-14690429D01*
X12172714Y-14704714D01*
X12229857Y-14704714D01*
X12258428Y-14690429D01*
X12272714Y-14676143D01*
X12287000Y-14647571D01*
X12287000Y-14576143D01*
X12272714Y-14547571D01*
X12258428Y-14533286D01*
X12229857Y-14519000D01*
X12172714Y-14519000D01*
X12144143Y-14533286D01*
X12129857Y-14547571D01*
X12115571Y-14576143D01*
X12644143Y-14704714D02*
X12644143Y-14404714D01*
X12772714Y-14704714D02*
X12772714Y-14547571D01*
X12758428Y-14519000D01*
X12729857Y-14504714D01*
X12687000Y-14504714D01*
X12658428Y-14519000D01*
X12644143Y-14533286D01*
X12958428Y-14704714D02*
X12929857Y-14690429D01*
X12915571Y-14676143D01*
X12901286Y-14647571D01*
X12901286Y-14561857D01*
X12915571Y-14533286D01*
X12929857Y-14519000D01*
X12958428Y-14504714D01*
X13001286Y-14504714D01*
X13029857Y-14519000D01*
X13044143Y-14533286D01*
X13058428Y-14561857D01*
X13058428Y-14647571D01*
X13044143Y-14676143D01*
X13029857Y-14690429D01*
X13001286Y-14704714D01*
X12958428Y-14704714D01*
X13229857Y-14704714D02*
X13201286Y-14690429D01*
X13187000Y-14661857D01*
X13187000Y-14404714D01*
X13458428Y-14690429D02*
X13429857Y-14704714D01*
X13372714Y-14704714D01*
X13344143Y-14690429D01*
X13329857Y-14661857D01*
X13329857Y-14547571D01*
X13344143Y-14519000D01*
X13372714Y-14504714D01*
X13429857Y-14504714D01*
X13458428Y-14519000D01*
X13472714Y-14547571D01*
X13472714Y-14576143D01*
X13329857Y-14604714D01*
X13587000Y-14690429D02*
X13615571Y-14704714D01*
X13672714Y-14704714D01*
X13701286Y-14690429D01*
X13715571Y-14661857D01*
X13715571Y-14647571D01*
X13701286Y-14619000D01*
X13672714Y-14604714D01*
X13629857Y-14604714D01*
X13601286Y-14590429D01*
X13587000Y-14561857D01*
X13587000Y-14547571D01*
X13601286Y-14519000D01*
X13629857Y-14504714D01*
X13672714Y-14504714D01*
X13701286Y-14519000D01*
X13815571Y-14819000D02*
X13829857Y-14804714D01*
X13858428Y-14761857D01*
X13872714Y-14733286D01*
X13887000Y-14690429D01*
X13901286Y-14619000D01*
X13901286Y-14561857D01*
X13887000Y-14490429D01*
X13872714Y-14447571D01*
X13858428Y-14419000D01*
X13829857Y-14376143D01*
X13815571Y-14361857D01*
X6417000Y-14910000D02*
X6417000Y-15020000D01*
X6362000Y-14965000D02*
X6472000Y-14965000D01*
X6915571Y-15100714D02*
X6744143Y-15100714D01*
X6829857Y-15100714D02*
X6829857Y-14800714D01*
X6801286Y-14843571D01*
X6772714Y-14872143D01*
X6744143Y-14886429D01*
X7044143Y-15072143D02*
X7058428Y-15086429D01*
X7044143Y-15100714D01*
X7029857Y-15086429D01*
X7044143Y-15072143D01*
X7044143Y-15100714D01*
X7344143Y-15100714D02*
X7172714Y-15100714D01*
X7258428Y-15100714D02*
X7258428Y-14800714D01*
X7229857Y-14843571D01*
X7201286Y-14872143D01*
X7172714Y-14886429D01*
X7529857Y-14800714D02*
X7558428Y-14800714D01*
X7587000Y-14815000D01*
X7601286Y-14829286D01*
X7615571Y-14857857D01*
X7629857Y-14915000D01*
X7629857Y-14986429D01*
X7615571Y-15043571D01*
X7601286Y-15072143D01*
X7587000Y-15086429D01*
X7558428Y-15100714D01*
X7529857Y-15100714D01*
X7501286Y-15086429D01*
X7487000Y-15072143D01*
X7472714Y-15043571D01*
X7458428Y-14986429D01*
X7458428Y-14915000D01*
X7472714Y-14857857D01*
X7487000Y-14829286D01*
X7501286Y-14815000D01*
X7529857Y-14800714D01*
X7815571Y-14800714D02*
X7844143Y-14800714D01*
X7872714Y-14815000D01*
X7887000Y-14829286D01*
X7901286Y-14857857D01*
X7915571Y-14915000D01*
X7915571Y-14986429D01*
X7901286Y-15043571D01*
X7887000Y-15072143D01*
X7872714Y-15086429D01*
X7844143Y-15100714D01*
X7815571Y-15100714D01*
X7787000Y-15086429D01*
X7772714Y-15072143D01*
X7758428Y-15043571D01*
X7744143Y-14986429D01*
X7744143Y-14915000D01*
X7758428Y-14857857D01*
X7772714Y-14829286D01*
X7787000Y-14815000D01*
X7815571Y-14800714D01*
X8044143Y-15100714D02*
X8044143Y-14900714D01*
X8044143Y-14929286D02*
X8058428Y-14915000D01*
X8087000Y-14900714D01*
X8129857Y-14900714D01*
X8158428Y-14915000D01*
X8172714Y-14943571D01*
X8172714Y-15100714D01*
X8172714Y-14943571D02*
X8187000Y-14915000D01*
X8215571Y-14900714D01*
X8258428Y-14900714D01*
X8287000Y-14915000D01*
X8301286Y-14943571D01*
X8301286Y-15100714D01*
X8444143Y-15100714D02*
X8444143Y-14900714D01*
X8444143Y-14929286D02*
X8458428Y-14915000D01*
X8487000Y-14900714D01*
X8529857Y-14900714D01*
X8558428Y-14915000D01*
X8572714Y-14943571D01*
X8572714Y-15100714D01*
X8572714Y-14943571D02*
X8587000Y-14915000D01*
X8615571Y-14900714D01*
X8658428Y-14900714D01*
X8687000Y-14915000D01*
X8701286Y-14943571D01*
X8701286Y-15100714D01*
X9287000Y-14786429D02*
X9029857Y-15172143D01*
X9672714Y-14800714D02*
X9701286Y-14800714D01*
X9729857Y-14815000D01*
X9744143Y-14829286D01*
X9758428Y-14857857D01*
X9772714Y-14915000D01*
X9772714Y-14986429D01*
X9758428Y-15043571D01*
X9744143Y-15072143D01*
X9729857Y-15086429D01*
X9701286Y-15100714D01*
X9672714Y-15100714D01*
X9644143Y-15086429D01*
X9629857Y-15072143D01*
X9615571Y-15043571D01*
X9601286Y-14986429D01*
X9601286Y-14915000D01*
X9615571Y-14857857D01*
X9629857Y-14829286D01*
X9644143Y-14815000D01*
X9672714Y-14800714D01*
X9901286Y-15072143D02*
X9915571Y-15086429D01*
X9901286Y-15100714D01*
X9887000Y-15086429D01*
X9901286Y-15072143D01*
X9901286Y-15100714D01*
X10101286Y-14800714D02*
X10129857Y-14800714D01*
X10158428Y-14815000D01*
X10172714Y-14829286D01*
X10187000Y-14857857D01*
X10201286Y-14915000D01*
X10201286Y-14986429D01*
X10187000Y-15043571D01*
X10172714Y-15072143D01*
X10158428Y-15086429D01*
X10129857Y-15100714D01*
X10101286Y-15100714D01*
X10072714Y-15086429D01*
X10058428Y-15072143D01*
X10044143Y-15043571D01*
X10029857Y-14986429D01*
X10029857Y-14915000D01*
X10044143Y-14857857D01*
X10058428Y-14829286D01*
X10072714Y-14815000D01*
X10101286Y-14800714D01*
X10458428Y-14900714D02*
X10458428Y-15100714D01*
X10387000Y-14786429D02*
X10315571Y-15000714D01*
X10501286Y-15000714D01*
X10587000Y-14800714D02*
X10772714Y-14800714D01*
X10672714Y-14915000D01*
X10715571Y-14915000D01*
X10744143Y-14929286D01*
X10758428Y-14943571D01*
X10772714Y-14972143D01*
X10772714Y-15043571D01*
X10758428Y-15072143D01*
X10744143Y-15086429D01*
X10715571Y-15100714D01*
X10629857Y-15100714D01*
X10601286Y-15086429D01*
X10587000Y-15072143D01*
X10872714Y-14800714D02*
X11058428Y-14800714D01*
X10958428Y-14915000D01*
X11001286Y-14915000D01*
X11029857Y-14929286D01*
X11044143Y-14943571D01*
X11058428Y-14972143D01*
X11058428Y-15043571D01*
X11044143Y-15072143D01*
X11029857Y-15086429D01*
X11001286Y-15100714D01*
X10915571Y-15100714D01*
X10887000Y-15086429D01*
X10872714Y-15072143D01*
X11172714Y-14800714D02*
X11172714Y-14857857D01*
X11287000Y-14800714D02*
X11287000Y-14857857D01*
X11729857Y-15215000D02*
X11715571Y-15200714D01*
X11687000Y-15157857D01*
X11672714Y-15129286D01*
X11658428Y-15086429D01*
X11644143Y-15015000D01*
X11644143Y-14957857D01*
X11658428Y-14886429D01*
X11672714Y-14843571D01*
X11687000Y-14815000D01*
X11715571Y-14772143D01*
X11729857Y-14757857D01*
X12001286Y-15100714D02*
X11829857Y-15100714D01*
X11915571Y-15100714D02*
X11915571Y-14800714D01*
X11887000Y-14843571D01*
X11858428Y-14872143D01*
X11829857Y-14886429D01*
X12115571Y-14829286D02*
X12129857Y-14815000D01*
X12158428Y-14800714D01*
X12229857Y-14800714D01*
X12258428Y-14815000D01*
X12272714Y-14829286D01*
X12287000Y-14857857D01*
X12287000Y-14886429D01*
X12272714Y-14929286D01*
X12101286Y-15100714D01*
X12287000Y-15100714D01*
X12644143Y-15100714D02*
X12644143Y-14800714D01*
X12772714Y-15100714D02*
X12772714Y-14943571D01*
X12758428Y-14915000D01*
X12729857Y-14900714D01*
X12687000Y-14900714D01*
X12658428Y-14915000D01*
X12644143Y-14929286D01*
X12958428Y-15100714D02*
X12929857Y-15086429D01*
X12915571Y-15072143D01*
X12901286Y-15043571D01*
X12901286Y-14957857D01*
X12915571Y-14929286D01*
X12929857Y-14915000D01*
X12958428Y-14900714D01*
X13001286Y-14900714D01*
X13029857Y-14915000D01*
X13044143Y-14929286D01*
X13058428Y-14957857D01*
X13058428Y-15043571D01*
X13044143Y-15072143D01*
X13029857Y-15086429D01*
X13001286Y-15100714D01*
X12958428Y-15100714D01*
X13229857Y-15100714D02*
X13201286Y-15086429D01*
X13187000Y-15057857D01*
X13187000Y-14800714D01*
X13458428Y-15086429D02*
X13429857Y-15100714D01*
X13372714Y-15100714D01*
X13344143Y-15086429D01*
X13329857Y-15057857D01*
X13329857Y-14943571D01*
X13344143Y-14915000D01*
X13372714Y-14900714D01*
X13429857Y-14900714D01*
X13458428Y-14915000D01*
X13472714Y-14943571D01*
X13472714Y-14972143D01*
X13329857Y-15000714D01*
X13587000Y-15086429D02*
X13615571Y-15100714D01*
X13672714Y-15100714D01*
X13701286Y-15086429D01*
X13715571Y-15057857D01*
X13715571Y-15043571D01*
X13701286Y-15015000D01*
X13672714Y-15000714D01*
X13629857Y-15000714D01*
X13601286Y-14986429D01*
X13587000Y-14957857D01*
X13587000Y-14943571D01*
X13601286Y-14915000D01*
X13629857Y-14900714D01*
X13672714Y-14900714D01*
X13701286Y-14915000D01*
X13815571Y-15215000D02*
X13829857Y-15200714D01*
X13858428Y-15157857D01*
X13872714Y-15129286D01*
X13887000Y-15086429D01*
X13901286Y-15015000D01*
X13901286Y-14957857D01*
X13887000Y-14886429D01*
X13872714Y-14843571D01*
X13858428Y-14815000D01*
X13829857Y-14772143D01*
X13815571Y-14757857D01*
X6452962Y-15406962D02*
X6452962Y-15315038D01*
X6361037Y-15315038D01*
X6361037Y-15406962D01*
X6452962Y-15406962D01*
X6915571Y-15496714D02*
X6744143Y-15496714D01*
X6829857Y-15496714D02*
X6829857Y-15196714D01*
X6801286Y-15239571D01*
X6772714Y-15268143D01*
X6744143Y-15282429D01*
X7044143Y-15468143D02*
X7058428Y-15482429D01*
X7044143Y-15496714D01*
X7029857Y-15482429D01*
X7044143Y-15468143D01*
X7044143Y-15496714D01*
X7158428Y-15196714D02*
X7344143Y-15196714D01*
X7244143Y-15311000D01*
X7287000Y-15311000D01*
X7315571Y-15325286D01*
X7329857Y-15339571D01*
X7344143Y-15368143D01*
X7344143Y-15439571D01*
X7329857Y-15468143D01*
X7315571Y-15482429D01*
X7287000Y-15496714D01*
X7201286Y-15496714D01*
X7172714Y-15482429D01*
X7158428Y-15468143D01*
X7529857Y-15196714D02*
X7558428Y-15196714D01*
X7587000Y-15211000D01*
X7601286Y-15225286D01*
X7615571Y-15253857D01*
X7629857Y-15311000D01*
X7629857Y-15382429D01*
X7615571Y-15439571D01*
X7601286Y-15468143D01*
X7587000Y-15482429D01*
X7558428Y-15496714D01*
X7529857Y-15496714D01*
X7501286Y-15482429D01*
X7487000Y-15468143D01*
X7472714Y-15439571D01*
X7458428Y-15382429D01*
X7458428Y-15311000D01*
X7472714Y-15253857D01*
X7487000Y-15225286D01*
X7501286Y-15211000D01*
X7529857Y-15196714D01*
X7815571Y-15196714D02*
X7844143Y-15196714D01*
X7872714Y-15211000D01*
X7887000Y-15225286D01*
X7901286Y-15253857D01*
X7915571Y-15311000D01*
X7915571Y-15382429D01*
X7901286Y-15439571D01*
X7887000Y-15468143D01*
X7872714Y-15482429D01*
X7844143Y-15496714D01*
X7815571Y-15496714D01*
X7787000Y-15482429D01*
X7772714Y-15468143D01*
X7758428Y-15439571D01*
X7744143Y-15382429D01*
X7744143Y-15311000D01*
X7758428Y-15253857D01*
X7772714Y-15225286D01*
X7787000Y-15211000D01*
X7815571Y-15196714D01*
X8044143Y-15496714D02*
X8044143Y-15296714D01*
X8044143Y-15325286D02*
X8058428Y-15311000D01*
X8087000Y-15296714D01*
X8129857Y-15296714D01*
X8158428Y-15311000D01*
X8172714Y-15339571D01*
X8172714Y-15496714D01*
X8172714Y-15339571D02*
X8187000Y-15311000D01*
X8215571Y-15296714D01*
X8258428Y-15296714D01*
X8287000Y-15311000D01*
X8301286Y-15339571D01*
X8301286Y-15496714D01*
X8444143Y-15496714D02*
X8444143Y-15296714D01*
X8444143Y-15325286D02*
X8458428Y-15311000D01*
X8487000Y-15296714D01*
X8529857Y-15296714D01*
X8558428Y-15311000D01*
X8572714Y-15339571D01*
X8572714Y-15496714D01*
X8572714Y-15339571D02*
X8587000Y-15311000D01*
X8615571Y-15296714D01*
X8658428Y-15296714D01*
X8687000Y-15311000D01*
X8701286Y-15339571D01*
X8701286Y-15496714D01*
X9287000Y-15182429D02*
X9029857Y-15568143D01*
X9672714Y-15196714D02*
X9701286Y-15196714D01*
X9729857Y-15211000D01*
X9744143Y-15225286D01*
X9758428Y-15253857D01*
X9772714Y-15311000D01*
X9772714Y-15382429D01*
X9758428Y-15439571D01*
X9744143Y-15468143D01*
X9729857Y-15482429D01*
X9701286Y-15496714D01*
X9672714Y-15496714D01*
X9644143Y-15482429D01*
X9629857Y-15468143D01*
X9615571Y-15439571D01*
X9601286Y-15382429D01*
X9601286Y-15311000D01*
X9615571Y-15253857D01*
X9629857Y-15225286D01*
X9644143Y-15211000D01*
X9672714Y-15196714D01*
X9901286Y-15468143D02*
X9915571Y-15482429D01*
X9901286Y-15496714D01*
X9887000Y-15482429D01*
X9901286Y-15468143D01*
X9901286Y-15496714D01*
X10101286Y-15196714D02*
X10129857Y-15196714D01*
X10158428Y-15211000D01*
X10172714Y-15225286D01*
X10187000Y-15253857D01*
X10201286Y-15311000D01*
X10201286Y-15382429D01*
X10187000Y-15439571D01*
X10172714Y-15468143D01*
X10158428Y-15482429D01*
X10129857Y-15496714D01*
X10101286Y-15496714D01*
X10072714Y-15482429D01*
X10058428Y-15468143D01*
X10044143Y-15439571D01*
X10029857Y-15382429D01*
X10029857Y-15311000D01*
X10044143Y-15253857D01*
X10058428Y-15225286D01*
X10072714Y-15211000D01*
X10101286Y-15196714D01*
X10472714Y-15196714D02*
X10329857Y-15196714D01*
X10315571Y-15339571D01*
X10329857Y-15325286D01*
X10358428Y-15311000D01*
X10429857Y-15311000D01*
X10458428Y-15325286D01*
X10472714Y-15339571D01*
X10487000Y-15368143D01*
X10487000Y-15439571D01*
X10472714Y-15468143D01*
X10458428Y-15482429D01*
X10429857Y-15496714D01*
X10358428Y-15496714D01*
X10329857Y-15482429D01*
X10315571Y-15468143D01*
X10772714Y-15496714D02*
X10601286Y-15496714D01*
X10687000Y-15496714D02*
X10687000Y-15196714D01*
X10658428Y-15239571D01*
X10629857Y-15268143D01*
X10601286Y-15282429D01*
X10887000Y-15225286D02*
X10901286Y-15211000D01*
X10929857Y-15196714D01*
X11001286Y-15196714D01*
X11029857Y-15211000D01*
X11044143Y-15225286D01*
X11058428Y-15253857D01*
X11058428Y-15282429D01*
X11044143Y-15325286D01*
X10872714Y-15496714D01*
X11058428Y-15496714D01*
X11172714Y-15196714D02*
X11172714Y-15253857D01*
X11287000Y-15196714D02*
X11287000Y-15253857D01*
X11729857Y-15611000D02*
X11715571Y-15596714D01*
X11687000Y-15553857D01*
X11672714Y-15525286D01*
X11658428Y-15482429D01*
X11644143Y-15411000D01*
X11644143Y-15353857D01*
X11658428Y-15282429D01*
X11672714Y-15239571D01*
X11687000Y-15211000D01*
X11715571Y-15168143D01*
X11729857Y-15153857D01*
X12001286Y-15496714D02*
X11829857Y-15496714D01*
X11915571Y-15496714D02*
X11915571Y-15196714D01*
X11887000Y-15239571D01*
X11858428Y-15268143D01*
X11829857Y-15282429D01*
X12187000Y-15196714D02*
X12215571Y-15196714D01*
X12244143Y-15211000D01*
X12258428Y-15225286D01*
X12272714Y-15253857D01*
X12287000Y-15311000D01*
X12287000Y-15382429D01*
X12272714Y-15439571D01*
X12258428Y-15468143D01*
X12244143Y-15482429D01*
X12215571Y-15496714D01*
X12187000Y-15496714D01*
X12158428Y-15482429D01*
X12144143Y-15468143D01*
X12129857Y-15439571D01*
X12115571Y-15382429D01*
X12115571Y-15311000D01*
X12129857Y-15253857D01*
X12144143Y-15225286D01*
X12158428Y-15211000D01*
X12187000Y-15196714D01*
X12644143Y-15496714D02*
X12644143Y-15196714D01*
X12772714Y-15496714D02*
X12772714Y-15339571D01*
X12758428Y-15311000D01*
X12729857Y-15296714D01*
X12687000Y-15296714D01*
X12658428Y-15311000D01*
X12644143Y-15325286D01*
X12958428Y-15496714D02*
X12929857Y-15482429D01*
X12915571Y-15468143D01*
X12901286Y-15439571D01*
X12901286Y-15353857D01*
X12915571Y-15325286D01*
X12929857Y-15311000D01*
X12958428Y-15296714D01*
X13001286Y-15296714D01*
X13029857Y-15311000D01*
X13044143Y-15325286D01*
X13058428Y-15353857D01*
X13058428Y-15439571D01*
X13044143Y-15468143D01*
X13029857Y-15482429D01*
X13001286Y-15496714D01*
X12958428Y-15496714D01*
X13229857Y-15496714D02*
X13201286Y-15482429D01*
X13187000Y-15453857D01*
X13187000Y-15196714D01*
X13458428Y-15482429D02*
X13429857Y-15496714D01*
X13372714Y-15496714D01*
X13344143Y-15482429D01*
X13329857Y-15453857D01*
X13329857Y-15339571D01*
X13344143Y-15311000D01*
X13372714Y-15296714D01*
X13429857Y-15296714D01*
X13458428Y-15311000D01*
X13472714Y-15339571D01*
X13472714Y-15368143D01*
X13329857Y-15396714D01*
X13587000Y-15482429D02*
X13615571Y-15496714D01*
X13672714Y-15496714D01*
X13701286Y-15482429D01*
X13715571Y-15453857D01*
X13715571Y-15439571D01*
X13701286Y-15411000D01*
X13672714Y-15396714D01*
X13629857Y-15396714D01*
X13601286Y-15382429D01*
X13587000Y-15353857D01*
X13587000Y-15339571D01*
X13601286Y-15311000D01*
X13629857Y-15296714D01*
X13672714Y-15296714D01*
X13701286Y-15311000D01*
X13815571Y-15611000D02*
X13829857Y-15596714D01*
X13858428Y-15553857D01*
X13872714Y-15525286D01*
X13887000Y-15482429D01*
X13901286Y-15411000D01*
X13901286Y-15353857D01*
X13887000Y-15282429D01*
X13872714Y-15239571D01*
X13858428Y-15211000D01*
X13829857Y-15168143D01*
X13815571Y-15153857D01*
M02*
