G04 #@! TF.GenerationSoftware,KiCad,Pcbnew,(5.1.10)-1*
G04 #@! TF.CreationDate,2021-10-04T13:56:36-03:00*
G04 #@! TF.ProjectId,ESP-pwm_4ch,4553502d-7077-46d5-9f34-63682e6b6963,rev?*
G04 #@! TF.SameCoordinates,Original*
G04 #@! TF.FileFunction,Soldermask,Top*
G04 #@! TF.FilePolarity,Negative*
%FSLAX46Y46*%
G04 Gerber Fmt 4.6, Leading zero omitted, Abs format (unit mm)*
G04 Created by KiCad (PCBNEW (5.1.10)-1) date 2021-10-04 13:56:36*
%MOMM*%
%LPD*%
G01*
G04 APERTURE LIST*
%ADD10R,1.600000X2.200000*%
%ADD11R,5.800000X6.400000*%
%ADD12O,2.500000X1.750000*%
%ADD13R,2.500000X1.750000*%
%ADD14C,2.500000*%
%ADD15R,3.500000X3.500000*%
%ADD16C,3.500000*%
%ADD17R,2.000000X2.500000*%
%ADD18O,2.000000X2.500000*%
G04 APERTURE END LIST*
G04 #@! TO.C,C3*
G36*
G01*
X111620000Y-111285000D02*
X111620000Y-112235000D01*
G75*
G02*
X111370000Y-112485000I-250000J0D01*
G01*
X110870000Y-112485000D01*
G75*
G02*
X110620000Y-112235000I0J250000D01*
G01*
X110620000Y-111285000D01*
G75*
G02*
X110870000Y-111035000I250000J0D01*
G01*
X111370000Y-111035000D01*
G75*
G02*
X111620000Y-111285000I0J-250000D01*
G01*
G37*
G36*
G01*
X109720000Y-111285000D02*
X109720000Y-112235000D01*
G75*
G02*
X109470000Y-112485000I-250000J0D01*
G01*
X108970000Y-112485000D01*
G75*
G02*
X108720000Y-112235000I0J250000D01*
G01*
X108720000Y-111285000D01*
G75*
G02*
X108970000Y-111035000I250000J0D01*
G01*
X109470000Y-111035000D01*
G75*
G02*
X109720000Y-111285000I0J-250000D01*
G01*
G37*
G04 #@! TD*
G04 #@! TO.C,C6*
G36*
G01*
X144960000Y-89695000D02*
X144960000Y-90645000D01*
G75*
G02*
X144710000Y-90895000I-250000J0D01*
G01*
X144210000Y-90895000D01*
G75*
G02*
X143960000Y-90645000I0J250000D01*
G01*
X143960000Y-89695000D01*
G75*
G02*
X144210000Y-89445000I250000J0D01*
G01*
X144710000Y-89445000D01*
G75*
G02*
X144960000Y-89695000I0J-250000D01*
G01*
G37*
G36*
G01*
X143060000Y-89695000D02*
X143060000Y-90645000D01*
G75*
G02*
X142810000Y-90895000I-250000J0D01*
G01*
X142310000Y-90895000D01*
G75*
G02*
X142060000Y-90645000I0J250000D01*
G01*
X142060000Y-89695000D01*
G75*
G02*
X142310000Y-89445000I250000J0D01*
G01*
X142810000Y-89445000D01*
G75*
G02*
X143060000Y-89695000I0J-250000D01*
G01*
G37*
G04 #@! TD*
G04 #@! TO.C,C4*
G36*
G01*
X122100000Y-89695000D02*
X122100000Y-90645000D01*
G75*
G02*
X121850000Y-90895000I-250000J0D01*
G01*
X121350000Y-90895000D01*
G75*
G02*
X121100000Y-90645000I0J250000D01*
G01*
X121100000Y-89695000D01*
G75*
G02*
X121350000Y-89445000I250000J0D01*
G01*
X121850000Y-89445000D01*
G75*
G02*
X122100000Y-89695000I0J-250000D01*
G01*
G37*
G36*
G01*
X120200000Y-89695000D02*
X120200000Y-90645000D01*
G75*
G02*
X119950000Y-90895000I-250000J0D01*
G01*
X119450000Y-90895000D01*
G75*
G02*
X119200000Y-90645000I0J250000D01*
G01*
X119200000Y-89695000D01*
G75*
G02*
X119450000Y-89445000I250000J0D01*
G01*
X119950000Y-89445000D01*
G75*
G02*
X120200000Y-89695000I0J-250000D01*
G01*
G37*
G04 #@! TD*
G04 #@! TO.C,R7*
G36*
G01*
X149409999Y-83307500D02*
X150310001Y-83307500D01*
G75*
G02*
X150560000Y-83557499I0J-249999D01*
G01*
X150560000Y-84082501D01*
G75*
G02*
X150310001Y-84332500I-249999J0D01*
G01*
X149409999Y-84332500D01*
G75*
G02*
X149160000Y-84082501I0J249999D01*
G01*
X149160000Y-83557499D01*
G75*
G02*
X149409999Y-83307500I249999J0D01*
G01*
G37*
G36*
G01*
X149409999Y-85132500D02*
X150310001Y-85132500D01*
G75*
G02*
X150560000Y-85382499I0J-249999D01*
G01*
X150560000Y-85907501D01*
G75*
G02*
X150310001Y-86157500I-249999J0D01*
G01*
X149409999Y-86157500D01*
G75*
G02*
X149160000Y-85907501I0J249999D01*
G01*
X149160000Y-85382499D01*
G75*
G02*
X149409999Y-85132500I249999J0D01*
G01*
G37*
G04 #@! TD*
G04 #@! TO.C,R5*
G36*
G01*
X126549999Y-83307500D02*
X127450001Y-83307500D01*
G75*
G02*
X127700000Y-83557499I0J-249999D01*
G01*
X127700000Y-84082501D01*
G75*
G02*
X127450001Y-84332500I-249999J0D01*
G01*
X126549999Y-84332500D01*
G75*
G02*
X126300000Y-84082501I0J249999D01*
G01*
X126300000Y-83557499D01*
G75*
G02*
X126549999Y-83307500I249999J0D01*
G01*
G37*
G36*
G01*
X126549999Y-85132500D02*
X127450001Y-85132500D01*
G75*
G02*
X127700000Y-85382499I0J-249999D01*
G01*
X127700000Y-85907501D01*
G75*
G02*
X127450001Y-86157500I-249999J0D01*
G01*
X126549999Y-86157500D01*
G75*
G02*
X126300000Y-85907501I0J249999D01*
G01*
X126300000Y-85382499D01*
G75*
G02*
X126549999Y-85132500I249999J0D01*
G01*
G37*
G04 #@! TD*
G04 #@! TO.C,R6*
G36*
G01*
X150310001Y-91237500D02*
X149409999Y-91237500D01*
G75*
G02*
X149160000Y-90987501I0J249999D01*
G01*
X149160000Y-90462499D01*
G75*
G02*
X149409999Y-90212500I249999J0D01*
G01*
X150310001Y-90212500D01*
G75*
G02*
X150560000Y-90462499I0J-249999D01*
G01*
X150560000Y-90987501D01*
G75*
G02*
X150310001Y-91237500I-249999J0D01*
G01*
G37*
G36*
G01*
X150310001Y-89412500D02*
X149409999Y-89412500D01*
G75*
G02*
X149160000Y-89162501I0J249999D01*
G01*
X149160000Y-88637499D01*
G75*
G02*
X149409999Y-88387500I249999J0D01*
G01*
X150310001Y-88387500D01*
G75*
G02*
X150560000Y-88637499I0J-249999D01*
G01*
X150560000Y-89162501D01*
G75*
G02*
X150310001Y-89412500I-249999J0D01*
G01*
G37*
G04 #@! TD*
G04 #@! TO.C,R4*
G36*
G01*
X127450001Y-91237500D02*
X126549999Y-91237500D01*
G75*
G02*
X126300000Y-90987501I0J249999D01*
G01*
X126300000Y-90462499D01*
G75*
G02*
X126549999Y-90212500I249999J0D01*
G01*
X127450001Y-90212500D01*
G75*
G02*
X127700000Y-90462499I0J-249999D01*
G01*
X127700000Y-90987501D01*
G75*
G02*
X127450001Y-91237500I-249999J0D01*
G01*
G37*
G36*
G01*
X127450001Y-89412500D02*
X126549999Y-89412500D01*
G75*
G02*
X126300000Y-89162501I0J249999D01*
G01*
X126300000Y-88637499D01*
G75*
G02*
X126549999Y-88387500I249999J0D01*
G01*
X127450001Y-88387500D01*
G75*
G02*
X127700000Y-88637499I0J-249999D01*
G01*
X127700000Y-89162501D01*
G75*
G02*
X127450001Y-89412500I-249999J0D01*
G01*
G37*
G04 #@! TD*
G04 #@! TO.C,D1*
G36*
G01*
X102320000Y-121270000D02*
X103420000Y-121270000D01*
G75*
G02*
X103745000Y-121595000I0J-325000D01*
G01*
X103745000Y-122245000D01*
G75*
G02*
X103420000Y-122570000I-325000J0D01*
G01*
X102320000Y-122570000D01*
G75*
G02*
X101995000Y-122245000I0J325000D01*
G01*
X101995000Y-121595000D01*
G75*
G02*
X102320000Y-121270000I325000J0D01*
G01*
G37*
G36*
G01*
X102320000Y-117970000D02*
X103420000Y-117970000D01*
G75*
G02*
X103745000Y-118295000I0J-325000D01*
G01*
X103745000Y-118945000D01*
G75*
G02*
X103420000Y-119270000I-325000J0D01*
G01*
X102320000Y-119270000D01*
G75*
G02*
X101995000Y-118945000I0J325000D01*
G01*
X101995000Y-118295000D01*
G75*
G02*
X102320000Y-117970000I325000J0D01*
G01*
G37*
G04 #@! TD*
G04 #@! TO.C,D4*
G36*
G01*
X109657500Y-70863750D02*
X109657500Y-71376250D01*
G75*
G02*
X109438750Y-71595000I-218750J0D01*
G01*
X109001250Y-71595000D01*
G75*
G02*
X108782500Y-71376250I0J218750D01*
G01*
X108782500Y-70863750D01*
G75*
G02*
X109001250Y-70645000I218750J0D01*
G01*
X109438750Y-70645000D01*
G75*
G02*
X109657500Y-70863750I0J-218750D01*
G01*
G37*
G36*
G01*
X111232500Y-70863750D02*
X111232500Y-71376250D01*
G75*
G02*
X111013750Y-71595000I-218750J0D01*
G01*
X110576250Y-71595000D01*
G75*
G02*
X110357500Y-71376250I0J218750D01*
G01*
X110357500Y-70863750D01*
G75*
G02*
X110576250Y-70645000I218750J0D01*
G01*
X111013750Y-70645000D01*
G75*
G02*
X111232500Y-70863750I0J-218750D01*
G01*
G37*
G04 #@! TD*
G04 #@! TO.C,D3*
G36*
G01*
X109657500Y-74673750D02*
X109657500Y-75186250D01*
G75*
G02*
X109438750Y-75405000I-218750J0D01*
G01*
X109001250Y-75405000D01*
G75*
G02*
X108782500Y-75186250I0J218750D01*
G01*
X108782500Y-74673750D01*
G75*
G02*
X109001250Y-74455000I218750J0D01*
G01*
X109438750Y-74455000D01*
G75*
G02*
X109657500Y-74673750I0J-218750D01*
G01*
G37*
G36*
G01*
X111232500Y-74673750D02*
X111232500Y-75186250D01*
G75*
G02*
X111013750Y-75405000I-218750J0D01*
G01*
X110576250Y-75405000D01*
G75*
G02*
X110357500Y-75186250I0J218750D01*
G01*
X110357500Y-74673750D01*
G75*
G02*
X110576250Y-74455000I218750J0D01*
G01*
X111013750Y-74455000D01*
G75*
G02*
X111232500Y-74673750I0J-218750D01*
G01*
G37*
G04 #@! TD*
G04 #@! TO.C,D2*
G36*
G01*
X109657500Y-67053750D02*
X109657500Y-67566250D01*
G75*
G02*
X109438750Y-67785000I-218750J0D01*
G01*
X109001250Y-67785000D01*
G75*
G02*
X108782500Y-67566250I0J218750D01*
G01*
X108782500Y-67053750D01*
G75*
G02*
X109001250Y-66835000I218750J0D01*
G01*
X109438750Y-66835000D01*
G75*
G02*
X109657500Y-67053750I0J-218750D01*
G01*
G37*
G36*
G01*
X111232500Y-67053750D02*
X111232500Y-67566250D01*
G75*
G02*
X111013750Y-67785000I-218750J0D01*
G01*
X110576250Y-67785000D01*
G75*
G02*
X110357500Y-67566250I0J218750D01*
G01*
X110357500Y-67053750D01*
G75*
G02*
X110576250Y-66835000I218750J0D01*
G01*
X111013750Y-66835000D01*
G75*
G02*
X111232500Y-67053750I0J-218750D01*
G01*
G37*
G04 #@! TD*
G04 #@! TO.C,R3*
G36*
G01*
X102357500Y-67760001D02*
X102357500Y-66859999D01*
G75*
G02*
X102607499Y-66610000I249999J0D01*
G01*
X103132501Y-66610000D01*
G75*
G02*
X103382500Y-66859999I0J-249999D01*
G01*
X103382500Y-67760001D01*
G75*
G02*
X103132501Y-68010000I-249999J0D01*
G01*
X102607499Y-68010000D01*
G75*
G02*
X102357500Y-67760001I0J249999D01*
G01*
G37*
G36*
G01*
X104182500Y-67760001D02*
X104182500Y-66859999D01*
G75*
G02*
X104432499Y-66610000I249999J0D01*
G01*
X104957501Y-66610000D01*
G75*
G02*
X105207500Y-66859999I0J-249999D01*
G01*
X105207500Y-67760001D01*
G75*
G02*
X104957501Y-68010000I-249999J0D01*
G01*
X104432499Y-68010000D01*
G75*
G02*
X104182500Y-67760001I0J249999D01*
G01*
G37*
G04 #@! TD*
G04 #@! TO.C,R2*
G36*
G01*
X102357500Y-71570001D02*
X102357500Y-70669999D01*
G75*
G02*
X102607499Y-70420000I249999J0D01*
G01*
X103132501Y-70420000D01*
G75*
G02*
X103382500Y-70669999I0J-249999D01*
G01*
X103382500Y-71570001D01*
G75*
G02*
X103132501Y-71820000I-249999J0D01*
G01*
X102607499Y-71820000D01*
G75*
G02*
X102357500Y-71570001I0J249999D01*
G01*
G37*
G36*
G01*
X104182500Y-71570001D02*
X104182500Y-70669999D01*
G75*
G02*
X104432499Y-70420000I249999J0D01*
G01*
X104957501Y-70420000D01*
G75*
G02*
X105207500Y-70669999I0J-249999D01*
G01*
X105207500Y-71570001D01*
G75*
G02*
X104957501Y-71820000I-249999J0D01*
G01*
X104432499Y-71820000D01*
G75*
G02*
X104182500Y-71570001I0J249999D01*
G01*
G37*
G04 #@! TD*
G04 #@! TO.C,R1*
G36*
G01*
X102357500Y-75380001D02*
X102357500Y-74479999D01*
G75*
G02*
X102607499Y-74230000I249999J0D01*
G01*
X103132501Y-74230000D01*
G75*
G02*
X103382500Y-74479999I0J-249999D01*
G01*
X103382500Y-75380001D01*
G75*
G02*
X103132501Y-75630000I-249999J0D01*
G01*
X102607499Y-75630000D01*
G75*
G02*
X102357500Y-75380001I0J249999D01*
G01*
G37*
G36*
G01*
X104182500Y-75380001D02*
X104182500Y-74479999D01*
G75*
G02*
X104432499Y-74230000I249999J0D01*
G01*
X104957501Y-74230000D01*
G75*
G02*
X105207500Y-74479999I0J-249999D01*
G01*
X105207500Y-75380001D01*
G75*
G02*
X104957501Y-75630000I-249999J0D01*
G01*
X104432499Y-75630000D01*
G75*
G02*
X104182500Y-75380001I0J249999D01*
G01*
G37*
G04 #@! TD*
D10*
G04 #@! TO.C,U1*
X114560000Y-108340000D03*
X119120000Y-108340000D03*
D11*
X116840000Y-102040000D03*
G04 #@! TD*
G04 #@! TO.C,C7*
G36*
G01*
X142860000Y-92919999D02*
X142860000Y-93770001D01*
G75*
G02*
X142610001Y-94020000I-249999J0D01*
G01*
X141534999Y-94020000D01*
G75*
G02*
X141285000Y-93770001I0J249999D01*
G01*
X141285000Y-92919999D01*
G75*
G02*
X141534999Y-92670000I249999J0D01*
G01*
X142610001Y-92670000D01*
G75*
G02*
X142860000Y-92919999I0J-249999D01*
G01*
G37*
G36*
G01*
X145735000Y-92919999D02*
X145735000Y-93770001D01*
G75*
G02*
X145485001Y-94020000I-249999J0D01*
G01*
X144409999Y-94020000D01*
G75*
G02*
X144160000Y-93770001I0J249999D01*
G01*
X144160000Y-92919999D01*
G75*
G02*
X144409999Y-92670000I249999J0D01*
G01*
X145485001Y-92670000D01*
G75*
G02*
X145735000Y-92919999I0J-249999D01*
G01*
G37*
G04 #@! TD*
G04 #@! TO.C,C5*
G36*
G01*
X120000000Y-92919999D02*
X120000000Y-93770001D01*
G75*
G02*
X119750001Y-94020000I-249999J0D01*
G01*
X118674999Y-94020000D01*
G75*
G02*
X118425000Y-93770001I0J249999D01*
G01*
X118425000Y-92919999D01*
G75*
G02*
X118674999Y-92670000I249999J0D01*
G01*
X119750001Y-92670000D01*
G75*
G02*
X120000000Y-92919999I0J-249999D01*
G01*
G37*
G36*
G01*
X122875000Y-92919999D02*
X122875000Y-93770001D01*
G75*
G02*
X122625001Y-94020000I-249999J0D01*
G01*
X121549999Y-94020000D01*
G75*
G02*
X121300000Y-93770001I0J249999D01*
G01*
X121300000Y-92919999D01*
G75*
G02*
X121549999Y-92670000I249999J0D01*
G01*
X122625001Y-92670000D01*
G75*
G02*
X122875000Y-92919999I0J-249999D01*
G01*
G37*
G04 #@! TD*
G04 #@! TO.C,C1*
G36*
G01*
X108120000Y-103870000D02*
X108120000Y-101870000D01*
G75*
G02*
X108370000Y-101620000I250000J0D01*
G01*
X111870000Y-101620000D01*
G75*
G02*
X112120000Y-101870000I0J-250000D01*
G01*
X112120000Y-103870000D01*
G75*
G02*
X111870000Y-104120000I-250000J0D01*
G01*
X108370000Y-104120000D01*
G75*
G02*
X108120000Y-103870000I0J250000D01*
G01*
G37*
G36*
G01*
X100120000Y-103870000D02*
X100120000Y-101870000D01*
G75*
G02*
X100370000Y-101620000I250000J0D01*
G01*
X103870000Y-101620000D01*
G75*
G02*
X104120000Y-101870000I0J-250000D01*
G01*
X104120000Y-103870000D01*
G75*
G02*
X103870000Y-104120000I-250000J0D01*
G01*
X100370000Y-104120000D01*
G75*
G02*
X100120000Y-103870000I0J250000D01*
G01*
G37*
G04 #@! TD*
D12*
G04 #@! TO.C,U2*
X92710000Y-67310000D03*
X92710000Y-69850000D03*
X92710000Y-72390000D03*
X92710000Y-74930000D03*
X92710000Y-77470000D03*
X92710000Y-80010000D03*
X92710000Y-82550000D03*
X92710000Y-85090000D03*
X69850000Y-85090000D03*
X69850000Y-82550000D03*
X69850000Y-80010000D03*
X69850000Y-77470000D03*
X69850000Y-74930000D03*
X69850000Y-72390000D03*
D13*
X69850000Y-67310000D03*
D12*
X69850000Y-69850000D03*
G04 #@! TD*
D14*
G04 #@! TO.C,HS1*
X134540000Y-102108000D03*
X124540000Y-102108001D03*
G04 #@! TD*
D12*
G04 #@! TO.C,U3*
X93980000Y-101600000D03*
X93980000Y-99060000D03*
X68580000Y-116840000D03*
X68580000Y-114300000D03*
X93980000Y-104140000D03*
X93980000Y-106680000D03*
X93980000Y-109220000D03*
X93980000Y-111760000D03*
X93980000Y-114300000D03*
X93980000Y-116840000D03*
X93980000Y-93980000D03*
X93980000Y-96520000D03*
X68580000Y-111760000D03*
X68580000Y-109220000D03*
X68580000Y-106680000D03*
X68580000Y-104140000D03*
X68580000Y-101600000D03*
X68580000Y-99060000D03*
D13*
X68580000Y-93980000D03*
D12*
X68580000Y-96520000D03*
G04 #@! TD*
D14*
G04 #@! TO.C,HS3*
X157400000Y-102108000D03*
X147400000Y-102108001D03*
G04 #@! TD*
G04 #@! TO.C,HS4*
X157400000Y-72898000D03*
X147400000Y-72898001D03*
G04 #@! TD*
G04 #@! TO.C,HS2*
X134540000Y-72898000D03*
X124540000Y-72898001D03*
G04 #@! TD*
D15*
G04 #@! TO.C,J1*
X110490000Y-121920000D03*
D16*
X115570000Y-121920000D03*
G04 #@! TD*
D15*
G04 #@! TO.C,J2*
X121920000Y-121920000D03*
D16*
X127000000Y-121920000D03*
G04 #@! TD*
G04 #@! TO.C,J3*
X138430000Y-121920000D03*
D15*
X133350000Y-121920000D03*
G04 #@! TD*
G04 #@! TO.C,J4*
X144780000Y-121920000D03*
D16*
X149860000Y-121920000D03*
G04 #@! TD*
G04 #@! TO.C,J5*
X161290000Y-121920000D03*
D15*
X156210000Y-121920000D03*
G04 #@! TD*
D17*
G04 #@! TO.C,Q1*
X127000000Y-109220000D03*
D18*
X129540000Y-109220000D03*
X132080000Y-109220000D03*
G04 #@! TD*
G04 #@! TO.C,Q2*
X132080000Y-80010000D03*
X129540000Y-80010000D03*
D17*
X127000000Y-80010000D03*
G04 #@! TD*
D18*
G04 #@! TO.C,Q3*
X154940000Y-109220000D03*
X152400000Y-109220000D03*
D17*
X149860000Y-109220000D03*
G04 #@! TD*
G04 #@! TO.C,Q4*
X149860000Y-80010000D03*
D18*
X152400000Y-80010000D03*
X154940000Y-80010000D03*
G04 #@! TD*
G04 #@! TO.C,U4*
G36*
G01*
X122085000Y-83970000D02*
X122085000Y-83670000D01*
G75*
G02*
X122235000Y-83520000I150000J0D01*
G01*
X123885000Y-83520000D01*
G75*
G02*
X124035000Y-83670000I0J-150000D01*
G01*
X124035000Y-83970000D01*
G75*
G02*
X123885000Y-84120000I-150000J0D01*
G01*
X122235000Y-84120000D01*
G75*
G02*
X122085000Y-83970000I0J150000D01*
G01*
G37*
G36*
G01*
X122085000Y-85240000D02*
X122085000Y-84940000D01*
G75*
G02*
X122235000Y-84790000I150000J0D01*
G01*
X123885000Y-84790000D01*
G75*
G02*
X124035000Y-84940000I0J-150000D01*
G01*
X124035000Y-85240000D01*
G75*
G02*
X123885000Y-85390000I-150000J0D01*
G01*
X122235000Y-85390000D01*
G75*
G02*
X122085000Y-85240000I0J150000D01*
G01*
G37*
G36*
G01*
X122085000Y-86510000D02*
X122085000Y-86210000D01*
G75*
G02*
X122235000Y-86060000I150000J0D01*
G01*
X123885000Y-86060000D01*
G75*
G02*
X124035000Y-86210000I0J-150000D01*
G01*
X124035000Y-86510000D01*
G75*
G02*
X123885000Y-86660000I-150000J0D01*
G01*
X122235000Y-86660000D01*
G75*
G02*
X122085000Y-86510000I0J150000D01*
G01*
G37*
G36*
G01*
X122085000Y-87780000D02*
X122085000Y-87480000D01*
G75*
G02*
X122235000Y-87330000I150000J0D01*
G01*
X123885000Y-87330000D01*
G75*
G02*
X124035000Y-87480000I0J-150000D01*
G01*
X124035000Y-87780000D01*
G75*
G02*
X123885000Y-87930000I-150000J0D01*
G01*
X122235000Y-87930000D01*
G75*
G02*
X122085000Y-87780000I0J150000D01*
G01*
G37*
G36*
G01*
X117135000Y-87780000D02*
X117135000Y-87480000D01*
G75*
G02*
X117285000Y-87330000I150000J0D01*
G01*
X118935000Y-87330000D01*
G75*
G02*
X119085000Y-87480000I0J-150000D01*
G01*
X119085000Y-87780000D01*
G75*
G02*
X118935000Y-87930000I-150000J0D01*
G01*
X117285000Y-87930000D01*
G75*
G02*
X117135000Y-87780000I0J150000D01*
G01*
G37*
G36*
G01*
X117135000Y-86510000D02*
X117135000Y-86210000D01*
G75*
G02*
X117285000Y-86060000I150000J0D01*
G01*
X118935000Y-86060000D01*
G75*
G02*
X119085000Y-86210000I0J-150000D01*
G01*
X119085000Y-86510000D01*
G75*
G02*
X118935000Y-86660000I-150000J0D01*
G01*
X117285000Y-86660000D01*
G75*
G02*
X117135000Y-86510000I0J150000D01*
G01*
G37*
G36*
G01*
X117135000Y-85240000D02*
X117135000Y-84940000D01*
G75*
G02*
X117285000Y-84790000I150000J0D01*
G01*
X118935000Y-84790000D01*
G75*
G02*
X119085000Y-84940000I0J-150000D01*
G01*
X119085000Y-85240000D01*
G75*
G02*
X118935000Y-85390000I-150000J0D01*
G01*
X117285000Y-85390000D01*
G75*
G02*
X117135000Y-85240000I0J150000D01*
G01*
G37*
G36*
G01*
X117135000Y-83970000D02*
X117135000Y-83670000D01*
G75*
G02*
X117285000Y-83520000I150000J0D01*
G01*
X118935000Y-83520000D01*
G75*
G02*
X119085000Y-83670000I0J-150000D01*
G01*
X119085000Y-83970000D01*
G75*
G02*
X118935000Y-84120000I-150000J0D01*
G01*
X117285000Y-84120000D01*
G75*
G02*
X117135000Y-83970000I0J150000D01*
G01*
G37*
G04 #@! TD*
G04 #@! TO.C,U5*
G36*
G01*
X139995000Y-83970000D02*
X139995000Y-83670000D01*
G75*
G02*
X140145000Y-83520000I150000J0D01*
G01*
X141795000Y-83520000D01*
G75*
G02*
X141945000Y-83670000I0J-150000D01*
G01*
X141945000Y-83970000D01*
G75*
G02*
X141795000Y-84120000I-150000J0D01*
G01*
X140145000Y-84120000D01*
G75*
G02*
X139995000Y-83970000I0J150000D01*
G01*
G37*
G36*
G01*
X139995000Y-85240000D02*
X139995000Y-84940000D01*
G75*
G02*
X140145000Y-84790000I150000J0D01*
G01*
X141795000Y-84790000D01*
G75*
G02*
X141945000Y-84940000I0J-150000D01*
G01*
X141945000Y-85240000D01*
G75*
G02*
X141795000Y-85390000I-150000J0D01*
G01*
X140145000Y-85390000D01*
G75*
G02*
X139995000Y-85240000I0J150000D01*
G01*
G37*
G36*
G01*
X139995000Y-86510000D02*
X139995000Y-86210000D01*
G75*
G02*
X140145000Y-86060000I150000J0D01*
G01*
X141795000Y-86060000D01*
G75*
G02*
X141945000Y-86210000I0J-150000D01*
G01*
X141945000Y-86510000D01*
G75*
G02*
X141795000Y-86660000I-150000J0D01*
G01*
X140145000Y-86660000D01*
G75*
G02*
X139995000Y-86510000I0J150000D01*
G01*
G37*
G36*
G01*
X139995000Y-87780000D02*
X139995000Y-87480000D01*
G75*
G02*
X140145000Y-87330000I150000J0D01*
G01*
X141795000Y-87330000D01*
G75*
G02*
X141945000Y-87480000I0J-150000D01*
G01*
X141945000Y-87780000D01*
G75*
G02*
X141795000Y-87930000I-150000J0D01*
G01*
X140145000Y-87930000D01*
G75*
G02*
X139995000Y-87780000I0J150000D01*
G01*
G37*
G36*
G01*
X144945000Y-87780000D02*
X144945000Y-87480000D01*
G75*
G02*
X145095000Y-87330000I150000J0D01*
G01*
X146745000Y-87330000D01*
G75*
G02*
X146895000Y-87480000I0J-150000D01*
G01*
X146895000Y-87780000D01*
G75*
G02*
X146745000Y-87930000I-150000J0D01*
G01*
X145095000Y-87930000D01*
G75*
G02*
X144945000Y-87780000I0J150000D01*
G01*
G37*
G36*
G01*
X144945000Y-86510000D02*
X144945000Y-86210000D01*
G75*
G02*
X145095000Y-86060000I150000J0D01*
G01*
X146745000Y-86060000D01*
G75*
G02*
X146895000Y-86210000I0J-150000D01*
G01*
X146895000Y-86510000D01*
G75*
G02*
X146745000Y-86660000I-150000J0D01*
G01*
X145095000Y-86660000D01*
G75*
G02*
X144945000Y-86510000I0J150000D01*
G01*
G37*
G36*
G01*
X144945000Y-85240000D02*
X144945000Y-84940000D01*
G75*
G02*
X145095000Y-84790000I150000J0D01*
G01*
X146745000Y-84790000D01*
G75*
G02*
X146895000Y-84940000I0J-150000D01*
G01*
X146895000Y-85240000D01*
G75*
G02*
X146745000Y-85390000I-150000J0D01*
G01*
X145095000Y-85390000D01*
G75*
G02*
X144945000Y-85240000I0J150000D01*
G01*
G37*
G36*
G01*
X144945000Y-83970000D02*
X144945000Y-83670000D01*
G75*
G02*
X145095000Y-83520000I150000J0D01*
G01*
X146745000Y-83520000D01*
G75*
G02*
X146895000Y-83670000I0J-150000D01*
G01*
X146895000Y-83970000D01*
G75*
G02*
X146745000Y-84120000I-150000J0D01*
G01*
X145095000Y-84120000D01*
G75*
G02*
X144945000Y-83970000I0J150000D01*
G01*
G37*
G04 #@! TD*
G04 #@! TO.C,C2*
G36*
G01*
X102082500Y-112185001D02*
X102082500Y-111334999D01*
G75*
G02*
X102332499Y-111085000I249999J0D01*
G01*
X103407501Y-111085000D01*
G75*
G02*
X103657500Y-111334999I0J-249999D01*
G01*
X103657500Y-112185001D01*
G75*
G02*
X103407501Y-112435000I-249999J0D01*
G01*
X102332499Y-112435000D01*
G75*
G02*
X102082500Y-112185001I0J249999D01*
G01*
G37*
G36*
G01*
X104957500Y-112185001D02*
X104957500Y-111334999D01*
G75*
G02*
X105207499Y-111085000I249999J0D01*
G01*
X106282501Y-111085000D01*
G75*
G02*
X106532500Y-111334999I0J-249999D01*
G01*
X106532500Y-112185001D01*
G75*
G02*
X106282501Y-112435000I-249999J0D01*
G01*
X105207499Y-112435000D01*
G75*
G02*
X104957500Y-112185001I0J249999D01*
G01*
G37*
G04 #@! TD*
M02*
