M48
; DRILL file {KiCad (5.1.10)-1} date 10/04/21 13:51:49
; FORMAT={-:-/ absolute / metric / decimal}
; #@! TF.CreationDate,2021-10-04T13:51:49-03:00
; #@! TF.GenerationSoftware,Kicad,Pcbnew,(5.1.10)-1
; #@! TF.FileFunction,Plated,1,2,PTH
FMAT,2
METRIC
T1C0.600
T2C0.900
T3C1.100
T4C1.300
%
G90
G05
T1
X74.93Y-87.63
X74.93Y-96.52
X78.74Y-85.09
X78.74Y-93.98
X81.28Y-77.47
X81.28Y-111.76
X83.82Y-74.93
X83.82Y-109.22
X86.36Y-74.93
X86.36Y-106.68
X88.9Y-72.39
X88.9Y-104.14
X96.52Y-67.31
X96.52Y-87.63
X98.425Y-71.12
X100.33Y-73.66
X100.33Y-85.09
X102.87Y-99.06
X109.22Y-82.55
X109.22Y-87.63
X109.22Y-90.17
X109.22Y-98.425
X109.22Y-100.33
X109.22Y-114.3
X110.49Y-109.855
X114.3Y-74.93
X114.3Y-82.55
X116.84Y-106.68
X116.84Y-108.585
X120.015Y-86.995
X120.015Y-88.265
X120.65Y-74.93
X120.65Y-81.28
X142.875Y-86.995
X142.875Y-88.265
T2
X68.58Y-93.98
X68.58Y-96.52
X68.58Y-99.06
X68.58Y-101.6
X68.58Y-104.14
X68.58Y-106.68
X68.58Y-109.22
X68.58Y-111.76
X68.58Y-114.3
X68.58Y-116.84
X69.85Y-67.31
X69.85Y-69.85
X69.85Y-72.39
X69.85Y-74.93
X69.85Y-77.47
X69.85Y-80.01
X69.85Y-82.55
X69.85Y-85.09
X92.71Y-67.31
X92.71Y-69.85
X92.71Y-72.39
X92.71Y-74.93
X92.71Y-77.47
X92.71Y-80.01
X92.71Y-82.55
X92.71Y-85.09
X93.98Y-93.98
X93.98Y-96.52
X93.98Y-99.06
X93.98Y-101.6
X93.98Y-104.14
X93.98Y-106.68
X93.98Y-109.22
X93.98Y-111.76
X93.98Y-114.3
X93.98Y-116.84
T3
X127.0Y-80.01
X127.0Y-109.22
X129.54Y-80.01
X129.54Y-109.22
X132.08Y-80.01
X132.08Y-109.22
X149.86Y-80.01
X149.86Y-109.22
X152.4Y-80.01
X152.4Y-109.22
X154.94Y-80.01
X154.94Y-109.22
T4
X110.49Y-121.92
X115.57Y-121.92
X121.92Y-121.92
X127.0Y-121.92
X133.35Y-121.92
X138.43Y-121.92
X144.78Y-121.92
X149.86Y-121.92
X156.21Y-121.92
X161.29Y-121.92
T0
M30
